Inter-SemiBoldItalic.ufo
<glyph name="exclam" format="2">
  <advance width="870"/>
  <unicode hex="0021"/>
  <outline>
    <contour>
      <point x="839" y="2048" type="line"/>
      <point x="454" y="2048" type="line"/>
      <point x="247" y="602" type="line"/>
      <point x="567" y="602" type="line"/>
    </contour>
    <component base="period" xOffset="28"/>
  </outline>
</glyph>
<glyph name="numbersign" format="2">
  <advance width="1811"/>
  <unicode hex="0023"/>
  <note>
1. outline
2. slant 9.4 deg
3. remove extra shapes created by outlining
</note>
  <outline>
    <contour>
      <point x="982" y="0" type="line"/>
      <point x="1262" y="0" type="line"/>
      <point x="1634" y="2048" type="line"/>
      <point x="1354" y="2048" type="line"/>
    </contour>
    <contour>
      <point x="68" y="528" type="line"/>
      <point x="1644" y="528" type="line"/>
      <point x="1696" y="808" type="line"/>
      <point x="120" y="808" type="line"/>
    </contour>
    <contour>
      <point x="262" y="0" type="line"/>
      <point x="542" y="0" type="line"/>
      <point x="914" y="2048" type="line"/>
      <point x="634" y="2048" type="line"/>
    </contour>
    <contour>
      <point x="200" y="1240" type="line"/>
      <point x="1776" y="1240" type="line"/>
      <point x="1827" y="1520" type="line"/>
      <point x="251" y="1520" type="line"/>
    </contour>
  </outline>
</glyph>
<glyph name="dollar" format="2">
  <advance width="1828"/>
  <unicode hex="0024"/>
  <outline>
    <contour>
      <point x="643" y="-256" type="line"/>
      <point x="855" y="-256" type="line"/>
      <point x="1295" y="2304" type="line"/>
      <point x="1083" y="2304" type="line"/>
    </contour>
    <component base="S"/>
  </outline>
</glyph>
<glyph name="percent" format="2">
  <advance width="2376"/>
  <unicode hex="0025"/>
  <outline>
    <contour>
      <point x="1213" y="384" type="line" smooth="yes"/>
      <point x="1174" y="146"/>
      <point x="1292" y="-57"/>
      <point x="1574" y="-57" type="curve" smooth="yes"/>
      <point x="1853" y="-57"/>
      <point x="2041" y="146"/>
      <point x="2079" y="384" type="curve" smooth="yes"/>
      <point x="2099" y="492" type="line" smooth="yes"/>
      <point x="2139" y="732"/>
      <point x="2022" y="933"/>
      <point x="1739" y="933" type="curve" smooth="yes"/>
      <point x="1462" y="933"/>
      <point x="1271" y="730"/>
      <point x="1233" y="492" type="curve" smooth="yes"/>
    </contour>
    <contour>
      <point x="1494" y="492" type="line" smooth="yes"/>
      <point x="1512" y="598"/>
      <point x="1575" y="705"/>
      <point x="1702" y="705" type="curve" smooth="yes"/>
      <point x="1834" y="705"/>
      <point x="1854" y="598"/>
      <point x="1836" y="492" type="curve" smooth="yes"/>
      <point x="1816" y="384" type="line" smooth="yes"/>
      <point x="1800" y="278"/>
      <point x="1739" y="173"/>
      <point x="1611" y="173" type="curve" smooth="yes"/>
      <point x="1482" y="173"/>
      <point x="1458" y="279"/>
      <point x="1474" y="384" type="curve" smooth="yes"/>
    </contour>
    <contour>
      <point x="368" y="1556" type="line" smooth="yes"/>
      <point x="327" y="1318"/>
      <point x="447" y="1117"/>
      <point x="729" y="1117" type="curve" smooth="yes"/>
      <point x="1008" y="1117"/>
      <point x="1194" y="1316"/>
      <point x="1234" y="1556" type="curve" smooth="yes"/>
      <point x="1250" y="1664" type="line" smooth="yes"/>
      <point x="1290" y="1904"/>
      <point x="1174" y="2105"/>
      <point x="890" y="2105" type="curve" smooth="yes"/>
      <point x="614" y="2105"/>
      <point x="424" y="1904"/>
      <point x="384" y="1664" type="curve" smooth="yes"/>
    </contour>
    <contour>
      <point x="647" y="1664" type="line" smooth="yes"/>
      <point x="665" y="1769"/>
      <point x="726" y="1877"/>
      <point x="853" y="1877" type="curve" smooth="yes"/>
      <point x="985" y="1877"/>
      <point x="1005" y="1770"/>
      <point x="987" y="1664" type="curve" smooth="yes"/>
      <point x="971" y="1556" type="line" smooth="yes"/>
      <point x="951" y="1450"/>
      <point x="894" y="1345"/>
      <point x="766" y="1345" type="curve" smooth="yes"/>
      <point x="639" y="1345"/>
      <point x="611" y="1450"/>
      <point x="631" y="1556" type="curve" smooth="yes"/>
    </contour>
    <component base="fraction" xOffset="762"/>
  </outline>
</glyph>
<glyph name="ampersand" format="2">
  <advance width="1866"/>
  <unicode hex="0026"/>
  <outline>
    <contour>
      <point x="666" y="-30" type="curve" smooth="yes"/>
      <point x="852" y="-30"/>
      <point x="1068" y="30"/>
      <point x="1234" y="160" type="curve" smooth="yes"/>
      <point x="1270" y="183"/>
      <point x="1306" y="205"/>
      <point x="1342" y="228" type="curve" smooth="yes"/>
      <point x="1513" y="351"/>
      <point x="1692" y="578"/>
      <point x="1755" y="965" type="curve"/>
      <point x="1444" y="965" type="line"/>
      <point x="1376" y="546"/>
      <point x="1021" y="268"/>
      <point x="727" y="268" type="curve" smooth="yes"/>
      <point x="527" y="268"/>
      <point x="419" y="398"/>
      <point x="444" y="560" type="curve" smooth="yes"/>
      <point x="456" y="630"/>
      <point x="527" y="738"/>
      <point x="680" y="838" type="curve" smooth="yes"/>
      <point x="1144" y="1141" type="line" smooth="yes"/>
      <point x="1335" y="1265"/>
      <point x="1462" y="1414"/>
      <point x="1494" y="1608" type="curve" smooth="yes"/>
      <point x="1537" y="1858"/>
      <point x="1373" y="2073"/>
      <point x="1050" y="2073" type="curve" smooth="yes"/>
      <point x="727" y="2073"/>
      <point x="478" y="1858"/>
      <point x="430" y="1567" type="curve" smooth="yes"/>
      <point x="388" y="1311"/>
      <point x="537" y="1122"/>
      <point x="681" y="914" type="curve" smooth="yes"/>
      <point x="1326" y="0" type="line"/>
      <point x="1718" y="0" type="line"/>
      <point x="944" y="1126" type="line" smooth="yes"/>
      <point x="835" y="1293"/>
      <point x="729" y="1427"/>
      <point x="750" y="1562" type="curve" smooth="yes"/>
      <point x="767" y="1674"/>
      <point x="875" y="1776"/>
      <point x="1005" y="1776" type="curve" smooth="yes"/>
      <point x="1136" y="1776"/>
      <point x="1198" y="1680"/>
      <point x="1183" y="1592" type="curve" smooth="yes"/>
      <point x="1165" y="1489"/>
      <point x="1098" y="1415"/>
      <point x="980" y="1346" type="curve" smooth="yes"/>
      <point x="576" y="1099" type="line" smooth="yes"/>
      <point x="314" y="938"/>
      <point x="126" y="790"/>
      <point x="87" y="544" type="curve" smooth="yes"/>
      <point x="33" y="218"/>
      <point x="248" y="-30"/>
    </contour>
  </outline>
</glyph>
<glyph name="parenleft" format="2">
  <advance width="1108"/>
  <unicode hex="0028"/>
  <outline>
    <contour>
      <point x="287" y="835" type="curve" smooth="yes"/>
      <point x="205" y="336"/>
      <point x="270" y="-79"/>
      <point x="473" y="-435" type="curve"/>
      <point x="814" y="-435" type="line"/>
      <point x="654" y="-171"/>
      <point x="584" y="361"/>
      <point x="664" y="835" type="curve" smooth="yes"/>
      <point x="744" y="1310"/>
      <point x="987" y="1842"/>
      <point x="1234" y="2106" type="curve"/>
      <point x="894" y="2106" type="line"/>
      <point x="570" y="1750"/>
      <point x="370" y="1334"/>
    </contour>
  </outline>
</glyph>
<glyph name="asterisk" format="2">
  <advance width="1530"/>
  <unicode hex="002A"/>
  <note>
hexagonal angle: 30 deg
</note>
  <outline>
    <contour>
      <point x="663" y="896" type="line"/>
      <point x="906" y="896" type="line"/>
      <point x="954" y="1301" type="line"/>
      <point x="1258" y="1078" type="line"/>
      <point x="1415" y="1290" type="line"/>
      <point x="1081" y="1472" type="line"/>
      <point x="1470" y="1654" type="line"/>
      <point x="1382" y="1866" type="line"/>
      <point x="1009" y="1643" type="line"/>
      <point x="1098" y="2048" type="line"/>
      <point x="855" y="2048" type="line"/>
      <point x="810" y="1643" type="line"/>
      <point x="506" y="1866" type="line"/>
      <point x="349" y="1654" type="line"/>
      <point x="683" y="1472" type="line"/>
      <point x="294" y="1290" type="line"/>
      <point x="379" y="1078" type="line"/>
      <point x="755" y="1301" type="line"/>
    </contour>
  </outline>
</glyph>
<glyph name="plus" format="2">
  <advance width="1894"/>
  <unicode hex="002B"/>
  <outline>
    <contour>
      <point x="683" y="121" type="line"/>
      <point x="998" y="121" type="line"/>
      <point x="1226" y="1505" type="line"/>
      <point x="912" y="1505" type="line"/>
    </contour>
    <contour>
      <point x="236" y="656" type="line"/>
      <point x="1620" y="656" type="line"/>
      <point x="1673" y="970" type="line"/>
      <point x="289" y="970" type="line"/>
    </contour>
  </outline>
</glyph>
<glyph name="comma" format="2">
  <advance width="831"/>
  <unicode hex="002C"/>
  <outline>
    <contour>
      <point x="531" y="280" type="line"/>
      <point x="211" y="280" type="line"/>
      <point x="184" y="168" type="line" smooth="yes"/>
      <point x="124" y="-104"/>
      <point x="4" y="-382"/>
      <point x="-41" y="-500" type="curve"/>
      <point x="203" y="-500" type="line"/>
      <point x="270" y="-374"/>
      <point x="428" y="-82"/>
      <point x="498" y="170" type="curve" smooth="yes"/>
    </contour>
  </outline>
</glyph>
<glyph name="hyphen" format="2">
  <advance width="1312"/>
  <unicode hex="002D"/>
  <outline>
    <contour>
      <point x="1155" y="1002" type="line"/>
      <point x="234" y="1002" type="line"/>
      <point x="185" y="704" type="line"/>
      <point x="1106" y="704" type="line"/>
    </contour>
  </outline>
</glyph>
<glyph name="period" format="2">
  <advance width="818"/>
  <unicode hex="002E"/>
  <outline>
    <contour>
      <point x="302" y="-22" type="curve" smooth="yes"/>
      <point x="419" y="-22"/>
      <point x="526" y="75"/>
      <point x="534" y="198" type="curve" smooth="yes"/>
      <point x="541" y="316"/>
      <point x="444" y="414"/>
      <point x="326" y="414" type="curve" smooth="yes"/>
      <point x="205" y="414"/>
      <point x="99" y="318"/>
      <point x="94" y="198" type="curve" smooth="yes"/>
      <point x="88" y="75"/>
      <point x="179" y="-22"/>
    </contour>
  </outline>
</glyph>
<glyph name="zero" format="2">
  <advance width="1878"/>
  <unicode hex="0030"/>
  <outline>
    <contour>
      <point x="806" y="-39" type="curve" smooth="yes"/>
      <point x="1299" y="-39"/>
      <point x="1658" y="351"/>
      <point x="1770" y="1022" type="curve" smooth="yes"/>
      <point x="1882" y="1691"/>
      <point x="1646" y="2076"/>
      <point x="1155" y="2076" type="curve" smooth="yes"/>
      <point x="664" y="2076"/>
      <point x="304" y="1691"/>
      <point x="193" y="1022" type="curve" smooth="yes"/>
      <point x="81" y="351"/>
      <point x="310" y="-39"/>
    </contour>
    <contour>
      <point x="858" y="274" type="curve" smooth="yes"/>
      <point x="603" y="274"/>
      <point x="486" y="530"/>
      <point x="567" y="1022" type="curve" smooth="yes"/>
      <point x="648" y="1510"/>
      <point x="850" y="1767"/>
      <point x="1105" y="1767" type="curve" smooth="yes"/>
      <point x="1359" y="1767"/>
      <point x="1478" y="1510"/>
      <point x="1396" y="1022" type="curve" smooth="yes"/>
      <point x="1314" y="531"/>
      <point x="1114" y="274"/>
    </contour>
  </outline>
</glyph>
<glyph name="two" format="2">
  <advance width="1750"/>
  <unicode hex="0032"/>
  <outline>
    <contour>
      <point x="54" y="0" type="line"/>
      <point x="1458" y="0" type="line"/>
      <point x="1509" y="310" type="line"/>
      <point x="618" y="310" type="line"/>
      <point x="621" y="324" type="line"/>
      <point x="1032" y="683" type="line" smooth="yes"/>
      <point x="1494" y="1065"/>
      <point x="1634" y="1251"/>
      <point x="1674" y="1482" type="curve" smooth="yes"/>
      <point x="1732" y="1825"/>
      <point x="1498" y="2076"/>
      <point x="1085" y="2076" type="curve" smooth="yes"/>
      <point x="678" y="2076"/>
      <point x="345" y="1824"/>
      <point x="280" y="1435" type="curve"/>
      <point x="633" y="1435" type="line"/>
      <point x="668" y="1643"/>
      <point x="827" y="1775"/>
      <point x="1030" y="1775" type="curve" smooth="yes"/>
      <point x="1226" y="1775"/>
      <point x="1347" y="1656"/>
      <point x="1315" y="1463" type="curve" smooth="yes"/>
      <point x="1286" y="1293"/>
      <point x="1162" y="1171"/>
      <point x="925" y="965" type="curve" smooth="yes"/>
      <point x="99" y="268" type="line"/>
    </contour>
  </outline>
</glyph>
<glyph name="three" format="2">
  <advance width="1835"/>
  <unicode hex="0033"/>
  <outline>
    <contour>
      <point x="803" y="-28" type="curve" smooth="yes"/>
      <point x="1239" y="-28"/>
      <point x="1580" y="204"/>
      <point x="1636" y="548" type="curve" smooth="yes"/>
      <point x="1679" y="808"/>
      <point x="1537" y="1010"/>
      <point x="1270" y="1050" type="curve"/>
      <point x="1270" y="1063" type="line"/>
      <point x="1505" y="1111"/>
      <point x="1678" y="1257"/>
      <point x="1715" y="1488" type="curve" smooth="yes"/>
      <point x="1766" y="1800"/>
      <point x="1541" y="2076"/>
      <point x="1123" y="2076" type="curve" smooth="yes"/>
      <point x="735" y="2076"/>
      <point x="394" y="1838"/>
      <point x="332" y="1496" type="curve"/>
      <point x="687" y="1496" type="line"/>
      <point x="717" y="1668"/>
      <point x="913" y="1775"/>
      <point x="1105" y="1775" type="curve" smooth="yes"/>
      <point x="1296" y="1775"/>
      <point x="1388" y="1669"/>
      <point x="1361" y="1508" type="curve" smooth="yes"/>
      <point x="1329" y="1317"/>
      <point x="1154" y="1189"/>
      <point x="940" y="1189" type="curve" smooth="yes"/>
      <point x="768" y="1189" type="line"/>
      <point x="721" y="903" type="line"/>
      <point x="910" y="903" type="line" smooth="yes"/>
      <point x="1165" y="903"/>
      <point x="1292" y="787"/>
      <point x="1265" y="609" type="curve" smooth="yes"/>
      <point x="1235" y="416"/>
      <point x="1042" y="283"/>
      <point x="818" y="283" type="curve" smooth="yes"/>
      <point x="615" y="283"/>
      <point x="486" y="392"/>
      <point x="506" y="557" type="curve"/>
      <point x="136" y="557" type="line"/>
      <point x="84" y="210"/>
      <point x="362" y="-28"/>
    </contour>
  </outline>
</glyph>
<glyph name="four" format="2">
  <advance width="1875"/>
  <unicode hex="0034"/>
  <outline>
    <contour>
      <point x="81" y="380" type="line"/>
      <point x="1674" y="380" type="line"/>
      <point x="1725" y="685" type="line"/>
      <point x="511" y="685" type="line"/>
      <point x="513" y="701" type="line"/>
      <point x="1253" y="1628" type="line"/>
      <point x="1402" y="1628" type="line"/>
      <point x="1472" y="2048" type="line"/>
      <point x="1226" y="2048" type="line"/>
      <point x="129" y="675" type="line"/>
    </contour>
    <contour>
      <point x="994" y="0" type="line"/>
      <point x="1348" y="0" type="line"/>
      <point x="1688" y="2048" type="line"/>
      <point x="1338" y="2048" type="line"/>
      <point x="1099" y="602" type="line"/>
      <point x="1072" y="471" type="line"/>
    </contour>
  </outline>
</glyph>
<glyph name="five" format="2">
  <advance width="1781"/>
  <unicode hex="0035"/>
  <outline>
    <contour>
      <point x="762" y="-28" type="curve" smooth="yes"/>
      <point x="1197" y="-28"/>
      <point x="1547" y="266"/>
      <point x="1612" y="673" type="curve" smooth="yes"/>
      <point x="1679" y="1066"/>
      <point x="1452" y="1351"/>
      <point x="1081" y="1351" type="curve" smooth="yes"/>
      <point x="914" y="1351"/>
      <point x="756" y="1286"/>
      <point x="665" y="1195" type="curve"/>
      <point x="653" y="1195" type="line"/>
      <point x="802" y="1738" type="line"/>
      <point x="1684" y="1738" type="line"/>
      <point x="1734" y="2048" type="line"/>
      <point x="546" y="2048" type="line"/>
      <point x="263" y="992" type="line"/>
      <point x="589" y="937" type="line"/>
      <point x="672" y="1013"/>
      <point x="810" y="1063"/>
      <point x="932" y="1063" type="curve" smooth="yes"/>
      <point x="1158" y="1063"/>
      <point x="1292" y="897"/>
      <point x="1254" y="664" type="curve" smooth="yes"/>
      <point x="1215" y="434"/>
      <point x="1031" y="272"/>
      <point x="810" y="272" type="curve" smooth="yes"/>
      <point x="627" y="272"/>
      <point x="496" y="390"/>
      <point x="511" y="557" type="curve"/>
      <point x="151" y="557" type="line"/>
      <point x="106" y="218"/>
      <point x="362" y="-28"/>
    </contour>
  </outline>
</glyph>
<glyph name="six" format="2">
  <advance width="1825"/>
  <unicode hex="0036"/>
  <outline>
    <contour>
      <point x="819" y="-28" type="curve" smooth="yes"/>
      <point x="1251" y="-30"/>
      <point x="1586" y="262"/>
      <point x="1652" y="657" type="curve" smooth="yes"/>
      <point x="1719" y="1054"/>
      <point x="1483" y="1345"/>
      <point x="1114" y="1345" type="curve" smooth="yes"/>
      <point x="900" y="1345"/>
      <point x="698" y="1247"/>
      <point x="570" y="1071" type="curve"/>
      <point x="554" y="1050" type="line"/>
      <point x="632" y="1501"/>
      <point x="847" y="1761"/>
      <point x="1134" y="1761" type="curve" smooth="yes"/>
      <point x="1309" y="1761"/>
      <point x="1407" y="1663"/>
      <point x="1411" y="1498" type="curve"/>
      <point x="1769" y="1498" type="line"/>
      <point x="1780" y="1836"/>
      <point x="1539" y="2082"/>
      <point x="1154" y="2082" type="curve" smooth="yes"/>
      <point x="670" y="2082"/>
      <point x="302" y="1683"/>
      <point x="186" y="987" type="curve" smooth="yes"/>
      <point x="59" y="226"/>
      <point x="417" y="-26"/>
    </contour>
    <contour>
      <point x="832" y="272" type="curve" smooth="yes"/>
      <point x="620" y="272"/>
      <point x="498" y="440"/>
      <point x="530" y="646" type="curve" smooth="yes"/>
      <point x="566" y="872"/>
      <point x="775" y="1062"/>
      <point x="1001" y="1062" type="curve" smooth="yes"/>
      <point x="1210" y="1062"/>
      <point x="1331" y="899"/>
      <point x="1298" y="690" type="curve" smooth="yes"/>
      <point x="1262" y="456"/>
      <point x="1057" y="272"/>
    </contour>
  </outline>
</glyph>
<glyph name="seven" format="2">
  <advance width="1653"/>
  <unicode hex="0037"/>
  <outline>
    <contour>
      <point x="129" y="0" type="line"/>
      <point x="514" y="0" type="line"/>
      <point x="1671" y="1731" type="line"/>
      <point x="1724" y="2048" type="line"/>
      <point x="329" y="2048" type="line"/>
      <point x="278" y="1738" type="line"/>
      <point x="1290" y="1738" type="line"/>
      <point x="1286" y="1724" type="line"/>
    </contour>
  </outline>
</glyph>
<glyph name="eight" format="2">
  <advance width="1818"/>
  <unicode hex="0038"/>
  <note>
essentially two conjoined "three" glyphs
</note>
  <outline>
    <contour>
      <point x="786" y="-28" type="curve" smooth="yes"/>
      <point x="1224" y="-28"/>
      <point x="1576" y="211"/>
      <point x="1631" y="539" type="curve" smooth="yes"/>
      <point x="1676" y="800"/>
      <point x="1518" y="1017"/>
      <point x="1285" y="1059" type="curve"/>
      <point x="1285" y="1070" type="line"/>
      <point x="1499" y="1115"/>
      <point x="1679" y="1289"/>
      <point x="1718" y="1518" type="curve" smooth="yes"/>
      <point x="1770" y="1837"/>
      <point x="1514" y="2076"/>
      <point x="1114" y="2076" type="curve" smooth="yes"/>
      <point x="722" y="2076"/>
      <point x="405" y="1851"/>
      <point x="349" y="1537" type="curve" smooth="yes"/>
      <point x="309" y="1312"/>
      <point x="416" y="1118"/>
      <point x="618" y="1070" type="curve"/>
      <point x="618" y="1059" type="line"/>
      <point x="373" y="1019"/>
      <point x="153" y="810"/>
      <point x="110" y="558" type="curve" smooth="yes"/>
      <point x="54" y="225"/>
      <point x="335" y="-28"/>
    </contour>
    <contour>
      <point x="816" y="258" type="curve" smooth="yes"/>
      <point x="591" y="258"/>
      <point x="465" y="379"/>
      <point x="495" y="566" type="curve" smooth="yes"/>
      <point x="528" y="766"/>
      <point x="715" y="910"/>
      <point x="939" y="910" type="curve" smooth="yes"/>
      <point x="1154" y="910"/>
      <point x="1289" y="779"/>
      <point x="1258" y="585" type="curve" smooth="yes"/>
      <point x="1226" y="392"/>
      <point x="1052" y="258"/>
    </contour>
    <contour>
      <point x="970" y="1191" type="curve" smooth="yes"/>
      <point x="786" y="1191"/>
      <point x="672" y="1305"/>
      <point x="701" y="1482" type="curve" smooth="yes"/>
      <point x="731" y="1663"/>
      <point x="886" y="1786"/>
      <point x="1086" y="1786" type="curve" smooth="yes"/>
      <point x="1275" y="1786"/>
      <point x="1385" y="1678"/>
      <point x="1354" y="1502" type="curve" smooth="yes"/>
      <point x="1322" y="1321"/>
      <point x="1166" y="1191"/>
    </contour>
  </outline>
</glyph>
<glyph name="nine" format="2">
  <advance width="1825"/>
  <unicode hex="0039"/>
  <note>
six mirrored
</note>
  <outline>
    <contour>
      <point x="1094" y="2082" type="curve" smooth="yes"/>
      <point x="661" y="2084"/>
      <point x="328" y="1791"/>
      <point x="261" y="1397" type="curve" smooth="yes"/>
      <point x="194" y="999"/>
      <point x="430" y="709"/>
      <point x="798" y="709" type="curve" smooth="yes"/>
      <point x="1014" y="709"/>
      <point x="1215" y="806"/>
      <point x="1342" y="982" type="curve"/>
      <point x="1358" y="1003" type="line"/>
      <point x="1281" y="553"/>
      <point x="1065" y="293"/>
      <point x="778" y="293" type="curve" smooth="yes"/>
      <point x="603" y="293"/>
      <point x="506" y="390"/>
      <point x="502" y="556" type="curve"/>
      <point x="144" y="556" type="line"/>
      <point x="133" y="218"/>
      <point x="372" y="-28"/>
      <point x="759" y="-28" type="curve" smooth="yes"/>
      <point x="1244" y="-28"/>
      <point x="1611" y="370"/>
      <point x="1726" y="1066" type="curve" smooth="yes"/>
      <point x="1854" y="1827"/>
      <point x="1496" y="2079"/>
    </contour>
    <contour>
      <point x="1081" y="1782" type="curve" smooth="yes"/>
      <point x="1294" y="1782"/>
      <point x="1416" y="1613"/>
      <point x="1382" y="1407" type="curve" smooth="yes"/>
      <point x="1347" y="1182"/>
      <point x="1138" y="991"/>
      <point x="912" y="991" type="curve" smooth="yes"/>
      <point x="703" y="991"/>
      <point x="581" y="1154"/>
      <point x="615" y="1363" type="curve" smooth="yes"/>
      <point x="651" y="1598"/>
      <point x="856" y="1782"/>
    </contour>
  </outline>
</glyph>
<glyph name="less" format="2">
  <advance width="1894"/>
  <unicode hex="003C"/>
  <note>
Recipe: Make rect and rotate 63deg (regular) or 69deg (black)
</note>
  <guideline x="351" y="976" angle="0.0"/>
  <outline>
    <contour>
      <point x="246" y="669" type="line"/>
      <point x="1509" y="37" type="line"/>
      <point x="1569" y="392" type="line"/>
      <point x="664" y="809" type="line"/>
      <point x="673" y="790" type="line"/>
      <point x="680" y="836" type="line"/>
      <point x="668" y="817" type="line"/>
      <point x="1708" y="1234" type="line"/>
      <point x="1766" y="1589" type="line"/>
      <point x="295" y="957" type="line"/>
    </contour>
  </outline>
</glyph>
<glyph name="equal" format="2">
  <advance width="1894"/>
  <unicode hex="003D"/>
  <outline>
    <contour>
      <point x="316" y="978" type="line"/>
      <point x="1647" y="978" type="line"/>
      <point x="1699" y="1287" type="line"/>
      <point x="368" y="1287" type="line"/>
    </contour>
    <contour>
      <point x="211" y="338" type="line"/>
      <point x="1542" y="338" type="line"/>
      <point x="1592" y="647" type="line"/>
      <point x="261" y="647" type="line"/>
    </contour>
  </outline>
</glyph>
<glyph name="greater" format="2">
  <advance width="1894"/>
  <unicode hex="003E"/>
  <outline>
    <contour>
      <point x="1644" y="669" type="line"/>
      <point x="1693" y="957" type="line"/>
      <point x="428" y="1589" type="line"/>
      <point x="370" y="1234" type="line"/>
      <point x="1274" y="817" type="line"/>
      <point x="1264" y="836" type="line"/>
      <point x="1257" y="790" type="line"/>
      <point x="1270" y="809" type="line"/>
      <point x="231" y="392" type="line"/>
      <point x="171" y="37" type="line"/>
    </contour>
  </outline>
</glyph>
<glyph name="question" format="2">
  <advance width="1532"/>
  <unicode hex="003F"/>
  <outline>
    <contour>
      <point x="505" y="602" type="line"/>
      <point x="838" y="602" type="line"/>
      <point x="843" y="635" type="line" smooth="yes"/>
      <point x="880" y="843"/>
      <point x="966" y="940"/>
      <point x="1146" y="1038" type="curve" smooth="yes"/>
      <point x="1346" y="1146"/>
      <point x="1487" y="1297"/>
      <point x="1525" y="1526" type="curve" smooth="yes"/>
      <point x="1581" y="1864"/>
      <point x="1351" y="2076"/>
      <point x="970" y="2076" type="curve" smooth="yes"/>
      <point x="619" y="2076"/>
      <point x="306" y="1882"/>
      <point x="232" y="1502" type="curve"/>
      <point x="588" y="1502" type="line"/>
      <point x="626" y="1690"/>
      <point x="779" y="1780"/>
      <point x="921" y="1780" type="curve" smooth="yes"/>
      <point x="1074" y="1780"/>
      <point x="1178" y="1678"/>
      <point x="1152" y="1521" type="curve" smooth="yes"/>
      <point x="1130" y="1380"/>
      <point x="1019" y="1286"/>
      <point x="886" y="1209" type="curve" smooth="yes"/>
      <point x="695" y="1099"/>
      <point x="572" y="990"/>
      <point x="510" y="635" type="curve" smooth="yes"/>
    </contour>
    <component base="period" xOffset="296"/>
  </outline>
</glyph>
<glyph name="at" format="2">
  <advance width="2814"/>
  <unicode hex="0040"/>
  <outline>
    <contour>
      <point x="1250" y="-574" type="curve" smooth="yes"/>
      <point x="1508" y="-574"/>
      <point x="1790" y="-509"/>
      <point x="1929" y="-444" type="curve"/>
      <point x="1885" y="-190" type="line"/>
      <point x="1782" y="-226"/>
      <point x="1543" y="-292"/>
      <point x="1316" y="-292" type="curve" smooth="yes"/>
      <point x="654" y="-292"/>
      <point x="355" y="66"/>
      <point x="462" y="714" type="curve" smooth="yes"/>
      <point x="561" y="1318"/>
      <point x="972" y="1739"/>
      <point x="1625" y="1739" type="curve" smooth="yes"/>
      <point x="2158" y="1739"/>
      <point x="2507" y="1437"/>
      <point x="2411" y="869" type="curve" smooth="yes"/>
      <point x="2344" y="456"/>
      <point x="2250" y="270"/>
      <point x="2090" y="270" type="curve" smooth="yes"/>
      <point x="2004" y="270"/>
      <point x="1966" y="338"/>
      <point x="1979" y="437" type="curve" smooth="yes"/>
      <point x="2138" y="1389" type="line"/>
      <point x="1858" y="1389" type="line"/>
      <point x="1840" y="1277" type="line"/>
      <point x="1826" y="1277" type="line"/>
      <point x="1809" y="1365"/>
      <point x="1630" y="1446"/>
      <point x="1407" y="1416" type="curve" smooth="yes"/>
      <point x="1123" y="1379"/>
      <point x="818" y="1150"/>
      <point x="746" y="722" type="curve" smooth="yes"/>
      <point x="674" y="281"/>
      <point x="871" y="22"/>
      <point x="1194" y="7" type="curve" smooth="yes"/>
      <point x="1419" y="-4"/>
      <point x="1614" y="97"/>
      <point x="1678" y="216" type="curve"/>
      <point x="1690" y="216" type="line"/>
      <point x="1689" y="66"/>
      <point x="1809" y="-16"/>
      <point x="2012" y="-5" type="curve" smooth="yes"/>
      <point x="2445" y="11"/>
      <point x="2631" y="395"/>
      <point x="2706" y="852" type="curve" smooth="yes"/>
      <point x="2814" y="1509"/>
      <point x="2458" y="2017"/>
      <point x="1678" y="2017" type="curve" smooth="yes"/>
      <point x="848" y="2017"/>
      <point x="281" y="1506"/>
      <point x="149" y="710" type="curve" smooth="yes"/>
      <point x="16" y="-105"/>
      <point x="411" y="-574"/>
    </contour>
    <contour>
      <point x="1326" y="294" type="curve" smooth="yes"/>
      <point x="1065" y="294"/>
      <point x="1011" y="506"/>
      <point x="1047" y="734" type="curve" smooth="yes"/>
      <point x="1086" y="962"/>
      <point x="1241" y="1129"/>
      <point x="1465" y="1129" type="curve" smooth="yes"/>
      <point x="1714" y="1129"/>
      <point x="1786" y="1007"/>
      <point x="1742" y="735" type="curve" smooth="yes"/>
      <point x="1694" y="443"/>
      <point x="1578" y="294"/>
    </contour>
  </outline>
</glyph>
<glyph name="A" format="2">
  <advance width="2038"/>
  <unicode hex="0041"/>
  <outline>
    <contour>
      <point x="337" y="0" type="line"/>
      <point x="1155" y="1628" type="line"/>
      <point x="1171" y="1628" type="line"/>
      <point x="1446" y="0" type="line"/>
      <point x="1842" y="0" type="line"/>
      <point x="1460" y="2048" type="line"/>
      <point x="1002" y="2048" type="line"/>
      <point x="-59" y="0" type="line"/>
    </contour>
    <contour>
      <point x="483" y="803" type="line"/>
      <point x="433" y="505" type="line"/>
      <point x="1513" y="505" type="line"/>
      <point x="1563" y="803" type="line"/>
    </contour>
  </outline>
</glyph>
<glyph name="B" format="2">
  <advance width="1851"/>
  <unicode hex="0042"/>
  <outline>
    <contour>
      <point x="74" y="0" type="line"/>
      <point x="903" y="0" type="line" smooth="yes"/>
      <point x="1371" y="0"/>
      <point x="1642" y="239"/>
      <point x="1695" y="558" type="curve" smooth="yes"/>
      <point x="1746" y="868"/>
      <point x="1556" y="1050"/>
      <point x="1340" y="1061" type="curve"/>
      <point x="1344" y="1081" type="line"/>
      <point x="1550" y="1129"/>
      <point x="1730" y="1269"/>
      <point x="1773" y="1517" type="curve" smooth="yes"/>
      <point x="1825" y="1822"/>
      <point x="1642" y="2048"/>
      <point x="1198" y="2048" type="curve" smooth="yes"/>
      <point x="414" y="2048" type="line"/>
    </contour>
    <contour>
      <point x="497" y="310" type="line"/>
      <point x="596" y="910" type="line"/>
      <point x="1006" y="910" type="line" smooth="yes"/>
      <point x="1235" y="910"/>
      <point x="1352" y="770"/>
      <point x="1323" y="587" type="curve" smooth="yes"/>
      <point x="1296" y="425"/>
      <point x="1164" y="310"/>
      <point x="896" y="310" type="curve" smooth="yes"/>
    </contour>
    <contour>
      <point x="642" y="1177" type="line"/>
      <point x="734" y="1742" type="line"/>
      <point x="1110" y="1742" type="line" smooth="yes"/>
      <point x="1327" y="1742"/>
      <point x="1422" y="1628"/>
      <point x="1394" y="1469" type="curve" smooth="yes"/>
      <point x="1367" y="1290"/>
      <point x="1201" y="1177"/>
      <point x="1009" y="1177" type="curve" smooth="yes"/>
    </contour>
  </outline>
</glyph>
<glyph name="C" format="2">
  <advance width="2094"/>
  <unicode hex="0043"/>
  <outline>
    <contour>
      <point x="2050" y="1357" type="line"/>
      <point x="2061" y="1812"/>
      <point x="1748" y="2076"/>
      <point x="1285" y="2076" type="curve" smooth="yes"/>
      <point x="760" y="2076"/>
      <point x="306" y="1699"/>
      <point x="197" y="1046" type="curve" smooth="yes"/>
      <point x="87" y="374"/>
      <point x="428" y="-28"/>
      <point x="978" y="-28" type="curve" smooth="yes"/>
      <point x="1455" y="-28"/>
      <point x="1818" y="289"/>
      <point x="1941" y="680" type="curve"/>
      <point x="1568" y="680" type="line"/>
      <point x="1480" y="441"/>
      <point x="1252" y="305"/>
      <point x="995" y="305" type="curve" smooth="yes"/>
      <point x="676" y="305"/>
      <point x="487" y="543"/>
      <point x="562" y="1002" type="curve" smooth="yes"/>
      <point x="640" y="1474"/>
      <point x="931" y="1743"/>
      <point x="1276" y="1743" type="curve" smooth="yes"/>
      <point x="1516" y="1743"/>
      <point x="1680" y="1602"/>
      <point x="1682" y="1357" type="curve"/>
    </contour>
  </outline>
</glyph>
<glyph name="D" format="2">
  <advance width="2040"/>
  <unicode hex="0044"/>
  <note>
!post:RemoveOverlap
</note>
  <outline>
    <contour>
      <point x="778" y="0" type="line" smooth="yes"/>
      <point x="1402" y="0"/>
      <point x="1824" y="375"/>
      <point x="1928" y="1006" type="curve" smooth="yes"/>
      <point x="2036" y="1653"/>
      <point x="1722" y="2048"/>
      <point x="1112" y="2048" type="curve" smooth="yes"/>
      <point x="578" y="2048" type="line"/>
      <point x="525" y="1727" type="line"/>
      <point x="1057" y="1727" type="line" smooth="yes"/>
      <point x="1473" y="1727"/>
      <point x="1645" y="1506"/>
      <point x="1567" y="1047" type="curve" smooth="yes"/>
      <point x="1488" y="566"/>
      <point x="1223" y="321"/>
      <point x="797" y="321" type="curve" smooth="yes"/>
      <point x="302" y="321" type="line"/>
      <point x="249" y="0" type="line"/>
    </contour>
    <contour>
      <point x="785" y="2048" type="line"/>
      <point x="414" y="2048" type="line"/>
      <point x="74" y="0" type="line"/>
      <point x="445" y="0" type="line"/>
    </contour>
  </outline>
</glyph>
<glyph name="E" format="2">
  <advance width="1711"/>
  <unicode hex="0045"/>
  <outline>
    <contour>
      <point x="74" y="0" type="line"/>
      <point x="1414" y="0" type="line"/>
      <point x="1466" y="311" type="line"/>
      <point x="497" y="311" type="line"/>
      <point x="589" y="870" type="line"/>
      <point x="1481" y="870" type="line"/>
      <point x="1533" y="1181" type="line"/>
      <point x="641" y="1181" type="line"/>
      <point x="733" y="1737" type="line"/>
      <point x="1694" y="1737" type="line"/>
      <point x="1746" y="2048" type="line"/>
      <point x="414" y="2048" type="line"/>
    </contour>
  </outline>
</glyph>
<glyph name="F" format="2">
  <advance width="1649"/>
  <unicode hex="0046"/>
  <outline>
    <contour>
      <point x="74" y="0" type="line"/>
      <point x="445" y="0" type="line"/>
      <point x="589" y="870" type="line"/>
      <point x="1440" y="870" type="line"/>
      <point x="1492" y="1181" type="line"/>
      <point x="641" y="1181" type="line"/>
      <point x="733" y="1737" type="line"/>
      <point x="1674" y="1737" type="line"/>
      <point x="1726" y="2048" type="line"/>
      <point x="414" y="2048" type="line"/>
    </contour>
  </outline>
</glyph>
<glyph name="G" format="2">
  <advance width="2126"/>
  <unicode hex="0047"/>
  <outline>
    <contour>
      <point x="1676" y="1394" type="curve"/>
      <point x="2054" y="1394" type="line"/>
      <point x="2060" y="1796"/>
      <point x="1757" y="2076"/>
      <point x="1305" y="2076" type="curve" smooth="yes"/>
      <point x="769" y="2076"/>
      <point x="301" y="1682"/>
      <point x="194" y="1022" type="curve" smooth="yes"/>
      <point x="86" y="374"/>
      <point x="402" y="-28"/>
      <point x="967" y="-28" type="curve" smooth="yes"/>
      <point x="1475" y="-28"/>
      <point x="1892" y="298"/>
      <point x="1978" y="826" type="curve" smooth="yes"/>
      <point x="2020" y="1072" type="line"/>
      <point x="1189" y="1072" type="line"/>
      <point x="1139" y="782" type="line"/>
      <point x="1696" y="782" type="line"/>
      <point x="1614" y="795" type="line"/>
      <point x="1567" y="496"/>
      <point x="1322" y="305"/>
      <point x="1009" y="305" type="curve" smooth="yes"/>
      <point x="666" y="305"/>
      <point x="490" y="562"/>
      <point x="567" y="1026" type="curve" smooth="yes"/>
      <point x="643" y="1487"/>
      <point x="945" y="1743"/>
      <point x="1276" y="1743" type="curve" smooth="yes"/>
      <point x="1523" y="1743"/>
      <point x="1648" y="1610"/>
    </contour>
  </outline>
</glyph>
<glyph name="H" format="2">
  <advance width="2095"/>
  <unicode hex="0048"/>
  <outline>
    <contour>
      <point x="74" y="0" type="line"/>
      <point x="445" y="0" type="line"/>
      <point x="589" y="870" type="line"/>
      <point x="1538" y="870" type="line"/>
      <point x="1394" y="0" type="line"/>
      <point x="1766" y="0" type="line"/>
      <point x="2106" y="2048" type="line"/>
      <point x="1734" y="2048" type="line"/>
      <point x="1590" y="1181" type="line"/>
      <point x="641" y="1181" type="line"/>
      <point x="785" y="2048" type="line"/>
      <point x="414" y="2048" type="line"/>
    </contour>
  </outline>
</glyph>
<glyph name="J" format="2">
  <advance width="1579"/>
  <unicode hex="004A"/>
  <outline>
    <contour>
      <point x="1222" y="2048" type="line"/>
      <point x="985" y="613" type="line" smooth="yes"/>
      <point x="947" y="397"/>
      <point x="821" y="277"/>
      <point x="640" y="277" type="curve" smooth="yes"/>
      <point x="476" y="277"/>
      <point x="387" y="373"/>
      <point x="410" y="544" type="curve"/>
      <point x="46" y="544" type="line"/>
      <point x="-16" y="167"/>
      <point x="231" y="-28"/>
      <point x="594" y="-28" type="curve" smooth="yes"/>
      <point x="993" y="-28"/>
      <point x="1285" y="208"/>
      <point x="1350" y="603" type="curve" smooth="yes"/>
      <point x="1590" y="2048" type="line"/>
    </contour>
  </outline>
</glyph>
<glyph name="K" format="2">
  <advance width="1906"/>
  <unicode hex="004B"/>
  <outline>
    <contour>
      <point x="74" y="0" type="line"/>
      <point x="445" y="0" type="line"/>
      <point x="547" y="608" type="line"/>
      <point x="821" y="878" type="line"/>
      <point x="1283" y="0" type="line"/>
      <point x="1729" y="0" type="line"/>
      <point x="1119" y="1129" type="line"/>
      <point x="2062" y="2048" type="line"/>
      <point x="1609" y="2048" type="line"/>
      <point x="655" y="1107" type="line"/>
      <point x="630" y="1107" type="line"/>
      <point x="785" y="2048" type="line"/>
      <point x="414" y="2048" type="line"/>
    </contour>
  </outline>
</glyph>
<glyph name="L" format="2">
  <advance width="1594"/>
  <unicode hex="004C"/>
  <outline>
    <contour>
      <point x="74" y="0" type="line"/>
      <point x="1347" y="0" type="line"/>
      <point x="1399" y="311" type="line"/>
      <point x="497" y="311" type="line"/>
      <point x="785" y="2048" type="line"/>
      <point x="414" y="2048" type="line"/>
    </contour>
  </outline>
</glyph>
<glyph name="M" format="2">
  <advance width="2552"/>
  <unicode hex="004D"/>
  <outline>
    <contour>
      <point x="414" y="2048" type="line"/>
      <point x="74" y="0" type="line"/>
      <point x="430" y="0" type="line"/>
      <point x="666" y="1410" type="line"/>
      <point x="685" y="1410" type="line"/>
      <point x="1017" y="6" type="line"/>
      <point x="1282" y="6" type="line"/>
      <point x="2082" y="1407" type="line"/>
      <point x="2100" y="1407" type="line"/>
      <point x="1866" y="0" type="line"/>
      <point x="2222" y="0" type="line"/>
      <point x="2562" y="2048" type="line"/>
      <point x="2108" y="2048" type="line"/>
      <point x="1255" y="564" type="line"/>
      <point x="1231" y="564" type="line"/>
      <point x="868" y="2048" type="line"/>
    </contour>
  </outline>
</glyph>
<glyph name="N" format="2">
  <advance width="2086"/>
  <unicode hex="004E"/>
  <outline>
    <contour>
      <point x="2097" y="2048" type="line"/>
      <point x="1728" y="2048" type="line"/>
      <point x="1497" y="652" type="line"/>
      <point x="1478" y="652" type="line"/>
      <point x="746" y="2048" type="line"/>
      <point x="414" y="2048" type="line"/>
      <point x="74" y="0" type="line"/>
      <point x="445" y="0" type="line"/>
      <point x="678" y="1395" type="line"/>
      <point x="694" y="1395" type="line"/>
      <point x="1427" y="0" type="line"/>
      <point x="1757" y="0" type="line"/>
    </contour>
  </outline>
</glyph>
<glyph name="O" format="2">
  <advance width="2182"/>
  <unicode hex="004F"/>
  <outline>
    <contour>
      <point x="2070" y="1000" type="curve" smooth="yes"/>
      <point x="2182" y="1674"/>
      <point x="1834" y="2076"/>
      <point x="1289" y="2076" type="curve" smooth="yes"/>
      <point x="759" y="2076"/>
      <point x="304" y="1696"/>
      <point x="196" y="1045" type="curve" smooth="yes"/>
      <point x="85" y="373"/>
      <point x="432" y="-28"/>
      <point x="982" y="-28" type="curve" smooth="yes"/>
      <point x="1507" y="-28"/>
      <point x="1961" y="349"/>
    </contour>
    <contour>
      <point x="1705" y="1045" type="curve" smooth="yes"/>
      <point x="1626" y="569"/>
      <point x="1339" y="305"/>
      <point x="994" y="305" type="curve" smooth="yes"/>
      <point x="674" y="305"/>
      <point x="483" y="543"/>
      <point x="562" y="1000" type="curve" smooth="yes"/>
      <point x="638" y="1476"/>
      <point x="927" y="1743"/>
      <point x="1274" y="1743" type="curve" smooth="yes"/>
      <point x="1596" y="1743"/>
      <point x="1780" y="1500"/>
    </contour>
  </outline>
</glyph>
<glyph name="P" format="2">
  <advance width="1810"/>
  <unicode hex="0050"/>
  <outline>
    <contour>
      <point x="74" y="0" type="line"/>
      <point x="445" y="0" type="line"/>
      <point x="734" y="1738" type="line"/>
      <point x="1074" y="1738" type="line" smooth="yes"/>
      <point x="1352" y="1738"/>
      <point x="1448" y="1589"/>
      <point x="1413" y="1370" type="curve" smooth="yes"/>
      <point x="1378" y="1153"/>
      <point x="1229" y="997"/>
      <point x="952" y="997" type="curve" smooth="yes"/>
      <point x="493" y="997" type="line"/>
      <point x="442" y="692" type="line"/>
      <point x="951" y="692" type="line" smooth="yes"/>
      <point x="1426" y="692"/>
      <point x="1726" y="976"/>
      <point x="1791" y="1370" type="curve" smooth="yes"/>
      <point x="1856" y="1762"/>
      <point x="1653" y="2048"/>
      <point x="1182" y="2048" type="curve" smooth="yes"/>
      <point x="414" y="2048" type="line"/>
    </contour>
  </outline>
</glyph>
<glyph name="Q" format="2">
  <advance width="2206"/>
  <unicode hex="0051"/>
  <outline>
    <contour>
      <point x="942" y="688" type="line"/>
      <point x="1242" y="258" type="line"/>
      <point x="1326" y="118" type="line"/>
      <point x="1539" y="-176" type="line"/>
      <point x="1899" y="-176" type="line"/>
      <point x="1585" y="262" type="line"/>
      <point x="1464" y="430" type="line"/>
      <point x="1278" y="688" type="line"/>
    </contour>
    <component base="O"/>
  </outline>
</glyph>
<glyph name="R" format="2">
  <advance width="1843"/>
  <unicode hex="0052"/>
  <outline>
    <contour>
      <point x="74" y="0" type="line"/>
      <point x="445" y="0" type="line"/>
      <point x="734" y="1738" type="line"/>
      <point x="1074" y="1738" type="line" smooth="yes"/>
      <point x="1350" y="1738"/>
      <point x="1452" y="1612"/>
      <point x="1417" y="1393" type="curve" smooth="yes"/>
      <point x="1382" y="1176"/>
      <point x="1239" y="1058"/>
      <point x="964" y="1058" type="curve" smooth="yes"/>
      <point x="466" y="1058" type="line"/>
      <point x="414" y="750" type="line"/>
      <point x="961" y="750" type="line" smooth="yes"/>
      <point x="1434" y="750"/>
      <point x="1730" y="1001"/>
      <point x="1795" y="1393" type="curve" smooth="yes"/>
      <point x="1860" y="1786"/>
      <point x="1653" y="2048"/>
      <point x="1182" y="2048" type="curve" smooth="yes"/>
      <point x="414" y="2048" type="line"/>
    </contour>
    <contour>
      <point x="1286" y="928" type="line"/>
      <point x="881" y="928" type="line"/>
      <point x="1225" y="0" type="line"/>
      <point x="1639" y="0" type="line"/>
    </contour>
  </outline>
</glyph>
<glyph name="S" format="2">
  <advance width="1828"/>
  <unicode hex="0053"/>
  <note>
recipe: use stroke + offset curve filter with 32, no autostroke
</note>
  <outline>
    <contour>
      <point x="1431" y="1475" type="curve"/>
      <point x="1788" y="1475" type="line"/>
      <point x="1837" y="1831"/>
      <point x="1586" y="2076"/>
      <point x="1150" y="2076" type="curve" smooth="yes"/>
      <point x="719" y="2076"/>
      <point x="359" y="1835"/>
      <point x="298" y="1472" type="curve" smooth="yes"/>
      <point x="250" y="1178"/>
      <point x="430" y="1010"/>
      <point x="752" y="922" type="curve" smooth="yes"/>
      <point x="974" y="862" type="line" smooth="yes"/>
      <point x="1187" y="806"/>
      <point x="1324" y="737"/>
      <point x="1296" y="578" type="curve" smooth="yes"/>
      <point x="1268" y="403"/>
      <point x="1082" y="286"/>
      <point x="840" y="286" type="curve" smooth="yes"/>
      <point x="609" y="286"/>
      <point x="444" y="390"/>
      <point x="466" y="605" type="curve"/>
      <point x="101" y="605" type="line"/>
      <point x="48" y="198"/>
      <point x="314" y="-31"/>
      <point x="791" y="-31" type="curve" smooth="yes"/>
      <point x="1282" y="-31"/>
      <point x="1606" y="214"/>
      <point x="1667" y="575" type="curve" smooth="yes"/>
      <point x="1726" y="930"/>
      <point x="1459" y="1093"/>
      <point x="1165" y="1165" type="curve" smooth="yes"/>
      <point x="981" y="1213" type="line" smooth="yes"/>
      <point x="819" y="1253"/>
      <point x="648" y="1325"/>
      <point x="679" y="1495" type="curve" smooth="yes"/>
      <point x="705" y="1650"/>
      <point x="861" y="1762"/>
      <point x="1093" y="1762" type="curve" smooth="yes"/>
      <point x="1314" y="1762"/>
      <point x="1436" y="1660"/>
    </contour>
  </outline>
</glyph>
<glyph name="T" format="2">
  <advance width="1858"/>
  <unicode hex="0054"/>
  <outline>
    <contour>
      <point x="272" y="1737" type="line"/>
      <point x="905" y="1737" type="line"/>
      <point x="617" y="0" type="line"/>
      <point x="985" y="0" type="line"/>
      <point x="1273" y="1737" type="line"/>
      <point x="1906" y="1737" type="line"/>
      <point x="1958" y="2048" type="line"/>
      <point x="324" y="2048" type="line"/>
    </contour>
  </outline>
</glyph>
<glyph name="U" format="2">
  <advance width="2066"/>
  <unicode hex="0055"/>
  <outline>
    <contour>
      <point x="1706" y="2048" type="line"/>
      <point x="1484" y="703" type="line" smooth="yes"/>
      <point x="1442" y="450"/>
      <point x="1212" y="303"/>
      <point x="954" y="303" type="curve" smooth="yes"/>
      <point x="696" y="303"/>
      <point x="520" y="450"/>
      <point x="562" y="703" type="curve" smooth="yes"/>
      <point x="785" y="2048" type="line"/>
      <point x="414" y="2048" type="line"/>
      <point x="190" y="694" type="line" smooth="yes"/>
      <point x="112" y="230"/>
      <point x="424" y="-31"/>
      <point x="901" y="-31" type="curve" smooth="yes"/>
      <point x="1373" y="-31"/>
      <point x="1775" y="230"/>
      <point x="1852" y="694" type="curve" smooth="yes"/>
      <point x="2076" y="2048" type="line"/>
    </contour>
  </outline>
</glyph>
<glyph name="V" format="2">
  <advance width="2038"/>
  <unicode hex="0056"/>
  <outline>
    <contour>
      <point x="688" y="2048" type="line"/>
      <point x="281" y="2048" type="line"/>
      <point x="662" y="0" type="line"/>
      <point x="1120" y="0" type="line"/>
      <point x="2182" y="2048" type="line"/>
      <point x="1774" y="2048" type="line"/>
      <point x="975" y="436" type="line"/>
      <point x="954" y="436" type="line"/>
    </contour>
  </outline>
</glyph>
<glyph name="W" format="2">
  <advance width="2835"/>
  <unicode hex="0057"/>
  <outline>
    <contour>
      <point x="505" y="0" type="line"/>
      <point x="871" y="0" type="line"/>
      <point x="1522" y="1437" type="line"/>
      <point x="1538" y="1437" type="line"/>
      <point x="1708" y="0" type="line"/>
      <point x="2074" y="0" type="line"/>
      <point x="2992" y="2048" type="line"/>
      <point x="2593" y="2048" type="line"/>
      <point x="1975" y="542" type="line"/>
      <point x="1957" y="542" type="line"/>
      <point x="1811" y="2048" type="line"/>
      <point x="1448" y="2048" type="line"/>
      <point x="805" y="543" type="line"/>
      <point x="786" y="543" type="line"/>
      <point x="666" y="2048" type="line"/>
      <point x="267" y="2048" type="line"/>
    </contour>
  </outline>
</glyph>
<glyph name="X" format="2">
  <advance width="1944"/>
  <unicode hex="0058"/>
  <note>
recipe: offset curve 32, no auto
</note>
  <outline>
    <contour>
      <point x="714" y="2048" type="line"/>
      <point x="299" y="2048" type="line"/>
      <point x="770" y="1024" type="line"/>
      <point x="-49" y="0" type="line"/>
      <point x="386" y="0" type="line"/>
      <point x="966" y="745" type="line"/>
      <point x="982" y="745" type="line"/>
      <point x="1314" y="0" type="line"/>
      <point x="1737" y="0" type="line"/>
      <point x="1268" y="1024" type="line"/>
      <point x="2067" y="2048" type="line"/>
      <point x="1634" y="2048" type="line"/>
      <point x="1058" y="1298" type="line"/>
      <point x="1042" y="1298" type="line"/>
    </contour>
  </outline>
</glyph>
<glyph name="Y" format="2">
  <advance width="1984"/>
  <unicode hex="0059"/>
  <outline>
    <contour>
      <point x="274" y="2048" type="line"/>
      <point x="806" y="764" type="line"/>
      <point x="679" y="0" type="line"/>
      <point x="1049" y="0" type="line"/>
      <point x="1176" y="764" type="line"/>
      <point x="2134" y="2048" type="line"/>
      <point x="1715" y="2048" type="line"/>
      <point x="1066" y="1142" type="line"/>
      <point x="1044" y="1142" type="line"/>
      <point x="693" y="2048" type="line"/>
    </contour>
  </outline>
</glyph>
<glyph name="Z" format="2">
  <advance width="1838"/>
  <unicode hex="005A"/>
  <outline>
    <contour>
      <point x="36" y="0" type="line"/>
      <point x="1552" y="0" type="line"/>
      <point x="1604" y="311" type="line"/>
      <point x="547" y="311" type="line"/>
      <point x="1849" y="1817" type="line"/>
      <point x="1886" y="2048" type="line"/>
      <point x="370" y="2048" type="line"/>
      <point x="318" y="1737" type="line"/>
      <point x="1375" y="1737" type="line"/>
      <point x="76" y="231" type="line"/>
    </contour>
  </outline>
</glyph>
<glyph name="backslash" format="2">
  <advance width="1134"/>
  <unicode hex="005C"/>
  <outline>
    <contour>
      <point x="263" y="2048" type="line"/>
      <point x="584" y="-308" type="line"/>
      <point x="910" y="-308" type="line"/>
      <point x="590" y="2048" type="line"/>
    </contour>
  </outline>
</glyph>
<glyph name="asciicircum" format="2">
  <advance width="1355"/>
  <unicode hex="005E"/>
  <outline>
    <contour>
      <point x="832" y="1842" type="line"/>
      <point x="814" y="1735" type="line"/>
      <point x="886" y="1735" type="line"/>
      <point x="904" y="1842" type="line"/>
    </contour>
    <contour>
      <point x="159" y="1120" type="line"/>
      <point x="466" y="1120" type="line"/>
      <point x="865" y="1775" type="line"/>
      <point x="844" y="1775" type="line"/>
      <point x="1034" y="1120" type="line"/>
      <point x="1316" y="1120" type="line"/>
      <point x="1041" y="1997" type="line"/>
      <point x="721" y="1997" type="line"/>
    </contour>
  </outline>
</glyph>
<glyph name="grave" format="2">
  <advance width="1400"/>
  <unicode hex="0060"/>
  <note>
mirrored version of acute
</note>
  <outline>
    <contour>
      <point x="878" y="1738" type="line"/>
      <point x="1149" y="1738" type="line"/>
      <point x="1002" y="2195" type="line"/>
      <point x="648" y="2195" type="line"/>
    </contour>
  </outline>
</glyph>
<glyph name="a" format="2">
  <advance width="1618"/>
  <unicode hex="0061"/>
  <outline>
    <contour>
      <point x="496" y="-31" type="curve" smooth="yes"/>
      <point x="737" y="-31"/>
      <point x="901" y="82"/>
      <point x="987" y="211" type="curve"/>
      <point x="999" y="211" type="line"/>
      <point x="963" y="0" type="line"/>
      <point x="1311" y="0" type="line"/>
      <point x="1482" y="1028" type="line" smooth="yes"/>
      <point x="1550" y="1434"/>
      <point x="1239" y="1556"/>
      <point x="947" y="1556" type="curve" smooth="yes"/>
      <point x="624" y="1556"/>
      <point x="349" y="1412"/>
      <point x="225" y="1132" type="curve"/>
      <point x="553" y="1084" type="line"/>
      <point x="607" y="1190"/>
      <point x="730" y="1279"/>
      <point x="906" y="1279" type="curve" smooth="yes"/>
      <point x="1074" y="1279"/>
      <point x="1146" y="1192"/>
      <point x="1122" y="1042" type="curve" smooth="yes"/>
      <point x="1122" y="1036" type="line" smooth="yes"/>
      <point x="1104" y="934"/>
      <point x="993" y="927"/>
      <point x="718" y="898" type="curve" smooth="yes"/>
      <point x="415" y="866"/>
      <point x="116" y="777"/>
      <point x="58" y="431" type="curve" smooth="yes"/>
      <point x="8" y="130"/>
      <point x="204" y="-31"/>
    </contour>
    <contour>
      <point x="633" y="235" type="curve" smooth="yes"/>
      <point x="482" y="235"/>
      <point x="387" y="305"/>
      <point x="409" y="437" type="curve" smooth="yes"/>
      <point x="430" y="577"/>
      <point x="563" y="634"/>
      <point x="729" y="657" type="curve" smooth="yes"/>
      <point x="824" y="670"/>
      <point x="1019" y="694"/>
      <point x="1072" y="732" type="curve"/>
      <point x="1042" y="551" type="line" smooth="yes"/>
      <point x="1014" y="380"/>
      <point x="850" y="235"/>
    </contour>
  </outline>
</glyph>
<glyph name="b" format="2">
  <advance width="1775"/>
  <unicode hex="0062"/>
  <note>
top anchor should match top anchor of i
</note>
  <outline>
    <contour>
      <point x="74" y="0" type="line"/>
      <point x="430" y="0" type="line"/>
      <point x="470" y="242" type="line"/>
      <point x="493" y="242" type="line"/>
      <point x="531" y="130"/>
      <point x="623" y="-27"/>
      <point x="887" y="-27" type="curve" smooth="yes"/>
      <point x="1249" y="-27"/>
      <point x="1569" y="260"/>
      <point x="1652" y="766" type="curve" smooth="yes"/>
      <point x="1737" y="1278"/>
      <point x="1505" y="1556"/>
      <point x="1150" y="1556" type="curve" smooth="yes"/>
      <point x="879" y="1556"/>
      <point x="738" y="1393"/>
      <point x="666" y="1282" type="curve"/>
      <point x="650" y="1282" type="line"/>
      <point x="776" y="2048" type="line"/>
      <point x="414" y="2048" type="line"/>
    </contour>
    <contour>
      <point x="557" y="768" type="curve" smooth="yes"/>
      <point x="605" y="1066"/>
      <point x="766" y="1259"/>
      <point x="1000" y="1259" type="curve" smooth="yes"/>
      <point x="1241" y="1259"/>
      <point x="1329" y="1054"/>
      <point x="1283" y="768" type="curve" smooth="yes"/>
      <point x="1235" y="480"/>
      <point x="1075" y="270"/>
      <point x="837" y="270" type="curve" smooth="yes"/>
      <point x="606" y="270"/>
      <point x="509" y="470"/>
    </contour>
  </outline>
</glyph>
<glyph name="c" format="2">
  <advance width="1626"/>
  <unicode hex="0063"/>
  <outline>
    <contour>
      <point x="724" y="-30" type="curve" smooth="yes"/>
      <point x="1110" y="-30"/>
      <point x="1391" y="198"/>
      <point x="1475" y="525" type="curve"/>
      <point x="1129" y="525" type="line"/>
      <point x="1069" y="360"/>
      <point x="935" y="265"/>
      <point x="776" y="265" type="curve" smooth="yes"/>
      <point x="550" y="265"/>
      <point x="435" y="454"/>
      <point x="487" y="768" type="curve" smooth="yes"/>
      <point x="536" y="1078"/>
      <point x="717" y="1264"/>
      <point x="942" y="1264" type="curve" smooth="yes"/>
      <point x="1115" y="1264"/>
      <point x="1204" y="1152"/>
      <point x="1207" y="1004" type="curve"/>
      <point x="1554" y="1004" type="line"/>
      <point x="1583" y="1337"/>
      <point x="1360" y="1556"/>
      <point x="986" y="1556" type="curve" smooth="yes"/>
      <point x="535" y="1556"/>
      <point x="195" y="1231"/>
      <point x="120" y="762" type="curve" smooth="yes"/>
      <point x="42" y="297"/>
      <point x="264" y="-30"/>
    </contour>
  </outline>
</glyph>
<glyph name="d" format="2">
  <advance width="1778"/>
  <unicode hex="0064"/>
  <outline>
    <contour>
      <point x="627" y="-27" type="curve" smooth="yes"/>
      <point x="890" y="-27"/>
      <point x="1036" y="130"/>
      <point x="1111" y="242" type="curve"/>
      <point x="1133" y="242" type="line"/>
      <point x="1092" y="0" type="line"/>
      <point x="1448" y="0" type="line"/>
      <point x="1788" y="2048" type="line"/>
      <point x="1426" y="2048" type="line"/>
      <point x="1298" y="1282" type="line"/>
      <point x="1283" y="1282" type="line"/>
      <point x="1246" y="1393"/>
      <point x="1160" y="1556"/>
      <point x="889" y="1556" type="curve" smooth="yes"/>
      <point x="535" y="1556"/>
      <point x="210" y="1278"/>
      <point x="124" y="766" type="curve" smooth="yes"/>
      <point x="41" y="260"/>
      <point x="265" y="-27"/>
    </contour>
    <contour>
      <point x="772" y="270" type="curve" smooth="yes"/>
      <point x="533" y="270"/>
      <point x="446" y="480"/>
      <point x="494" y="768" type="curve" smooth="yes"/>
      <point x="541" y="1054"/>
      <point x="695" y="1259"/>
      <point x="935" y="1259" type="curve" smooth="yes"/>
      <point x="1169" y="1259"/>
      <point x="1270" y="1066"/>
      <point x="1221" y="768" type="curve" smooth="yes"/>
      <point x="1171" y="470"/>
      <point x="1002" y="270"/>
    </contour>
  </outline>
</glyph>
<glyph name="e" format="2">
  <advance width="1671"/>
  <unicode hex="0065"/>
  <outline>
    <contour>
      <point x="734" y="-30" type="curve" smooth="yes"/>
      <point x="1093" y="-30"/>
      <point x="1366" y="145"/>
      <point x="1476" y="412" type="curve"/>
      <point x="1145" y="450" type="line"/>
      <point x="1073" y="319"/>
      <point x="945" y="252"/>
      <point x="786" y="252" type="curve" smooth="yes"/>
      <point x="542" y="252"/>
      <point x="417" y="376"/>
      <point x="462" y="664" type="curve" smooth="yes"/>
      <point x="503" y="898" type="line" smooth="yes"/>
      <point x="537" y="1087"/>
      <point x="724" y="1274"/>
      <point x="938" y="1274" type="curve" smooth="yes"/>
      <point x="1147" y="1274"/>
      <point x="1260" y="1122"/>
      <point x="1225" y="913" type="curve"/>
      <point x="313" y="913" type="line"/>
      <point x="274" y="669" type="line"/>
      <point x="1534" y="669" type="line"/>
      <point x="1551" y="780" type="line" smooth="yes"/>
      <point x="1641" y="1318"/>
      <point x="1357" y="1556"/>
      <point x="979" y="1556" type="curve" smooth="yes"/>
      <point x="540" y="1556"/>
      <point x="198" y="1233"/>
      <point x="120" y="759" type="curve" smooth="yes"/>
      <point x="39" y="278"/>
      <point x="272" y="-30"/>
    </contour>
  </outline>
</glyph>
<glyph name="f" format="2">
  <advance width="1063"/>
  <unicode hex="0066"/>
  <outline>
    <contour>
      <point x="1093" y="1536" type="line"/>
      <point x="185" y="1536" type="line"/>
      <point x="138" y="1256" type="line"/>
      <point x="1046" y="1256" type="line"/>
    </contour>
    <component base="_part.f_base" xOffset="-10"/>
  </outline>
</glyph>
<glyph name="g" format="2">
  <advance width="1761"/>
  <unicode hex="0067"/>
  <outline>
    <contour>
      <point x="630" y="-602" type="curve" smooth="yes"/>
      <point x="1043" y="-602"/>
      <point x="1381" y="-413"/>
      <point x="1445" y="-25" type="curve" smooth="yes"/>
      <point x="1703" y="1536" type="line"/>
      <point x="1346" y="1536" type="line"/>
      <point x="1304" y="1282" type="line"/>
      <point x="1285" y="1282" type="line"/>
      <point x="1248" y="1393"/>
      <point x="1160" y="1556"/>
      <point x="889" y="1556" type="curve" smooth="yes"/>
      <point x="534" y="1556"/>
      <point x="209" y="1278"/>
      <point x="126" y="773" type="curve" smooth="yes"/>
      <point x="42" y="272"/>
      <point x="279" y="22"/>
      <point x="634" y="22" type="curve" smooth="yes"/>
      <point x="897" y="22"/>
      <point x="1044" y="163"/>
      <point x="1116" y="276" type="curve"/>
      <point x="1134" y="276" type="line"/>
      <point x="1088" y="-15" type="line" smooth="yes"/>
      <point x="1052" y="-234"/>
      <point x="882" y="-328"/>
      <point x="677" y="-328" type="curve" smooth="yes"/>
      <point x="456" y="-328"/>
      <point x="383" y="-225"/>
      <point x="353" y="-141" type="curve"/>
      <point x="13" y="-220" type="line"/>
      <point x="46" y="-429"/>
      <point x="237" y="-602"/>
    </contour>
    <contour>
      <point x="778" y="306" type="curve" smooth="yes"/>
      <point x="538" y="306"/>
      <point x="448" y="492"/>
      <point x="494" y="775" type="curve" smooth="yes"/>
      <point x="540" y="1054"/>
      <point x="692" y="1259"/>
      <point x="934" y="1259" type="curve" smooth="yes"/>
      <point x="1166" y="1259"/>
      <point x="1268" y="1066"/>
      <point x="1221" y="775" type="curve" smooth="yes"/>
      <point x="1173" y="482"/>
      <point x="1008" y="306"/>
    </contour>
  </outline>
</glyph>
<glyph name="h" format="2">
  <advance width="1726"/>
  <unicode hex="0068"/>
  <note>
based on "n" and made slightly wider, brining the top vertical stem with it out.
</note>
  <outline>
    <contour>
      <point x="570" y="900" type="line" smooth="yes"/>
      <point x="609" y="1122"/>
      <point x="768" y="1250"/>
      <point x="962" y="1250" type="curve" smooth="yes"/>
      <point x="1150" y="1250"/>
      <point x="1242" y="1129"/>
      <point x="1209" y="922" type="curve" smooth="yes"/>
      <point x="1055" y="0" type="line"/>
      <point x="1418" y="0" type="line"/>
      <point x="1582" y="978" type="line" smooth="yes"/>
      <point x="1642" y="1350"/>
      <point x="1466" y="1556"/>
      <point x="1149" y="1556" type="curve" smooth="yes"/>
      <point x="911" y="1556"/>
      <point x="742" y="1450"/>
      <point x="645" y="1275" type="curve"/>
      <point x="626" y="1275" type="line"/>
      <point x="754" y="2048" type="line"/>
      <point x="399" y="2048" type="line"/>
      <point x="59" y="0" type="line"/>
      <point x="422" y="0" type="line"/>
    </contour>
  </outline>
</glyph>
<glyph name="k" format="2">
  <advance width="1602"/>
  <unicode hex="006B"/>
  <outline>
    <contour>
      <point x="467" y="482" type="line"/>
      <point x="798" y="780" type="line"/>
      <point x="872" y="780" type="line"/>
      <point x="1676" y="1536" type="line"/>
      <point x="1253" y="1536" type="line"/>
      <point x="596" y="919" type="line"/>
      <point x="538" y="919" type="line"/>
    </contour>
    <contour>
      <point x="58" y="0" type="line"/>
      <point x="420" y="0" type="line"/>
      <point x="760" y="2048" type="line"/>
      <point x="398" y="2048" type="line"/>
    </contour>
    <contour>
      <point x="1022" y="0" type="line"/>
      <point x="1455" y="0" type="line"/>
      <point x="925" y="954" type="line"/>
      <point x="638" y="699" type="line"/>
    </contour>
  </outline>
</glyph>
<glyph name="m" format="2">
  <advance width="2528"/>
  <unicode hex="006D"/>
  <outline>
    <contour>
      <point x="59" y="0" type="line"/>
      <point x="422" y="0" type="line"/>
      <point x="578" y="934" type="line" smooth="yes"/>
      <point x="608" y="1122"/>
      <point x="756" y="1251"/>
      <point x="912" y="1251" type="curve" smooth="yes"/>
      <point x="1066" y="1251"/>
      <point x="1152" y="1149"/>
      <point x="1128" y="990" type="curve" smooth="yes"/>
      <point x="962" y="0" type="line"/>
      <point x="1317" y="0" type="line"/>
      <point x="1478" y="958" type="line" smooth="yes"/>
      <point x="1505" y="1132"/>
      <point x="1628" y="1251"/>
      <point x="1802" y="1251" type="curve" smooth="yes"/>
      <point x="1949" y="1251"/>
      <point x="2050" y="1166"/>
      <point x="2021" y="975" type="curve" smooth="yes"/>
      <point x="1857" y="0" type="line"/>
      <point x="2219" y="0" type="line"/>
      <point x="2391" y="1031" type="line" smooth="yes"/>
      <point x="2448" y="1373"/>
      <point x="2280" y="1556"/>
      <point x="2000" y="1556" type="curve" smooth="yes"/>
      <point x="1776" y="1556"/>
      <point x="1586" y="1446"/>
      <point x="1491" y="1275" type="curve"/>
      <point x="1475" y="1275" type="line"/>
      <point x="1446" y="1449"/>
      <point x="1313" y="1556"/>
      <point x="1107" y="1556" type="curve" smooth="yes"/>
      <point x="901" y="1556"/>
      <point x="730" y="1450"/>
      <point x="637" y="1275" type="curve"/>
      <point x="618" y="1275" type="line"/>
      <point x="662" y="1536" type="line"/>
      <point x="315" y="1536" type="line"/>
    </contour>
  </outline>
</glyph>
<glyph name="n" format="2">
  <advance width="1717"/>
  <unicode hex="006E"/>
  <outline>
    <contour>
      <point x="570" y="900" type="line" smooth="yes"/>
      <point x="609" y="1122"/>
      <point x="764" y="1250"/>
      <point x="954" y="1250" type="curve" smooth="yes"/>
      <point x="1143" y="1250"/>
      <point x="1233" y="1126"/>
      <point x="1199" y="922" type="curve" smooth="yes"/>
      <point x="1046" y="0" type="line"/>
      <point x="1408" y="0" type="line"/>
      <point x="1572" y="978" type="line" smooth="yes"/>
      <point x="1633" y="1347"/>
      <point x="1456" y="1556"/>
      <point x="1142" y="1556" type="curve" smooth="yes"/>
      <point x="912" y="1556"/>
      <point x="733" y="1447"/>
      <point x="637" y="1275" type="curve"/>
      <point x="618" y="1275" type="line"/>
      <point x="662" y="1536" type="line"/>
      <point x="315" y="1536" type="line"/>
      <point x="59" y="0" type="line"/>
      <point x="422" y="0" type="line"/>
    </contour>
  </outline>
</glyph>
<glyph name="o" format="2">
  <advance width="1712"/>
  <unicode hex="006F"/>
  <outline>
    <contour>
      <point x="734" y="-30" type="curve" smooth="yes"/>
      <point x="1178" y="-30"/>
      <point x="1512" y="282"/>
      <point x="1590" y="752" type="curve" smooth="yes"/>
      <point x="1668" y="1234"/>
      <point x="1432" y="1556"/>
      <point x="978" y="1556" type="curve" smooth="yes"/>
      <point x="533" y="1556"/>
      <point x="199" y="1243"/>
      <point x="122" y="771" type="curve" smooth="yes"/>
      <point x="44" y="292"/>
      <point x="279" y="-30"/>
    </contour>
    <contour>
      <point x="763" y="260" type="curve" smooth="yes"/>
      <point x="520" y="260"/>
      <point x="440" y="477"/>
      <point x="485" y="754" type="curve" smooth="yes"/>
      <point x="531" y="1040"/>
      <point x="697" y="1269"/>
      <point x="949" y="1269" type="curve" smooth="yes"/>
      <point x="1191" y="1269"/>
      <point x="1272" y="1049"/>
      <point x="1227" y="773" type="curve" smooth="yes"/>
      <point x="1181" y="486"/>
      <point x="1015" y="260"/>
    </contour>
  </outline>
</glyph>
<glyph name="p" format="2">
  <advance width="1759"/>
  <unicode hex="0070"/>
  <outline>
    <contour>
      <point x="-38" y="-576" type="line"/>
      <point x="324" y="-576" type="line"/>
      <point x="460" y="242" type="line"/>
      <point x="477" y="242" type="line"/>
      <point x="515" y="130"/>
      <point x="607" y="-27"/>
      <point x="871" y="-27" type="curve" smooth="yes"/>
      <point x="1233" y="-27"/>
      <point x="1553" y="260"/>
      <point x="1636" y="766" type="curve" smooth="yes"/>
      <point x="1721" y="1278"/>
      <point x="1489" y="1556"/>
      <point x="1134" y="1556" type="curve" smooth="yes"/>
      <point x="863" y="1556"/>
      <point x="722" y="1393"/>
      <point x="650" y="1282" type="curve"/>
      <point x="628" y="1282" type="line"/>
      <point x="670" y="1536" type="line"/>
      <point x="314" y="1536" type="line"/>
    </contour>
    <contour>
      <point x="541" y="768" type="curve" smooth="yes"/>
      <point x="589" y="1066"/>
      <point x="750" y="1259"/>
      <point x="984" y="1259" type="curve" smooth="yes"/>
      <point x="1225" y="1259"/>
      <point x="1313" y="1054"/>
      <point x="1267" y="768" type="curve" smooth="yes"/>
      <point x="1218" y="480"/>
      <point x="1059" y="270"/>
      <point x="821" y="270" type="curve" smooth="yes"/>
      <point x="590" y="270"/>
      <point x="493" y="470"/>
    </contour>
  </outline>
</glyph>
<glyph name="r" format="2">
  <advance width="1119"/>
  <unicode hex="0072"/>
  <outline>
    <contour>
      <point x="58" y="0" type="line"/>
      <point x="420" y="0" type="line"/>
      <point x="569" y="903" type="line" smooth="yes"/>
      <point x="603" y="1098"/>
      <point x="772" y="1236"/>
      <point x="970" y="1236" type="curve" smooth="yes"/>
      <point x="1033" y="1236"/>
      <point x="1106" y="1226"/>
      <point x="1137" y="1215" type="curve"/>
      <point x="1193" y="1548" type="line"/>
      <point x="1158" y="1555"/>
      <point x="1105" y="1558"/>
      <point x="1064" y="1558" type="curve" smooth="yes"/>
      <point x="888" y="1558"/>
      <point x="722" y="1458"/>
      <point x="638" y="1280" type="curve"/>
      <point x="622" y="1280" type="line"/>
      <point x="665" y="1536" type="line"/>
      <point x="314" y="1536" type="line"/>
    </contour>
  </outline>
</glyph>
<glyph name="s" format="2">
  <advance width="1546"/>
  <unicode hex="0073"/>
  <outline>
    <contour>
      <point x="1459" y="1130" type="line"/>
      <point x="1452" y="1391"/>
      <point x="1268" y="1556"/>
      <point x="902" y="1556" type="curve" smooth="yes"/>
      <point x="538" y="1556"/>
      <point x="262" y="1381"/>
      <point x="215" y="1102" type="curve" smooth="yes"/>
      <point x="176" y="873"/>
      <point x="296" y="721"/>
      <point x="581" y="658" type="curve" smooth="yes"/>
      <point x="833" y="603" type="line" smooth="yes"/>
      <point x="971" y="572"/>
      <point x="1021" y="522"/>
      <point x="1007" y="440" type="curve" smooth="yes"/>
      <point x="991" y="330"/>
      <point x="855" y="242"/>
      <point x="676" y="243" type="curve" smooth="yes"/>
      <point x="518" y="244"/>
      <point x="425" y="314"/>
      <point x="417" y="453" type="curve"/>
      <point x="61" y="419" type="line"/>
      <point x="60" y="138"/>
      <point x="273" y="-30"/>
      <point x="656" y="-30" type="curve" smooth="yes"/>
      <point x="1034" y="-30"/>
      <point x="1332" y="163"/>
      <point x="1380" y="447" type="curve" smooth="yes"/>
      <point x="1417" y="673"/>
      <point x="1293" y="811"/>
      <point x="1013" y="874" type="curve" smooth="yes"/>
      <point x="759" y="930" type="line" smooth="yes"/>
      <point x="611" y="966"/>
      <point x="562" y="1015"/>
      <point x="577" y="1097" type="curve" smooth="yes"/>
      <point x="593" y="1207"/>
      <point x="728" y="1286"/>
      <point x="885" y="1286" type="curve" smooth="yes"/>
      <point x="1047" y="1286"/>
      <point x="1115" y="1197"/>
      <point x="1126" y="1094" type="curve"/>
    </contour>
  </outline>
</glyph>
<glyph name="t" format="2">
  <advance width="1070"/>
  <unicode hex="0074"/>
  <outline>
    <contour>
      <point x="1081" y="1536" type="line"/>
      <point x="198" y="1536" type="line"/>
      <point x="152" y="1256" type="line"/>
      <point x="1034" y="1256" type="line"/>
    </contour>
    <component base="_part.t_base"/>
  </outline>
</glyph>
<glyph name="u" format="2">
  <advance width="1713"/>
  <unicode hex="0075"/>
  <outline>
    <contour>
      <point x="1144" y="646" type="line" smooth="yes"/>
      <point x="1106" y="412"/>
      <point x="920" y="296"/>
      <point x="760" y="296" type="curve" smooth="yes"/>
      <point x="587" y="296"/>
      <point x="492" y="419"/>
      <point x="522" y="614" type="curve" smooth="yes"/>
      <point x="676" y="1536" type="line"/>
      <point x="314" y="1536" type="line"/>
      <point x="150" y="558" type="line" smooth="yes"/>
      <point x="89" y="189"/>
      <point x="264" y="-20"/>
      <point x="566" y="-20" type="curve" smooth="yes"/>
      <point x="796" y="-20"/>
      <point x="982" y="101"/>
      <point x="1078" y="273" type="curve"/>
      <point x="1094" y="273" type="line"/>
      <point x="1048" y="0" type="line"/>
      <point x="1399" y="0" type="line"/>
      <point x="1655" y="1536" type="line"/>
      <point x="1293" y="1536" type="line"/>
    </contour>
  </outline>
</glyph>
<glyph name="w" format="2">
  <advance width="2358"/>
  <unicode hex="0077"/>
  <outline>
    <contour>
      <point x="375" y="0" type="line"/>
      <point x="753" y="0" type="line"/>
      <point x="1213" y="1038" type="line"/>
      <point x="1234" y="1038" type="line"/>
      <point x="1350" y="0" type="line"/>
      <point x="1727" y="0" type="line"/>
      <point x="2418" y="1536" type="line"/>
      <point x="2048" y="1536" type="line"/>
      <point x="1602" y="462" type="line"/>
      <point x="1587" y="462" type="line"/>
      <point x="1491" y="1536" type="line"/>
      <point x="1126" y="1536" type="line"/>
      <point x="670" y="456" type="line"/>
      <point x="656" y="456" type="line"/>
      <point x="566" y="1536" type="line"/>
      <point x="197" y="1536" type="line"/>
    </contour>
  </outline>
</glyph>
<glyph name="x" format="2">
  <advance width="1584"/>
  <unicode hex="0078"/>
  <outline>
    <contour>
      <point x="610" y="1536" type="line"/>
      <point x="226" y="1536" type="line"/>
      <point x="554" y="768" type="line"/>
      <point x="-42" y="0" type="line"/>
      <point x="342" y="0" type="line"/>
      <point x="756" y="553" type="line"/>
      <point x="989" y="0" type="line"/>
      <point x="1370" y="0" type="line"/>
      <point x="1027" y="768" type="line"/>
      <point x="1618" y="1536" type="line"/>
      <point x="1235" y="1536" type="line"/>
      <point x="826" y="969" type="line"/>
    </contour>
  </outline>
</glyph>
<glyph name="y" format="2">
  <advance width="1624"/>
  <unicode hex="0079"/>
  <outline>
    <contour>
      <point x="189" y="-573" type="curve" smooth="yes"/>
      <point x="468" y="-573"/>
      <point x="658" y="-431"/>
      <point x="787" y="-184" type="curve" smooth="yes"/>
      <point x="1686" y="1536" type="line"/>
      <point x="1287" y="1536" type="line"/>
      <point x="738" y="374" type="line"/>
      <point x="722" y="374" type="line"/>
      <point x="562" y="1536" type="line"/>
      <point x="192" y="1536" type="line"/>
      <point x="486" y="-27" type="line"/>
      <point x="440" y="-110" type="line" smooth="yes"/>
      <point x="341" y="-280"/>
      <point x="240" y="-298"/>
      <point x="91" y="-253" type="curve"/>
      <point x="-41" y="-534" type="line"/>
      <point x="5" y="-555"/>
      <point x="90" y="-573"/>
    </contour>
  </outline>
</glyph>
<glyph name="z" format="2">
  <advance width="1585"/>
  <unicode hex="007A"/>
  <outline>
    <contour>
      <point x="39" y="0" type="line"/>
      <point x="1302" y="0" type="line"/>
      <point x="1351" y="300" type="line"/>
      <point x="571" y="300" type="line"/>
      <point x="575" y="313" type="line"/>
      <point x="1490" y="1289" type="line"/>
      <point x="1530" y="1536" type="line"/>
      <point x="322" y="1536" type="line"/>
      <point x="271" y="1236" type="line"/>
      <point x="1037" y="1236" type="line"/>
      <point x="1033" y="1223" type="line"/>
      <point x="78" y="230" type="line"/>
    </contour>
  </outline>
</glyph>
<glyph name="braceleft" format="2">
  <advance width="1108"/>
  <unicode hex="007B"/>
  <outline>
    <contour>
      <point x="101" y="828" type="line"/>
      <point x="645" y="828"/>
      <point x="778" y="992"/>
      <point x="810" y="1197" type="curve" smooth="yes"/>
      <point x="866" y="1525" type="line" smooth="yes"/>
      <point x="898" y="1734"/>
      <point x="971" y="1828"/>
      <point x="1206" y="1828" type="curve"/>
      <point x="1253" y="2106" type="line"/>
      <point x="853" y="2106"/>
      <point x="598" y="2005"/>
      <point x="526" y="1554" type="curve" smooth="yes"/>
      <point x="486" y="1299" type="line" smooth="yes"/>
      <point x="452" y="1088"/>
      <point x="358" y="1003"/>
      <point x="130" y="1003" type="curve"/>
    </contour>
    <contour>
      <point x="832" y="-435" type="curve"/>
      <point x="878" y="-158" type="line"/>
      <point x="643" y="-158"/>
      <point x="602" y="-63"/>
      <point x="637" y="146" type="curve" smooth="yes"/>
      <point x="692" y="474" type="line" smooth="yes"/>
      <point x="724" y="678"/>
      <point x="646" y="842"/>
      <point x="102" y="842" type="curve"/>
      <point x="74" y="667" type="line"/>
      <point x="303" y="667"/>
      <point x="362" y="582"/>
      <point x="329" y="371" type="curve" smooth="yes"/>
      <point x="288" y="117" type="line" smooth="yes"/>
      <point x="216" y="-335"/>
      <point x="432" y="-435"/>
    </contour>
    <contour>
      <point x="70" y="667" type="line"/>
      <point x="388" y="667" type="line"/>
      <point x="444" y="1003" type="line"/>
      <point x="126" y="1003" type="line"/>
    </contour>
  </outline>
</glyph>
<glyph name="bar" format="2">
  <advance width="1008"/>
  <unicode hex="007C"/>
  <outline>
    <contour>
      <point x="993" y="2708" type="line"/>
      <point x="657" y="2708" type="line"/>
      <point x="100" y="-660" type="line"/>
      <point x="436" y="-660" type="line"/>
    </contour>
  </outline>
</glyph>
<glyph name="asciitilde" format="2">
  <advance width="1894"/>
  <unicode hex="007E"/>
  <outline>
    <contour>
      <point x="188" y="571" type="curve"/>
      <point x="478" y="571" type="line"/>
      <point x="502" y="741"/>
      <point x="586" y="807"/>
      <point x="684" y="807" type="curve" smooth="yes"/>
      <point x="754" y="807"/>
      <point x="795" y="781"/>
      <point x="871" y="705" type="curve" smooth="yes"/>
      <point x="994" y="582"/>
      <point x="1084" y="528"/>
      <point x="1219" y="528" type="curve" smooth="yes"/>
      <point x="1463" y="528"/>
      <point x="1674" y="704"/>
      <point x="1723" y="1066" type="curve"/>
      <point x="1434" y="1066" type="line"/>
      <point x="1410" y="906"/>
      <point x="1329" y="830"/>
      <point x="1226" y="830" type="curve" smooth="yes"/>
      <point x="1155" y="830"/>
      <point x="1114" y="866"/>
      <point x="1041" y="938" type="curve" smooth="yes"/>
      <point x="914" y="1065"/>
      <point x="822" y="1116"/>
      <point x="692" y="1116" type="curve" smooth="yes"/>
      <point x="443" y="1116"/>
      <point x="238" y="935"/>
    </contour>
  </outline>
</glyph>
<glyph name="sterling" format="2">
  <advance width="1853"/>
  <unicode hex="00A3"/>
  <outline>
    <contour>
      <point x="1510" y="0" type="line"/>
      <point x="1562" y="311" type="line"/>
      <point x="118" y="311" type="line"/>
      <point x="66" y="0" type="line"/>
    </contour>
    <contour>
      <point x="1235" y="809" type="line"/>
      <point x="1288" y="1112" type="line"/>
      <point x="246" y="1112" type="line"/>
      <point x="193" y="809" type="line"/>
    </contour>
    <contour>
      <point x="869" y="1455" type="line" smooth="yes"/>
      <point x="906" y="1671"/>
      <point x="1051" y="1771"/>
      <point x="1199" y="1771" type="curve" smooth="yes"/>
      <point x="1345" y="1771"/>
      <point x="1464" y="1690"/>
      <point x="1422" y="1508" type="curve"/>
      <point x="1764" y="1479" type="line"/>
      <point x="1856" y="1810"/>
      <point x="1646" y="2076"/>
      <point x="1241" y="2076" type="curve" smooth="yes"/>
      <point x="888" y="2076"/>
      <point x="559" y="1861"/>
      <point x="507" y="1455" type="curve" smooth="yes"/>
      <point x="393" y="582" type="line" smooth="yes"/>
      <point x="378" y="472"/>
      <point x="331" y="324"/>
      <point x="231" y="311" type="curve"/>
      <point x="479" y="210" type="line"/>
      <point x="658" y="293"/>
      <point x="736" y="421"/>
      <point x="758" y="598" type="curve" smooth="yes"/>
    </contour>
  </outline>
</glyph>
<glyph name="currency" format="2">
  <advance width="2114"/>
  <unicode hex="00A4"/>
  <outline>
    <contour>
      <point x="923" y="-28" type="curve" smooth="yes"/>
      <point x="1381" y="-28"/>
      <point x="1821" y="348"/>
      <point x="1902" y="836" type="curve" smooth="yes"/>
      <point x="1981" y="1324"/>
      <point x="1665" y="1696"/>
      <point x="1207" y="1696" type="curve" smooth="yes"/>
      <point x="746" y="1696"/>
      <point x="313" y="1324"/>
      <point x="234" y="836" type="curve"/>
      <point x="153" y="348"/>
      <point x="462" y="-28"/>
    </contour>
    <contour>
      <point x="964" y="219" type="curve" smooth="yes"/>
      <point x="635" y="219"/>
      <point x="418" y="494"/>
      <point x="478" y="836" type="curve"/>
      <point x="535" y="1182"/>
      <point x="839" y="1453"/>
      <point x="1168" y="1453" type="curve" smooth="yes"/>
      <point x="1492" y="1453"/>
      <point x="1712" y="1182"/>
      <point x="1654" y="836" type="curve" smooth="yes"/>
      <point x="1595" y="494"/>
      <point x="1288" y="219"/>
    </contour>
    <contour>
      <point x="1737" y="1262" type="line"/>
      <point x="2070" y="1546" type="line"/>
      <point x="1916" y="1734" type="line"/>
      <point x="1587" y="1450" type="line"/>
    </contour>
    <contour>
      <point x="1621" y="-30" type="line"/>
      <point x="1837" y="158" type="line"/>
      <point x="1600" y="438" type="line"/>
      <point x="1388" y="254" type="line"/>
    </contour>
    <contour>
      <point x="227" y="-30" type="line"/>
      <point x="560" y="254" type="line"/>
      <point x="406" y="438" type="line"/>
      <point x="78" y="158" type="line"/>
    </contour>
    <contour>
      <point x="543" y="1262" type="line"/>
      <point x="759" y="1450" type="line"/>
      <point x="522" y="1734" type="line"/>
      <point x="310" y="1546" type="line"/>
    </contour>
  </outline>
</glyph>
<glyph name="yen" format="2">
  <advance width="1589"/>
  <unicode hex="00A5"/>
  <note>
line up with uni20BD
</note>
  <outline>
    <contour>
      <point x="640" y="2048" type="line"/>
      <point x="252" y="2048" type="line"/>
      <point x="630" y="806" type="line"/>
      <point x="920" y="980" type="line"/>
    </contour>
    <contour>
      <point x="744" y="986" type="line"/>
      <point x="966" y="806" type="line"/>
      <point x="1761" y="2048" type="line"/>
      <point x="1373" y="2048" type="line"/>
    </contour>
    <contour>
      <point x="1026" y="1078" type="line"/>
      <point x="658" y="1078" type="line"/>
      <point x="478" y="0" type="line"/>
      <point x="846" y="0" type="line"/>
    </contour>
    <contour>
      <point x="1438" y="1044" type="line"/>
      <point x="211" y="1044" type="line"/>
      <point x="175" y="819" type="line"/>
      <point x="1402" y="819" type="line"/>
    </contour>
    <contour>
      <point x="1374" y="648" type="line"/>
      <point x="147" y="648" type="line"/>
      <point x="110" y="423" type="line"/>
      <point x="1337" y="423" type="line"/>
    </contour>
  </outline>
</glyph>
<glyph name="brokenbar" format="2">
  <advance width="897"/>
  <unicode hex="00A6"/>
  <outline>
    <contour>
      <point x="250" y="565" type="line"/>
      <point x="93" y="-384" type="line"/>
      <point x="420" y="-384" type="line"/>
      <point x="578" y="565" type="line"/>
    </contour>
    <contour>
      <point x="824" y="2048" type="line"/>
      <point x="497" y="2048" type="line"/>
      <point x="339" y="1103" type="line"/>
      <point x="666" y="1103" type="line"/>
    </contour>
  </outline>
</glyph>
<glyph name="section" format="2">
  <advance width="1630"/>
  <unicode hex="00A7"/>
  <note>
composed of "S" scaled down with RMX Tuner in temporary duplicate file
</note>
  <outline>
    <contour>
      <point x="1489" y="1548" type="line"/>
      <point x="1538" y="1854"/>
      <point x="1356" y="2076"/>
      <point x="1020" y="2076" type="curve" smooth="yes"/>
      <point x="700" y="2076"/>
      <point x="443" y="1875"/>
      <point x="396" y="1602" type="curve" smooth="yes"/>
      <point x="372" y="1456"/>
      <point x="417" y="1342"/>
      <point x="497" y="1249" type="curve"/>
      <point x="497" y="1244" type="line"/>
      <point x="368" y="1209"/>
      <point x="219" y="1096"/>
      <point x="182" y="936" type="curve" smooth="yes"/>
      <point x="121" y="658"/>
      <point x="317" y="530"/>
      <point x="418" y="478" type="curve" smooth="yes"/>
      <point x="770" y="287" type="line" smooth="yes"/>
      <point x="844" y="244"/>
      <point x="948" y="182"/>
      <point x="929" y="62" type="curve" smooth="yes"/>
      <point x="909" y="-52"/>
      <point x="786" y="-103"/>
      <point x="669" y="-105" type="curve" smooth="yes"/>
      <point x="504" y="-110"/>
      <point x="409" y="-26"/>
      <point x="434" y="124" type="curve"/>
      <point x="106" y="124" type="line"/>
      <point x="52" y="-206"/>
      <point x="262" y="-414"/>
      <point x="614" y="-414" type="curve" smooth="yes"/>
      <point x="925" y="-414"/>
      <point x="1206" y="-246"/>
      <point x="1258" y="62" type="curve" smooth="yes"/>
      <point x="1280" y="206"/>
      <point x="1247" y="325"/>
      <point x="1154" y="418" type="curve"/>
      <point x="1158" y="422" type="line"/>
      <point x="1273" y="456"/>
      <point x="1432" y="567"/>
      <point x="1470" y="728" type="curve" smooth="yes"/>
      <point x="1534" y="1005"/>
      <point x="1334" y="1130"/>
      <point x="1239" y="1182" type="curve" smooth="yes"/>
      <point x="884" y="1377" type="line" smooth="yes"/>
      <point x="805" y="1417"/>
      <point x="704" y="1498"/>
      <point x="723" y="1602" type="curve" smooth="yes"/>
      <point x="740" y="1698"/>
      <point x="837" y="1768"/>
      <point x="968" y="1768" type="curve" smooth="yes"/>
      <point x="1124" y="1768"/>
      <point x="1184" y="1674"/>
      <point x="1163" y="1548" type="curve"/>
    </contour>
    <contour>
      <point x="1160" y="714" type="curve" smooth="yes"/>
      <point x="1137" y="602"/>
      <point x="1010" y="534"/>
      <point x="946" y="570" type="curve"/>
      <point x="629" y="741" type="line" smooth="yes"/>
      <point x="529" y="793"/>
      <point x="470" y="861"/>
      <point x="490" y="950" type="curve" smooth="yes"/>
      <point x="515" y="1062"/>
      <point x="632" y="1137"/>
      <point x="702" y="1098" type="curve"/>
      <point x="1026" y="921" type="line" smooth="yes"/>
      <point x="1126" y="870"/>
      <point x="1181" y="798"/>
    </contour>
  </outline>
</glyph>
<glyph name="dieresis" format="2">
  <advance width="1558"/>
  <unicode hex="00A8"/>
  <outline>
    <contour>
      <point x="664" y="1762" type="curve" smooth="yes"/>
      <point x="764" y="1762"/>
      <point x="850" y="1838"/>
      <point x="864" y="1928" type="curve" smooth="yes"/>
      <point x="883" y="2046"/>
      <point x="804" y="2139"/>
      <point x="685" y="2139" type="curve" smooth="yes"/>
      <point x="592" y="2139"/>
      <point x="500" y="2068"/>
      <point x="485" y="1973" type="curve" smooth="yes"/>
      <point x="468" y="1860"/>
      <point x="551" y="1762"/>
    </contour>
    <contour>
      <point x="1264" y="1762" type="curve" smooth="yes"/>
      <point x="1364" y="1762"/>
      <point x="1450" y="1838"/>
      <point x="1464" y="1928" type="curve" smooth="yes"/>
      <point x="1483" y="2046"/>
      <point x="1404" y="2139"/>
      <point x="1285" y="2139" type="curve" smooth="yes"/>
      <point x="1192" y="2139"/>
      <point x="1102" y="2068"/>
      <point x="1085" y="1973" type="curve" smooth="yes"/>
      <point x="1066" y="1858"/>
      <point x="1151" y="1762"/>
    </contour>
  </outline>
</glyph>
<glyph name="copyright" format="2">
  <advance width="2374"/>
  <unicode hex="00A9"/>
  <outline>
    <contour>
      <point x="1428" y="820" type="line"/>
      <point x="1400" y="640"/>
      <point x="1303" y="572"/>
      <point x="1138" y="572" type="curve" smooth="yes"/>
      <point x="959" y="572"/>
      <point x="891" y="716"/>
      <point x="922" y="920" type="curve" smooth="yes"/>
      <point x="950" y="1084" type="line" smooth="yes"/>
      <point x="987" y="1288"/>
      <point x="1099" y="1432"/>
      <point x="1278" y="1432" type="curve" smooth="yes"/>
      <point x="1443" y="1432"/>
      <point x="1523" y="1360"/>
      <point x="1490" y="1184" type="curve"/>
      <point x="1709" y="1184" type="line"/>
      <point x="1757" y="1472"/>
      <point x="1596" y="1616"/>
      <point x="1310" y="1616" type="curve" smooth="yes"/>
      <point x="1011" y="1616"/>
      <point x="784" y="1400"/>
      <point x="732" y="1084" type="curve"/>
      <point x="704" y="920" type="line"/>
      <point x="652" y="604"/>
      <point x="807" y="388"/>
      <point x="1106" y="388" type="curve" smooth="yes"/>
      <point x="1392" y="388"/>
      <point x="1601" y="532"/>
      <point x="1649" y="820" type="curve"/>
    </contour>
    <contour>
      <point x="403" y="1004" type="curve"/>
      <point x="484" y="1488"/>
      <point x="916" y="1860"/>
      <point x="1367" y="1860" type="curve" smooth="yes"/>
      <point x="1824" y="1860"/>
      <point x="2132" y="1488"/>
      <point x="2051" y="1004" type="curve" smooth="yes"/>
      <point x="1972" y="516"/>
      <point x="1540" y="144"/>
      <point x="1083" y="144" type="curve" smooth="yes"/>
      <point x="632" y="144"/>
      <point x="324" y="516"/>
    </contour>
    <contour>
      <point x="232" y="1004" type="curve"/>
      <point x="136" y="420"/>
      <point x="510" y="-28"/>
      <point x="1055" y="-28" type="curve" smooth="yes"/>
      <point x="1605" y="-28"/>
      <point x="2127" y="420"/>
      <point x="2222" y="1004" type="curve" smooth="yes"/>
      <point x="2319" y="1584"/>
      <point x="1945" y="2032"/>
      <point x="1395" y="2032" type="curve" smooth="yes"/>
      <point x="850" y="2032"/>
      <point x="328" y="1584"/>
    </contour>
  </outline>
</glyph>
<glyph name="ordfeminine" format="2">
  <advance width="1336"/>
  <unicode hex="00AA"/>
  <outline>
    <contour>
      <point x="906" y="1184" type="line"/>
      <point x="894" y="1109"/>
      <point x="896" y="1033"/>
      <point x="904" y="970" type="curve"/>
      <point x="1153" y="970" type="line"/>
      <point x="1138" y="1055"/>
      <point x="1145" y="1138"/>
      <point x="1159" y="1220" type="curve" smooth="yes"/>
      <point x="1231" y="1652" type="line"/>
      <point x="1271" y="1904"/>
      <point x="1128" y="2032"/>
      <point x="883" y="2032" type="curve" smooth="yes"/>
      <point x="620" y="2032"/>
      <point x="427" y="1896"/>
      <point x="395" y="1710" type="curve"/>
      <point x="634" y="1692" type="line"/>
      <point x="650" y="1780"/>
      <point x="730" y="1828"/>
      <point x="851" y="1828" type="curve" smooth="yes"/>
      <point x="962" y="1828"/>
      <point x="1002" y="1765"/>
      <point x="986" y="1652" type="curve"/>
    </contour>
    <contour>
      <point x="1036" y="1582" type="line"/>
      <point x="833" y="1582" type="line"/>
      <point x="510" y="1582"/>
      <point x="333" y="1468"/>
      <point x="301" y="1264" type="curve" smooth="yes"/>
      <point x="269" y="1076"/>
      <point x="374" y="952"/>
      <point x="598" y="952" type="curve" smooth="yes"/>
      <point x="789" y="952"/>
      <point x="910" y="1057"/>
      <point x="968" y="1146" type="curve"/>
      <point x="968" y="1308" type="line"/>
      <point x="960" y="1240"/>
      <point x="805" y="1150"/>
      <point x="691" y="1150" type="curve" smooth="yes"/>
      <point x="578" y="1150"/>
      <point x="536" y="1196"/>
      <point x="548" y="1270" type="curve" smooth="yes"/>
      <point x="560" y="1350"/>
      <point x="643" y="1422"/>
      <point x="805" y="1422" type="curve"/>
      <point x="1008" y="1422" type="line"/>
    </contour>
  </outline>
</glyph>
<glyph name="logicalnot" format="2">
  <advance width="1595"/>
  <unicode hex="00AC"/>
  <outline>
    <contour>
      <point x="1442" y="1108" type="line"/>
      <point x="271" y="1108" type="line"/>
      <point x="231" y="872" type="line"/>
      <point x="1402" y="872" type="line"/>
    </contour>
    <contour>
      <point x="1426" y="1000" type="line"/>
      <point x="1145" y="1000" type="line"/>
      <point x="1065" y="516" type="line"/>
      <point x="1346" y="516" type="line"/>
    </contour>
  </outline>
</glyph>
<glyph name="registered" format="2">
  <advance width="1875"/>
  <unicode hex="00AE"/>
  <note>
Stroke L: 32
Stroke R: 96
Stroke B: 112
</note>
  <outline>
    <contour>
      <point x="679" y="916" type="line"/>
      <point x="861" y="916" type="line"/>
      <point x="961" y="1520" type="line"/>
      <point x="1093" y="1520" type="line" smooth="yes"/>
      <point x="1141" y="1520"/>
      <point x="1191" y="1491"/>
      <point x="1180" y="1412" type="curve" smooth="yes"/>
      <point x="1168" y="1336"/>
      <point x="1106" y="1297"/>
      <point x="1055" y="1297" type="curve" smooth="yes"/>
      <point x="844" y="1297" type="line"/>
      <point x="822" y="1164" type="line"/>
      <point x="1077" y="1164" type="line" smooth="yes"/>
      <point x="1205" y="1164"/>
      <point x="1346" y="1254"/>
      <point x="1374" y="1412" type="curve" smooth="yes"/>
      <point x="1401" y="1569"/>
      <point x="1289" y="1654"/>
      <point x="1166" y="1654" type="curve" smooth="yes"/>
      <point x="801" y="1654" type="line"/>
    </contour>
    <contour>
      <point x="1199" y="1259" type="line"/>
      <point x="1008" y="1259" type="line"/>
      <point x="1116" y="916" type="line"/>
      <point x="1316" y="916" type="line"/>
    </contour>
    <contour>
      <point x="1022" y="476" type="curve" smooth="yes"/>
      <point x="1464" y="476"/>
      <point x="1821" y="834"/>
      <point x="1822" y="1276" type="curve" smooth="yes"/>
      <point x="1822" y="1718"/>
      <point x="1463" y="2076"/>
      <point x="1022" y="2076" type="curve" smooth="yes"/>
      <point x="579" y="2076"/>
      <point x="221" y="1718"/>
      <point x="222" y="1276" type="curve" smooth="yes"/>
      <point x="222" y="834"/>
      <point x="579" y="476"/>
    </contour>
    <contour>
      <point x="1022" y="681" type="curve" smooth="yes"/>
      <point x="692" y="681"/>
      <point x="426" y="947"/>
      <point x="426" y="1276" type="curve" smooth="yes"/>
      <point x="427" y="1605"/>
      <point x="692" y="1871"/>
      <point x="1022" y="1871" type="curve" smooth="yes"/>
      <point x="1350" y="1871"/>
      <point x="1616" y="1605"/>
      <point x="1617" y="1276" type="curve" smooth="yes"/>
      <point x="1617" y="947"/>
      <point x="1351" y="681"/>
    </contour>
  </outline>
</glyph>
<glyph name="macron" format="2">
  <advance width="1483"/>
  <unicode hex="00AF"/>
  <outline>
    <contour>
      <point x="1434" y="2048" type="line"/>
      <point x="470" y="2048" type="line"/>
      <point x="435" y="1827" type="line"/>
      <point x="1398" y="1827" type="line"/>
    </contour>
  </outline>
</glyph>
<glyph name="degree" format="2">
  <advance width="1290"/>
  <unicode hex="00B0"/>
  <outline>
    <contour>
      <point x="779" y="1101" type="curve" smooth="yes"/>
      <point x="1044" y="1101"/>
      <point x="1260" y="1316"/>
      <point x="1260" y="1582" type="curve" smooth="yes"/>
      <point x="1260" y="1847"/>
      <point x="1044" y="2062"/>
      <point x="779" y="2062" type="curve" smooth="yes"/>
      <point x="513" y="2062"/>
      <point x="298" y="1847"/>
      <point x="298" y="1582" type="curve" smooth="yes"/>
      <point x="298" y="1316"/>
      <point x="513" y="1101"/>
    </contour>
    <contour>
      <point x="779" y="1357" type="curve" smooth="yes"/>
      <point x="654" y="1357"/>
      <point x="554" y="1457"/>
      <point x="554" y="1582" type="curve" smooth="yes"/>
      <point x="554" y="1706"/>
      <point x="654" y="1806"/>
      <point x="779" y="1806" type="curve" smooth="yes"/>
      <point x="903" y="1806"/>
      <point x="1004" y="1706"/>
      <point x="1004" y="1582" type="curve" smooth="yes"/>
      <point x="1004" y="1457"/>
      <point x="903" y="1357"/>
    </contour>
  </outline>
</glyph>
<glyph name="plusminus" format="2">
  <advance width="1894"/>
  <unicode hex="00B1"/>
  <outline>
    <contour>
      <point x="150" y="83" type="line"/>
      <point x="1518" y="83" type="line"/>
      <point x="1566" y="384" type="line"/>
      <point x="198" y="384" type="line"/>
    </contour>
    <contour>
      <point x="287" y="907" type="line"/>
      <point x="1655" y="907" type="line"/>
      <point x="1704" y="1202" type="line"/>
      <point x="336" y="1202" type="line"/>
    </contour>
    <contour>
      <point x="753" y="541" type="line"/>
      <point x="1066" y="541" type="line"/>
      <point x="1237" y="1568" type="line"/>
      <point x="923" y="1568" type="line"/>
    </contour>
  </outline>
</glyph>
<glyph name="two.sups" format="2">
  <advance width="1186"/>
  <unicode hex="00B2"/>
  <outline>
    <contour>
      <point x="169" y="1024" type="line"/>
      <point x="1128" y="1024" type="line"/>
      <point x="1164" y="1250" type="line"/>
      <point x="602" y="1250" type="line"/>
      <point x="603" y="1259" type="line"/>
      <point x="842" y="1423" type="line" smooth="yes"/>
      <point x="1122" y="1602"/>
      <point x="1219" y="1723"/>
      <point x="1243" y="1880" type="curve" smooth="yes"/>
      <point x="1275" y="2094"/>
      <point x="1126" y="2268"/>
      <point x="832" y="2268" type="curve" smooth="yes"/>
      <point x="550" y="2268"/>
      <point x="330" y="2108"/>
      <point x="292" y="1867" type="curve"/>
      <point x="560" y="1867" type="line"/>
      <point x="580" y="1986"/>
      <point x="686" y="2050"/>
      <point x="806" y="2050" type="curve" smooth="yes"/>
      <point x="930" y="2050"/>
      <point x="1010" y="1988"/>
      <point x="993" y="1884" type="curve" smooth="yes"/>
      <point x="977" y="1789"/>
      <point x="891" y="1726"/>
      <point x="750" y="1622" type="curve" smooth="yes"/>
      <point x="199" y="1223" type="line"/>
    </contour>
  </outline>
</glyph>
<glyph name="three.sups" format="2">
  <advance width="1230"/>
  <unicode hex="00B3"/>
  <outline>
    <contour>
      <point x="666" y="1008" type="curve" smooth="yes"/>
      <point x="966" y="1008"/>
      <point x="1198" y="1149"/>
      <point x="1232" y="1359" type="curve" smooth="yes"/>
      <point x="1256" y="1517"/>
      <point x="1153" y="1633"/>
      <point x="973" y="1654" type="curve"/>
      <point x="973" y="1664" type="line"/>
      <point x="1138" y="1687"/>
      <point x="1249" y="1762"/>
      <point x="1271" y="1903" type="curve" smooth="yes"/>
      <point x="1303" y="2101"/>
      <point x="1146" y="2268"/>
      <point x="854" y="2268" type="curve" smooth="yes"/>
      <point x="592" y="2268"/>
      <point x="361" y="2123"/>
      <point x="321" y="1906" type="curve"/>
      <point x="586" y="1906" type="line"/>
      <point x="603" y="1995"/>
      <point x="732" y="2050"/>
      <point x="846" y="2050" type="curve" smooth="yes"/>
      <point x="974" y="2050"/>
      <point x="1021" y="1996"/>
      <point x="1006" y="1913" type="curve" smooth="yes"/>
      <point x="990" y="1826"/>
      <point x="885" y="1753"/>
      <point x="746" y="1753" type="curve" smooth="yes"/>
      <point x="625" y="1753" type="line"/>
      <point x="594" y="1548" type="line"/>
      <point x="725" y="1548" type="line" smooth="yes"/>
      <point x="882" y="1548"/>
      <point x="966" y="1498"/>
      <point x="950" y="1402" type="curve" smooth="yes"/>
      <point x="933" y="1308"/>
      <point x="818" y="1238"/>
      <point x="676" y="1238" type="curve" smooth="yes"/>
      <point x="553" y="1238"/>
      <point x="470" y="1290"/>
      <point x="481" y="1376" type="curve"/>
      <point x="204" y="1376" type="line"/>
      <point x="172" y="1158"/>
      <point x="363" y="1008"/>
    </contour>
  </outline>
</glyph>
<glyph name="micro" format="2">
  <advance width="1835"/>
  <unicode hex="00B5"/>
  <outline>
    <contour>
      <point x="-35" y="-563" type="line"/>
      <point x="316" y="-563" type="line"/>
      <point x="447" y="222" type="line"/>
      <point x="459" y="222" type="line"/>
      <point x="504" y="81"/>
      <point x="632" y="-1"/>
      <point x="789" y="-1" type="curve" smooth="yes"/>
      <point x="950" y="-1"/>
      <point x="1103" y="81"/>
      <point x="1197" y="222" type="curve"/>
      <point x="1209" y="222" type="line"/>
      <point x="1170" y="0" type="line"/>
      <point x="1522" y="0" type="line"/>
      <point x="1778" y="1536" type="line"/>
      <point x="1415" y="1536" type="line"/>
      <point x="1266" y="646" type="line" smooth="yes"/>
      <point x="1233" y="439"/>
      <point x="1061" y="296"/>
      <point x="840" y="296" type="curve" smooth="yes"/>
      <point x="620" y="296"/>
      <point x="494" y="439"/>
      <point x="527" y="646" type="curve" smooth="yes"/>
      <point x="676" y="1536" type="line"/>
      <point x="314" y="1536" type="line"/>
    </contour>
  </outline>
</glyph>
<glyph name="paragraph" format="2">
  <advance width="1707"/>
  <unicode hex="00B6"/>
  <note>
aka PILCROW SIGN
</note>
  <outline>
    <contour>
      <point x="1542" y="1756" type="line"/>
      <point x="1590" y="2048" type="line"/>
      <point x="1043" y="2048" type="line" smooth="yes"/>
      <point x="598" y="2048"/>
      <point x="310" y="1772"/>
      <point x="246" y="1404" type="curve" smooth="yes"/>
      <point x="186" y="1032"/>
      <point x="386" y="760"/>
      <point x="831" y="760" type="curve" smooth="yes"/>
      <point x="949" y="760" type="line"/>
      <point x="1112" y="1756" type="line"/>
    </contour>
    <contour>
      <point x="1069" y="0" type="line"/>
      <point x="1378" y="0" type="line"/>
      <point x="1718" y="2048" type="line"/>
      <point x="1409" y="2048" type="line"/>
    </contour>
  </outline>
</glyph>
<glyph name="cedilla" format="2">
  <advance width="954"/>
  <unicode hex="00B8"/>
  <outline>
    <contour>
      <point x="257" y="8" type="line"/>
      <point x="178" y="-193" type="line"/>
      <point x="318" y="-208"/>
      <point x="377" y="-242"/>
      <point x="361" y="-327" type="curve" smooth="yes"/>
      <point x="343" y="-414"/>
      <point x="241" y="-454"/>
      <point x="88" y="-454" type="curve"/>
      <point x="62" y="-632" type="line"/>
      <point x="378" y="-632"/>
      <point x="575" y="-507"/>
      <point x="605" y="-318" type="curve" smooth="yes"/>
      <point x="631" y="-173"/>
      <point x="544" y="-96"/>
      <point x="421" y="-77" type="curve"/>
      <point x="453" y="8" type="line"/>
    </contour>
  </outline>
</glyph>
<glyph name="one.sups" format="2">
  <advance width="882"/>
  <unicode hex="00B9"/>
  <outline>
    <contour>
      <point x="911" y="2252" type="line"/>
      <point x="644" y="2252" type="line"/>
      <point x="625" y="2171"/>
      <point x="490" y="2049"/>
      <point x="310" y="2048" type="curve"/>
      <point x="280" y="1828" type="line"/>
      <point x="430" y="1826"/>
      <point x="541" y="1874"/>
      <point x="573" y="1914" type="curve"/>
      <point x="585" y="1914" type="line"/>
      <point x="434" y="1024" type="line"/>
      <point x="706" y="1024" type="line"/>
    </contour>
  </outline>
</glyph>
<glyph name="ordmasculine" format="2">
  <advance width="1331"/>
  <unicode hex="00BA"/>
  <outline>
    <contour>
      <point x="292" y="1436" type="line"/>
      <point x="244" y="1152"/>
      <point x="398" y="950"/>
      <point x="700" y="950" type="curve" smooth="yes"/>
      <point x="998" y="950"/>
      <point x="1215" y="1152"/>
      <point x="1263" y="1436" type="curve"/>
      <point x="1279" y="1542" type="line"/>
      <point x="1327" y="1828"/>
      <point x="1174" y="2032"/>
      <point x="874" y="2032" type="curve" smooth="yes"/>
      <point x="577" y="2032"/>
      <point x="356" y="1828"/>
      <point x="308" y="1542" type="curve"/>
    </contour>
    <contour>
      <point x="553" y="1542" type="line"/>
      <point x="581" y="1702"/>
      <point x="682" y="1828"/>
      <point x="842" y="1828" type="curve" smooth="yes"/>
      <point x="1005" y="1828"/>
      <point x="1062" y="1702"/>
      <point x="1034" y="1542" type="curve"/>
      <point x="1018" y="1436" type="line"/>
      <point x="990" y="1272"/>
      <point x="893" y="1152"/>
      <point x="734" y="1152" type="curve" smooth="yes"/>
      <point x="570" y="1152"/>
      <point x="509" y="1272"/>
      <point x="537" y="1436" type="curve"/>
    </contour>
  </outline>
</glyph>
<glyph name="AE" format="2">
  <advance width="2863"/>
  <unicode hex="00C6"/>
  <outline>
    <contour>
      <point x="-59" y="0" type="line"/>
      <point x="349" y="0" type="line"/>
      <point x="1362" y="1690" type="line"/>
      <point x="1507" y="1690" type="line"/>
      <point x="1226" y="0" type="line"/>
      <point x="2566" y="0" type="line"/>
      <point x="2618" y="311" type="line"/>
      <point x="1649" y="311" type="line"/>
      <point x="1741" y="870" type="line"/>
      <point x="2633" y="870" type="line"/>
      <point x="2685" y="1181" type="line"/>
      <point x="1793" y="1181" type="line"/>
      <point x="1885" y="1737" type="line"/>
      <point x="2846" y="1737" type="line"/>
      <point x="2898" y="2048" type="line"/>
      <point x="1196" y="2048" type="line"/>
    </contour>
    <contour>
      <point x="485" y="505" type="line"/>
      <point x="1517" y="505" type="line"/>
      <point x="1567" y="803" type="line"/>
      <point x="535" y="803" type="line"/>
    </contour>
  </outline>
</glyph>
<glyph name="multiply" format="2">
  <advance width="1894"/>
  <unicode hex="00D7"/>
  <outline>
    <contour>
      <point x="1313" y="114" type="line"/>
      <point x="1568" y="332" type="line"/>
      <point x="590" y="1505" type="line"/>
      <point x="334" y="1285" type="line"/>
    </contour>
    <contour>
      <point x="379" y="116" type="line"/>
      <point x="1727" y="1268" type="line"/>
      <point x="1531" y="1502" type="line"/>
      <point x="183" y="349" type="line"/>
    </contour>
  </outline>
</glyph>
<glyph name="Oslash" format="2">
  <advance width="2185"/>
  <unicode hex="00D8"/>
  <outline>
    <contour>
      <point x="424" y="-94" type="line"/>
      <point x="2016" y="2014" type="line"/>
      <point x="1845" y="2138" type="line"/>
      <point x="253" y="30" type="line"/>
    </contour>
    <component base="O" yOffset="-2"/>
  </outline>
</glyph>
<glyph name="Thorn" format="2">
  <advance width="1851"/>
  <unicode hex="00DE"/>
  <outline>
    <contour>
      <point x="406" y="2048" type="line"/>
      <point x="66" y="0" type="line"/>
      <point x="437" y="0" type="line"/>
      <point x="777" y="2048" type="line"/>
    </contour>
    <contour>
      <point x="512" y="1656" type="line"/>
      <point x="463" y="1359" type="line"/>
      <point x="994" y="1359" type="line" smooth="yes"/>
      <point x="1253" y="1359"/>
      <point x="1354" y="1222"/>
      <point x="1323" y="1038" type="curve" smooth="yes"/>
      <point x="1291" y="856"/>
      <point x="1149" y="726"/>
      <point x="890" y="726" type="curve" smooth="yes"/>
      <point x="359" y="726" type="line"/>
      <point x="310" y="430" type="line"/>
      <point x="842" y="430" type="line" smooth="yes"/>
      <point x="1316" y="430"/>
      <point x="1621" y="694"/>
      <point x="1678" y="1042" type="curve" smooth="yes"/>
      <point x="1737" y="1390"/>
      <point x="1518" y="1656"/>
      <point x="1043" y="1656" type="curve" smooth="yes"/>
    </contour>
  </outline>
</glyph>
<glyph name="germandbls" format="2">
  <advance width="1818"/>
  <unicode hex="00DF"/>
  <outline>
    <contour>
      <point x="74" y="0" type="line"/>
      <point x="436" y="0" type="line"/>
      <point x="680" y="1471" type="line" smooth="yes"/>
      <point x="709" y="1648"/>
      <point x="856" y="1765"/>
      <point x="1045" y="1765" type="curve" smooth="yes"/>
      <point x="1235" y="1765"/>
      <point x="1331" y="1641"/>
      <point x="1303" y="1477" type="curve" smooth="yes"/>
      <point x="1277" y="1322"/>
      <point x="1150" y="1186"/>
      <point x="986" y="1186" type="curve" smooth="yes"/>
      <point x="872" y="1186" type="line"/>
      <point x="825" y="890" type="line"/>
      <point x="990" y="890" type="line" smooth="yes"/>
      <point x="1205" y="890"/>
      <point x="1321" y="769"/>
      <point x="1293" y="591" type="curve" smooth="yes"/>
      <point x="1267" y="420"/>
      <point x="1121" y="305"/>
      <point x="928" y="305" type="curve" smooth="yes"/>
      <point x="718" y="305" type="line"/>
      <point x="667" y="0" type="line"/>
      <point x="922" y="0" type="line" smooth="yes"/>
      <point x="1302" y="0"/>
      <point x="1595" y="213"/>
      <point x="1655" y="564" type="curve" smooth="yes"/>
      <point x="1703" y="853"/>
      <point x="1561" y="1051"/>
      <point x="1299" y="1072" type="curve"/>
      <point x="1303" y="1094" type="line"/>
      <point x="1499" y="1151"/>
      <point x="1645" y="1305"/>
      <point x="1679" y="1530" type="curve" smooth="yes"/>
      <point x="1735" y="1884"/>
      <point x="1465" y="2076"/>
      <point x="1085" y="2076" type="curve" smooth="yes"/>
      <point x="685" y="2076"/>
      <point x="382" y="1865"/>
      <point x="324" y="1513" type="curve" smooth="yes"/>
    </contour>
  </outline>
</glyph>
<glyph name="ae" format="2">
  <advance width="2583"/>
  <unicode hex="00E6"/>
  <outline>
    <contour>
      <point x="1666" y="-30" type="curve" smooth="yes"/>
      <point x="2002" y="-30"/>
      <point x="2280" y="145"/>
      <point x="2390" y="412" type="curve"/>
      <point x="2059" y="450" type="line"/>
      <point x="1987" y="319"/>
      <point x="1856" y="252"/>
      <point x="1701" y="252" type="curve" smooth="yes"/>
      <point x="1465" y="252"/>
      <point x="1336" y="410"/>
      <point x="1379" y="678" type="curve" smooth="yes"/>
      <point x="1414" y="891" type="line" smooth="yes"/>
      <point x="1450" y="1095"/>
      <point x="1626" y="1274"/>
      <point x="1851" y="1274" type="curve" smooth="yes"/>
      <point x="2059" y="1274"/>
      <point x="2174" y="1122"/>
      <point x="2139" y="913" type="curve"/>
      <point x="1248" y="913" type="line"/>
      <point x="1210" y="669" type="line"/>
      <point x="2448" y="669" type="line"/>
      <point x="2466" y="780" type="line" smooth="yes"/>
      <point x="2555" y="1318"/>
      <point x="2271" y="1556"/>
      <point x="1894" y="1556" type="curve" smooth="yes"/>
      <point x="1636" y="1556"/>
      <point x="1426" y="1442"/>
      <point x="1272" y="1216" type="curve"/>
      <point x="1125" y="359" type="line"/>
      <point x="1155" y="117"/>
      <point x="1363" y="-30"/>
    </contour>
    <contour>
      <point x="633" y="235" type="curve" smooth="yes"/>
      <point x="482" y="235"/>
      <point x="387" y="305"/>
      <point x="409" y="437" type="curve" smooth="yes"/>
      <point x="430" y="577"/>
      <point x="563" y="634"/>
      <point x="729" y="657" type="curve" smooth="yes"/>
      <point x="824" y="670"/>
      <point x="1019" y="694"/>
      <point x="1072" y="732" type="curve"/>
      <point x="1042" y="551" type="line" smooth="yes"/>
      <point x="1014" y="380"/>
      <point x="850" y="235"/>
    </contour>
    <contour>
      <point x="512" y="-31" type="curve" smooth="yes"/>
      <point x="775" y="-31"/>
      <point x="1035" y="89"/>
      <point x="1138" y="261" type="curve"/>
      <point x="1162" y="261" type="line"/>
      <point x="1394" y="1273" type="line" smooth="yes"/>
      <point x="1349" y="1502"/>
      <point x="1134" y="1556"/>
      <point x="952" y="1556" type="curve" smooth="yes"/>
      <point x="622" y="1556"/>
      <point x="350" y="1412"/>
      <point x="225" y="1132" type="curve"/>
      <point x="553" y="1084" type="line"/>
      <point x="607" y="1190"/>
      <point x="726" y="1279"/>
      <point x="902" y="1279" type="curve" smooth="yes"/>
      <point x="1070" y="1279"/>
      <point x="1146" y="1192"/>
      <point x="1122" y="1042" type="curve" smooth="yes"/>
      <point x="1122" y="1036" type="line" smooth="yes"/>
      <point x="1104" y="934"/>
      <point x="994" y="927"/>
      <point x="718" y="898" type="curve" smooth="yes"/>
      <point x="415" y="866"/>
      <point x="116" y="777"/>
      <point x="58" y="431" type="curve" smooth="yes"/>
      <point x="8" y="130"/>
      <point x="202" y="-31"/>
    </contour>
  </outline>
</glyph>
<glyph name="eth" format="2">
  <advance width="1618"/>
  <unicode hex="00F0"/>
  <outline>
    <contour>
      <point x="1482" y="1902" type="line"/>
      <point x="1414" y="2094" type="line"/>
      <point x="500" y="1671" type="line"/>
      <point x="566" y="1478" type="line"/>
    </contour>
    <contour>
      <point x="676" y="-32" type="curve" smooth="yes"/>
      <point x="1088" y="-32"/>
      <point x="1410" y="256"/>
      <point x="1490" y="752" type="curve" smooth="yes"/>
      <point x="1606" y="1450"/>
      <point x="1201" y="1944"/>
      <point x="779" y="2176" type="curve"/>
      <point x="582" y="1942" type="line"/>
      <point x="950" y="1726"/>
      <point x="1086" y="1508"/>
      <point x="1166" y="1268" type="curve"/>
      <point x="1146" y="1268" type="line"/>
      <point x="1086" y="1372"/>
      <point x="953" y="1442"/>
      <point x="777" y="1429" type="curve" smooth="yes"/>
      <point x="486" y="1398"/>
      <point x="182" y="1127"/>
      <point x="111" y="704" type="curve" smooth="yes"/>
      <point x="43" y="276"/>
      <point x="258" y="-32"/>
    </contour>
    <contour>
      <point x="736" y="260" type="curve" smooth="yes"/>
      <point x="505" y="260"/>
      <point x="418" y="437"/>
      <point x="462" y="706" type="curve" smooth="yes"/>
      <point x="507" y="984"/>
      <point x="662" y="1154"/>
      <point x="883" y="1154" type="curve" smooth="yes"/>
      <point x="1116" y="1154"/>
      <point x="1202" y="966"/>
      <point x="1160" y="699" type="curve" smooth="yes"/>
      <point x="1114" y="426"/>
      <point x="961" y="260"/>
    </contour>
  </outline>
</glyph>
<glyph name="divide" format="2">
  <advance width="1894"/>
  <unicode hex="00F7"/>
  <outline>
    <contour>
      <point x="1659" y="963" type="line"/>
      <point x="299" y="963" type="line"/>
      <point x="250" y="662" type="line"/>
      <point x="1610" y="662" type="line"/>
    </contour>
    <contour>
      <point x="848" y="50" type="curve" smooth="yes"/>
      <point x="957" y="50"/>
      <point x="1061" y="138"/>
      <point x="1078" y="249" type="curve" smooth="yes"/>
      <point x="1098" y="381"/>
      <point x="1010" y="489"/>
      <point x="882" y="489" type="curve" smooth="yes"/>
      <point x="768" y="489"/>
      <point x="665" y="402"/>
      <point x="648" y="294" type="curve" smooth="yes"/>
      <point x="627" y="159"/>
      <point x="714" y="50"/>
    </contour>
    <contour>
      <point x="1030" y="1137" type="curve" smooth="yes"/>
      <point x="1138" y="1137"/>
      <point x="1240" y="1225"/>
      <point x="1258" y="1336" type="curve" smooth="yes"/>
      <point x="1278" y="1468"/>
      <point x="1190" y="1576"/>
      <point x="1062" y="1576" type="curve" smooth="yes"/>
      <point x="948" y="1576"/>
      <point x="845" y="1490"/>
      <point x="826" y="1381" type="curve" smooth="yes"/>
      <point x="803" y="1248"/>
      <point x="896" y="1137"/>
    </contour>
  </outline>
</glyph>
<glyph name="oslash" format="2">
  <advance width="1715"/>
  <unicode hex="00F8"/>
  <outline>
    <contour>
      <point x="258" y="-94" type="line"/>
      <point x="1612" y="1494" type="line"/>
      <point x="1453" y="1618" type="line"/>
      <point x="96" y="30" type="line"/>
    </contour>
    <component base="o"/>
  </outline>
</glyph>
<glyph name="thorn" format="2">
  <advance width="1722"/>
  <unicode hex="00FE"/>
  <outline>
    <contour>
      <point x="398" y="2048" type="line"/>
      <point x="-38" y="-576" type="line"/>
      <point x="324" y="-576" type="line"/>
      <point x="470" y="298" type="line"/>
      <point x="428" y="762" type="line"/>
      <point x="626" y="1228" type="line"/>
      <point x="760" y="2048" type="line"/>
    </contour>
    <contour>
      <point x="497" y="1337" type="line"/>
      <point x="306" y="191" type="line"/>
      <point x="470" y="191" type="line"/>
      <point x="509" y="90"/>
      <point x="606" y="-27"/>
      <point x="834" y="-27" type="curve" smooth="yes"/>
      <point x="1193" y="-27"/>
      <point x="1516" y="258"/>
      <point x="1599" y="766" type="curve" smooth="yes"/>
      <point x="1684" y="1278"/>
      <point x="1449" y="1556"/>
      <point x="1098" y="1556" type="curve" smooth="yes"/>
      <point x="862" y="1556"/>
      <point x="728" y="1434"/>
      <point x="661" y="1337" type="curve"/>
    </contour>
    <contour>
      <point x="1251" y="768" type="curve" smooth="yes"/>
      <point x="1202" y="474"/>
      <point x="1044" y="270"/>
      <point x="795" y="270" type="curve" smooth="yes"/>
      <point x="544" y="270"/>
      <point x="472" y="486"/>
      <point x="518" y="768" type="curve" smooth="yes"/>
      <point x="565" y="1051"/>
      <point x="708" y="1259"/>
      <point x="958" y="1259" type="curve" smooth="yes"/>
      <point x="1209" y="1259"/>
      <point x="1299" y="1060"/>
    </contour>
  </outline>
</glyph>
<glyph name="idotless" format="2">
  <advance width="734"/>
  <unicode hex="0131"/>
  <outline>
    <contour>
      <point x="58" y="0" type="line"/>
      <point x="420" y="0" type="line"/>
      <point x="676" y="1536" type="line"/>
      <point x="314" y="1536" type="line"/>
    </contour>
  </outline>
</glyph>
<glyph name="kgreenlandic" format="2">
  <advance width="1851"/>
  <unicode hex="0138"/>
  <outline>
    <contour>
      <point x="708" y="1488" type="line"/>
      <point x="334" y="1488" type="line"/>
      <point x="86" y="0" type="line"/>
      <point x="460" y="0" type="line"/>
    </contour>
    <contour>
      <point x="1727" y="1488" type="line"/>
      <point x="1262" y="1488" type="line"/>
      <point x="732" y="914" type="line"/>
      <point x="484" y="914" type="line"/>
      <point x="475" y="567" type="line"/>
      <point x="859" y="567" type="line"/>
    </contour>
    <contour>
      <point x="1034" y="0" type="line"/>
      <point x="1509" y="0" type="line"/>
      <point x="1011" y="829" type="line"/>
      <point x="678" y="634" type="line"/>
    </contour>
  </outline>
</glyph>
<glyph name="Lslash" format="2">
  <advance width="1627"/>
  <unicode hex="0141"/>
  <outline>
    <contour>
      <point x="974" y="1309" type="line"/>
      <point x="68" y="1051" type="line"/>
      <point x="50" y="834" type="line"/>
      <point x="957" y="1090" type="line"/>
    </contour>
    <component base="L" xOffset="58"/>
  </outline>
</glyph>
<glyph name="Eng" format="2">
  <advance width="2086"/>
  <unicode hex="014A"/>
  <outline>
    <contour>
      <point x="1427" y="0" type="line"/>
      <point x="1406" y="-112" type="line" smooth="yes"/>
      <point x="1379" y="-252"/>
      <point x="1278" y="-309"/>
      <point x="1142" y="-309" type="curve" smooth="yes"/>
      <point x="1098" y="-309"/>
      <point x="1052" y="-303"/>
      <point x="1019" y="-296" type="curve"/>
      <point x="973" y="-578" type="line"/>
      <point x="1013" y="-592"/>
      <point x="1070" y="-597"/>
      <point x="1118" y="-597" type="curve" smooth="yes"/>
      <point x="1435" y="-597"/>
      <point x="1679" y="-455"/>
      <point x="1736" y="-110" type="curve" smooth="yes"/>
      <point x="1757" y="0" type="line"/>
    </contour>
    <component base="N"/>
  </outline>
</glyph>
<glyph name="eng" format="2">
  <advance width="1730"/>
  <unicode hex="014B"/>
  <outline>
    <contour>
      <point x="1046" y="0" type="line"/>
      <point x="1027" y="-106" type="line" smooth="yes"/>
      <point x="1003" y="-241"/>
      <point x="920" y="-289"/>
      <point x="800" y="-289" type="curve" smooth="yes"/>
      <point x="759" y="-289"/>
      <point x="723" y="-283"/>
      <point x="692" y="-276" type="curve"/>
      <point x="625" y="-574" type="line"/>
      <point x="679" y="-587"/>
      <point x="744" y="-589"/>
      <point x="810" y="-589" type="curve" smooth="yes"/>
      <point x="1102" y="-589"/>
      <point x="1318" y="-441"/>
      <point x="1386" y="-118" type="curve" smooth="yes"/>
      <point x="1408" y="0" type="line"/>
    </contour>
    <component base="n"/>
  </outline>
</glyph>
<glyph name="OE" format="2">
  <advance width="2806"/>
  <unicode hex="0152"/>
  <note>
!post:RemoveOverlap
</note>
  <outline>
    <contour>
      <point x="943" y="0" type="curve" smooth="yes"/>
      <point x="1310" y="0" type="line"/>
      <point x="1365" y="311" type="line"/>
      <point x="998" y="311" type="line" smooth="yes"/>
      <point x="670" y="311"/>
      <point x="484" y="554"/>
      <point x="562" y="1022" type="curve" smooth="yes"/>
      <point x="639" y="1492"/>
      <point x="904" y="1737"/>
      <point x="1231" y="1737" type="curve" smooth="yes"/>
      <point x="1598" y="1737" type="line"/>
      <point x="1650" y="2048" type="line"/>
      <point x="1283" y="2048" type="line" smooth="yes"/>
      <point x="747" y="2048"/>
      <point x="298" y="1672"/>
      <point x="192" y="1022" type="curve" smooth="yes"/>
      <point x="85" y="377"/>
      <point x="408" y="0"/>
    </contour>
    <component base="E" xOffset="1094"/>
  </outline>
</glyph>
<glyph name="tbar" format="2">
  <advance width="1070"/>
  <unicode hex="0167"/>
  <outline>
    <contour>
      <point x="77" y="794" type="line"/>
      <point x="959" y="794" type="line"/>
      <point x="993" y="990" type="line"/>
      <point x="110" y="990" type="line"/>
    </contour>
    <component base="t"/>
  </outline>
</glyph>
<glyph name="Btopbar" format="2">
  <advance width="1843"/>
  <unicode hex="0182"/>
  <outline>
    <contour>
      <point x="74" y="0" type="line"/>
      <point x="840" y="0" type="line" smooth="yes"/>
      <point x="1311" y="0"/>
      <point x="1636" y="261"/>
      <point x="1698" y="638" type="curve" smooth="yes"/>
      <point x="1761" y="1014"/>
      <point x="1520" y="1257"/>
      <point x="1049" y="1257" type="curve" smooth="yes"/>
      <point x="654" y="1257" type="line"/>
      <point x="733" y="1737" type="line"/>
      <point x="1679" y="1737" type="line"/>
      <point x="1731" y="2048" type="line"/>
      <point x="414" y="2048" type="line"/>
    </contour>
    <contour>
      <point x="495" y="304" type="line"/>
      <point x="603" y="955" type="line"/>
      <point x="998" y="955" type="line" smooth="yes"/>
      <point x="1247" y="955"/>
      <point x="1361" y="815"/>
      <point x="1331" y="642" type="curve" smooth="yes"/>
      <point x="1302" y="462"/>
      <point x="1139" y="304"/>
      <point x="890" y="304" type="curve" smooth="yes"/>
    </contour>
  </outline>
</glyph>
<glyph name="Tonesix" format="2">
  <advance width="2143"/>
  <unicode hex="0184"/>
  <outline>
    <contour>
      <point x="1058" y="2048" type="line"/>
      <point x="245" y="2048" type="line"/>
      <point x="193" y="1737" type="line"/>
      <point x="1006" y="1737" type="line"/>
    </contour>
    <contour>
      <point x="850" y="1257" type="line"/>
      <point x="799" y="955" type="line"/>
      <point x="1319" y="955" type="line"/>
      <point x="1567" y="955"/>
      <point x="1680" y="815"/>
      <point x="1652" y="642" type="curve"/>
      <point x="1623" y="462"/>
      <point x="1459" y="304"/>
      <point x="1211" y="304" type="curve"/>
      <point x="816" y="304" type="line"/>
      <point x="1106" y="2048" type="line"/>
      <point x="734" y="2048" type="line"/>
      <point x="394" y="0" type="line"/>
      <point x="1161" y="0" type="line"/>
      <point x="1631" y="0"/>
      <point x="1956" y="261"/>
      <point x="2019" y="638" type="curve"/>
      <point x="2082" y="1014"/>
      <point x="1840" y="1257"/>
      <point x="1370" y="1257" type="curve"/>
    </contour>
  </outline>
</glyph>
<glyph name="tonesix" format="2">
  <advance width="1846"/>
  <unicode hex="0185"/>
  <outline>
    <contour>
      <point x="581" y="2112" type="line"/>
      <point x="288" y="1861" type="line"/>
      <point x="258" y="1688" type="line"/>
      <point x="469" y="1440" type="line"/>
      <point x="538" y="1440" type="line"/>
      <point x="650" y="2112" type="line"/>
    </contour>
    <contour>
      <point x="672" y="1337" type="line"/>
      <point x="482" y="191" type="line"/>
      <point x="646" y="191" type="line"/>
      <point x="682" y="91"/>
      <point x="775" y="-27"/>
      <point x="1010" y="-27" type="curve" smooth="yes"/>
      <point x="1367" y="-27"/>
      <point x="1690" y="258"/>
      <point x="1774" y="766" type="curve" smooth="yes"/>
      <point x="1858" y="1278"/>
      <point x="1623" y="1556"/>
      <point x="1271" y="1556" type="curve" smooth="yes"/>
      <point x="1047" y="1556"/>
      <point x="906" y="1439"/>
      <point x="836" y="1337" type="curve"/>
    </contour>
    <contour>
      <point x="1426" y="768" type="curve" smooth="yes"/>
      <point x="1376" y="475"/>
      <point x="1218" y="270"/>
      <point x="970" y="270" type="curve" smooth="yes"/>
      <point x="718" y="270"/>
      <point x="646" y="486"/>
      <point x="694" y="768" type="curve" smooth="yes"/>
      <point x="739" y="1050"/>
      <point x="880" y="1259"/>
      <point x="1134" y="1259" type="curve" smooth="yes"/>
      <point x="1383" y="1259"/>
      <point x="1473" y="1058"/>
    </contour>
    <contour>
      <point x="573" y="2048" type="line"/>
      <point x="233" y="0" type="line"/>
      <point x="589" y="0" type="line"/>
      <point x="638" y="298" type="line"/>
      <point x="593" y="762" type="line"/>
      <point x="801" y="1228" type="line"/>
      <point x="935" y="2048" type="line"/>
    </contour>
  </outline>
</glyph>
<glyph name="Oopen" format="2">
  <advance width="2094"/>
  <unicode hex="0186"/>
  <outline>
    <contour>
      <point x="865" y="-28" type="curve" smooth="yes"/>
      <point x="1410" y="-28"/>
      <point x="1879" y="370"/>
      <point x="1990" y="1037" type="curve"/>
      <point x="2096" y="1694"/>
      <point x="1765" y="2076"/>
      <point x="1237" y="2076" type="curve" smooth="yes"/>
      <point x="776" y="2076"/>
      <point x="378" y="1812"/>
      <point x="238" y="1357" type="curve"/>
      <point x="610" y="1357" type="line"/>
      <point x="692" y="1602"/>
      <point x="909" y="1743"/>
      <point x="1153" y="1743" type="curve" smooth="yes"/>
      <point x="1492" y="1743"/>
      <point x="1692" y="1479"/>
      <point x="1614" y="1011" type="curve"/>
      <point x="1537" y="548"/>
      <point x="1263" y="305"/>
      <point x="940" y="305" type="curve" smooth="yes"/>
      <point x="688" y="305"/>
      <point x="507" y="441"/>
      <point x="500" y="680" type="curve"/>
      <point x="127" y="680" type="line"/>
      <point x="117" y="289"/>
      <point x="383" y="-28"/>
    </contour>
  </outline>
</glyph>
<glyph name="Chook" format="2">
  <advance width="2294"/>
  <unicode hex="0187"/>
  <outline>
    <contour>
      <point x="2050" y="1357" type="line"/>
      <point x="2082" y="1557" type="line" smooth="yes"/>
      <point x="2111" y="1740"/>
      <point x="2254" y="1797"/>
      <point x="2380" y="1797" type="curve"/>
      <point x="2413" y="1797"/>
      <point x="2459" y="1793"/>
      <point x="2486" y="1790" type="curve"/>
      <point x="2534" y="2086" type="line"/>
      <point x="2478" y="2098"/>
      <point x="2420" y="2098"/>
      <point x="2358" y="2098" type="curve" smooth="yes"/>
      <point x="2065" y="2098"/>
      <point x="1786" y="1920"/>
      <point x="1733" y="1594" type="curve" smooth="yes"/>
      <point x="1694" y="1357" type="line"/>
    </contour>
    <component base="C"/>
  </outline>
</glyph>
<glyph name="chook" format="2">
  <advance width="1781"/>
  <unicode hex="0188"/>
  <outline>
    <contour>
      <point x="1557" y="1004" type="line"/>
      <point x="1596" y="1225" type="line" smooth="yes"/>
      <point x="1621" y="1371"/>
      <point x="1701" y="1423"/>
      <point x="1822" y="1423" type="curve" smooth="yes"/>
      <point x="1858" y="1423"/>
      <point x="1887" y="1418"/>
      <point x="1917" y="1414" type="curve"/>
      <point x="1958" y="1666" type="line"/>
      <point x="1910" y="1682"/>
      <point x="1853" y="1686"/>
      <point x="1799" y="1686" type="curve" smooth="yes"/>
      <point x="1533" y="1686"/>
      <point x="1305" y="1520"/>
      <point x="1254" y="1226" type="curve" smooth="yes"/>
      <point x="1215" y="1004" type="line"/>
    </contour>
    <component base="c"/>
  </outline>
</glyph>
<glyph name="Dhook" format="2">
  <advance width="2578"/>
  <unicode hex="018A"/>
  <outline>
    <contour>
      <point x="214" y="1381" type="line"/>
      <point x="548" y="1381" type="line"/>
      <point x="565" y="1486" type="line" smooth="yes"/>
      <point x="584" y="1610"/>
      <point x="634" y="1727"/>
      <point x="798" y="1727" type="curve" smooth="yes"/>
      <point x="1061" y="1727" type="line"/>
      <point x="1114" y="2048" type="line"/>
      <point x="849" y="2048" type="line" smooth="yes"/>
      <point x="519" y="2048"/>
      <point x="286" y="1850"/>
      <point x="242" y="1560" type="curve" smooth="yes"/>
    </contour>
    <component base="D" xOffset="538"/>
  </outline>
</glyph>
<glyph name="Dtopbar" format="2">
  <advance width="1851"/>
  <unicode hex="018B"/>
  <outline>
    <contour>
      <point x="1558" y="0" type="line"/>
      <point x="1894" y="2028" type="line"/>
      <point x="579" y="2028" type="line"/>
      <point x="529" y="1714" type="line"/>
      <point x="1459" y="1714" type="line"/>
      <point x="1384" y="1262" type="line"/>
      <point x="1005" y="1262" type="line" smooth="yes"/>
      <point x="534" y="1262"/>
      <point x="207" y="1013"/>
      <point x="146" y="638" type="curve" smooth="yes"/>
      <point x="82" y="262"/>
      <point x="323" y="0"/>
      <point x="794" y="0" type="curve" smooth="yes"/>
    </contour>
    <contour>
      <point x="1226" y="308" type="line"/>
      <point x="846" y="308" type="line" smooth="yes"/>
      <point x="594" y="308"/>
      <point x="504" y="462"/>
      <point x="533" y="642" type="curve" smooth="yes"/>
      <point x="562" y="815"/>
      <point x="700" y="953"/>
      <point x="952" y="953" type="curve" smooth="yes"/>
      <point x="1331" y="953" type="line"/>
    </contour>
  </outline>
</glyph>
<glyph name="deltaturn" format="2">
  <advance width="1736"/>
  <unicode hex="018D"/>
  <outline>
    <contour>
      <point x="1181" y="-516" type="line"/>
      <point x="1214" y="-317" type="line"/>
      <point x="1127" y="-200"/>
      <point x="952" y="-13"/>
      <point x="834" y="106" type="curve"/>
      <point x="854" y="106"/>
      <point x="867" y="106"/>
      <point x="886" y="109" type="curve" smooth="yes"/>
      <point x="1236" y="158"/>
      <point x="1520" y="428"/>
      <point x="1580" y="788" type="curve" smooth="yes"/>
      <point x="1584" y="816" type="line" smooth="yes"/>
      <point x="1651" y="1216"/>
      <point x="1442" y="1516"/>
      <point x="993" y="1516" type="curve" smooth="yes"/>
      <point x="543" y="1516"/>
      <point x="237" y="1202"/>
      <point x="169" y="784" type="curve" smooth="yes"/>
      <point x="165" y="756" type="line" smooth="yes"/>
      <point x="115" y="454"/>
      <point x="275" y="218"/>
      <point x="520" y="-16" type="curve" smooth="yes"/>
      <point x="611" y="-98"/>
      <point x="709" y="-186"/>
      <point x="743" y="-224" type="curve"/>
      <point x="156" y="-224" type="line"/>
      <point x="107" y="-516" type="line"/>
    </contour>
    <contour>
      <point x="1203" y="756" type="line"/>
      <point x="1161" y="513"/>
      <point x="1027" y="307"/>
      <point x="778" y="307" type="curve" smooth="yes"/>
      <point x="744" y="307"/>
      <point x="718" y="310"/>
      <point x="690" y="320" type="curve"/>
      <point x="583" y="393"/>
      <point x="499" y="546"/>
      <point x="534" y="756" type="curve" smooth="yes"/>
      <point x="538" y="784" type="line" smooth="yes"/>
      <point x="576" y="1017"/>
      <point x="700" y="1219"/>
      <point x="944" y="1219" type="curve" smooth="yes"/>
      <point x="1198" y="1219"/>
      <point x="1244" y="1007"/>
      <point x="1207" y="784" type="curve" smooth="yes"/>
    </contour>
  </outline>
</glyph>
<glyph name="Schwa" format="2">
  <advance width="2112"/>
  <unicode hex="018F"/>
  <outline>
    <contour>
      <point x="927" y="-28" type="curve" smooth="yes"/>
      <point x="1413" y="-28"/>
      <point x="1857" y="355"/>
      <point x="1950" y="906" type="curve" smooth="yes"/>
      <point x="1979" y="1090" type="line" smooth="yes"/>
      <point x="2072" y="1641"/>
      <point x="1800" y="2032"/>
      <point x="1176" y="2032" type="curve" smooth="yes"/>
      <point x="868" y="2032"/>
      <point x="606" y="1949"/>
      <point x="544" y="1918" type="curve"/>
      <point x="562" y="1609" type="line"/>
      <point x="675" y="1646"/>
      <point x="860" y="1697"/>
      <point x="1108" y="1697" type="curve" smooth="yes"/>
      <point x="1540" y="1697"/>
      <point x="1649" y="1425"/>
      <point x="1592" y="1090" type="curve" smooth="yes"/>
      <point x="1562" y="906" type="line" smooth="yes"/>
      <point x="1506" y="572"/>
      <point x="1296" y="303"/>
      <point x="983" y="303" type="curve" smooth="yes"/>
      <point x="625" y="303"/>
      <point x="532" y="508"/>
      <point x="572" y="770" type="curve" smooth="yes"/>
      <point x="580" y="813" type="line"/>
      <point x="1662" y="813" type="line"/>
      <point x="1712" y="1120" type="line"/>
      <point x="246" y="1120" type="line"/>
      <point x="211" y="908" type="line" smooth="yes"/>
      <point x="116" y="334"/>
      <point x="356" y="-28"/>
    </contour>
  </outline>
</glyph>
<glyph name="Epsilon1" format="2">
  <advance width="1850"/>
  <unicode hex="0190"/>
  <outline>
    <contour>
      <point x="1195" y="960" type="line"/>
      <point x="1230" y="1171" type="line"/>
      <point x="988" y="1171" type="line" smooth="yes"/>
      <point x="747" y="1171"/>
      <point x="662" y="1277"/>
      <point x="692" y="1454" type="curve" smooth="yes"/>
      <point x="718" y="1606"/>
      <point x="846" y="1720"/>
      <point x="1099" y="1720" type="curve" smooth="yes"/>
      <point x="1294" y="1720"/>
      <point x="1417" y="1628"/>
      <point x="1389" y="1469" type="curve"/>
      <point x="1774" y="1469" type="line"/>
      <point x="1834" y="1817"/>
      <point x="1539" y="2032"/>
      <point x="1150" y="2032" type="curve" smooth="yes"/>
      <point x="702" y="2032"/>
      <point x="368" y="1832"/>
      <point x="307" y="1460" type="curve" smooth="yes"/>
      <point x="256" y="1150"/>
      <point x="516" y="960"/>
      <point x="909" y="960" type="curve"/>
    </contour>
    <contour>
      <point x="929" y="1080" type="line"/>
      <point x="483" y="1080"/>
      <point x="180" y="896"/>
      <point x="123" y="560" type="curve" smooth="yes"/>
      <point x="58" y="150"/>
      <point x="358" y="-28"/>
      <point x="810" y="-28" type="curve" smooth="yes"/>
      <point x="1174" y="-28"/>
      <point x="1586" y="148"/>
      <point x="1653" y="556" type="curve"/>
      <point x="1266" y="556" type="line"/>
      <point x="1242" y="398"/>
      <point x="1086" y="280"/>
      <point x="860" y="280" type="curve" smooth="yes"/>
      <point x="626" y="280"/>
      <point x="482" y="367"/>
      <point x="514" y="566" type="curve" smooth="yes"/>
      <point x="551" y="790"/>
      <point x="700" y="873"/>
      <point x="939" y="873" type="curve" smooth="yes"/>
      <point x="1181" y="873" type="line"/>
      <point x="1215" y="1080" type="line"/>
    </contour>
  </outline>
</glyph>
<glyph name="Fhook" format="2">
  <advance width="1694"/>
  <unicode hex="0191"/>
  <outline>
    <contour>
      <point x="118" y="0" type="line"/>
      <point x="101" y="-115" type="line" smooth="yes"/>
      <point x="79" y="-252"/>
      <point x="-29" y="-285"/>
      <point x="-138" y="-285" type="curve" smooth="yes"/>
      <point x="-170" y="-285"/>
      <point x="-204" y="-284"/>
      <point x="-225" y="-280" type="curve"/>
      <point x="-271" y="-566" type="line"/>
      <point x="-228" y="-576"/>
      <point x="-160" y="-576"/>
      <point x="-122" y="-576" type="curve" smooth="yes"/>
      <point x="160" y="-576"/>
      <point x="410" y="-470"/>
      <point x="470" y="-118" type="curve" smooth="yes"/>
      <point x="490" y="0" type="line"/>
    </contour>
    <component base="F" xOffset="45"/>
  </outline>
</glyph>
<glyph name="florin" format="2">
  <advance width="1243"/>
  <unicode hex="0192"/>
  <outline>
    <contour>
      <point x="1178" y="1488" type="line"/>
      <point x="885" y="1488" type="line"/>
      <point x="906" y="1622" type="line" smooth="yes"/>
      <point x="930" y="1765"/>
      <point x="1022" y="1837"/>
      <point x="1160" y="1837" type="curve" smooth="yes"/>
      <point x="1220" y="1837"/>
      <point x="1256" y="1830"/>
      <point x="1287" y="1822" type="curve"/>
      <point x="1382" y="2109" type="line"/>
      <point x="1322" y="2126"/>
      <point x="1234" y="2140"/>
      <point x="1150" y="2140" type="curve" smooth="yes"/>
      <point x="838" y="2140"/>
      <point x="603" y="1959"/>
      <point x="547" y="1622" type="curve" smooth="yes"/>
      <point x="526" y="1488" type="line"/>
      <point x="290" y="1488" type="line"/>
      <point x="244" y="1218" type="line"/>
      <point x="481" y="1218" type="line"/>
      <point x="266" y="-81" type="line" smooth="yes"/>
      <point x="242" y="-218"/>
      <point x="177" y="-303"/>
      <point x="57" y="-303" type="curve" smooth="yes"/>
      <point x="26" y="-303"/>
      <point x="-42" y="-298"/>
      <point x="-72" y="-287" type="curve"/>
      <point x="-141" y="-580" type="line"/>
      <point x="-74" y="-596"/>
      <point x="-20" y="-600"/>
      <point x="45" y="-600" type="curve" smooth="yes"/>
      <point x="358" y="-600"/>
      <point x="569" y="-418"/>
      <point x="625" y="-81" type="curve" smooth="yes"/>
      <point x="839" y="1218" type="line"/>
      <point x="1132" y="1218" type="line"/>
    </contour>
  </outline>
</glyph>
<glyph name="Ghook" format="2">
  <advance width="2293"/>
  <unicode hex="0193"/>
  <outline>
    <contour>
      <point x="2054" y="1394" type="line"/>
      <point x="2101" y="1674" type="line" smooth="yes"/>
      <point x="2129" y="1838"/>
      <point x="2250" y="1877"/>
      <point x="2386" y="1877" type="curve" smooth="yes"/>
      <point x="2422" y="1877"/>
      <point x="2456" y="1871"/>
      <point x="2487" y="1867" type="curve"/>
      <point x="2535" y="2160" type="line"/>
      <point x="2481" y="2175"/>
      <point x="2421" y="2180"/>
      <point x="2360" y="2180" type="curve" smooth="yes"/>
      <point x="2052" y="2180"/>
      <point x="1790" y="2000"/>
      <point x="1728" y="1674" type="curve" smooth="yes"/>
      <point x="1675" y="1394" type="line"/>
    </contour>
    <component base="G"/>
  </outline>
</glyph>
<glyph name="Gamma1" format="2">
  <advance width="1990"/>
  <unicode hex="0194"/>
  <outline>
    <contour>
      <point x="294" y="2024" type="line"/>
      <point x="850" y="162" type="line" smooth="yes"/>
      <point x="911" y="-44"/>
      <point x="938" y="-142"/>
      <point x="926" y="-222" type="curve" smooth="yes"/>
      <point x="918" y="-273"/>
      <point x="882" y="-325"/>
      <point x="815" y="-325" type="curve" smooth="yes"/>
      <point x="750" y="-325"/>
      <point x="729" y="-278"/>
      <point x="737" y="-222" type="curve" smooth="yes"/>
      <point x="750" y="-139"/>
      <point x="820" y="-38"/>
      <point x="944" y="162" type="curve" smooth="yes"/>
      <point x="2110" y="2024" type="line"/>
      <point x="1692" y="2024" type="line"/>
      <point x="839" y="586" type="line" smooth="yes"/>
      <point x="602" y="188"/>
      <point x="389" y="-98"/>
      <point x="365" y="-232" type="curve" smooth="yes"/>
      <point x="322" y="-485"/>
      <point x="508" y="-600"/>
      <point x="767" y="-600" type="curve" smooth="yes"/>
      <point x="1026" y="-600"/>
      <point x="1244" y="-485"/>
      <point x="1286" y="-232" type="curve" smooth="yes"/>
      <point x="1308" y="-101"/>
      <point x="1194" y="191"/>
      <point x="1089" y="586" type="curve" smooth="yes"/>
      <point x="711" y="2024" type="line"/>
    </contour>
  </outline>
</glyph>
<glyph name="hv" format="2">
  <advance width="2734"/>
  <unicode hex="0195"/>
  <note>
Note: Must be split in two, or conversion to quadratic curves will fail.
</note>
  <outline>
    <contour>
      <point x="59" y="0" type="line"/>
      <point x="422" y="0" type="line"/>
      <point x="570" y="900" type="line" smooth="yes"/>
      <point x="610" y="1122"/>
      <point x="768" y="1250"/>
      <point x="962" y="1250" type="curve" smooth="yes"/>
      <point x="1150" y="1250"/>
      <point x="1243" y="1129"/>
      <point x="1209" y="922" type="curve" smooth="yes"/>
      <point x="1183" y="768" type="line"/>
      <point x="1546" y="768" type="line"/>
      <point x="1582" y="978" type="line" smooth="yes"/>
      <point x="1642" y="1350"/>
      <point x="1465" y="1556"/>
      <point x="1149" y="1556" type="curve" smooth="yes"/>
      <point x="911" y="1556"/>
      <point x="742" y="1450"/>
      <point x="645" y="1275" type="curve"/>
      <point x="626" y="1275" type="line"/>
      <point x="754" y="2048" type="line"/>
      <point x="399" y="2048" type="line"/>
    </contour>
    <contour>
      <point x="1635" y="-28" type="curve" smooth="yes"/>
      <point x="2140" y="-28"/>
      <point x="2488" y="407"/>
      <point x="2646" y="1354" type="curve"/>
      <point x="2677" y="1536" type="line"/>
      <point x="2314" y="1536" type="line"/>
      <point x="2283" y="1354" type="line" smooth="yes"/>
      <point x="2159" y="603"/>
      <point x="1943" y="276"/>
      <point x="1703" y="276" type="curve" smooth="yes"/>
      <point x="1592" y="276"/>
      <point x="1474" y="343"/>
      <point x="1518" y="602" type="curve"/>
      <point x="1546" y="768" type="line"/>
      <point x="1183" y="768" type="line"/>
      <point x="1155" y="602" type="line" smooth="yes"/>
      <point x="1087" y="189"/>
      <point x="1278" y="-28"/>
    </contour>
  </outline>
</glyph>
<glyph name="Iota1" format="2">
  <advance width="1066"/>
  <unicode hex="0196"/>
  <outline>
    <contour>
      <point x="753" y="2112" type="line"/>
      <point x="379" y="2112" type="line"/>
      <point x="110" y="490" type="line" smooth="yes"/>
      <point x="56" y="157"/>
      <point x="224" y="-28"/>
      <point x="563" y="-28" type="curve" smooth="yes"/>
      <point x="634" y="-28"/>
      <point x="711" y="-16"/>
      <point x="782" y="0" type="curve"/>
      <point x="799" y="285" type="line"/>
      <point x="759" y="277"/>
      <point x="724" y="270"/>
      <point x="664" y="270" type="curve" smooth="yes"/>
      <point x="522" y="270"/>
      <point x="461" y="351"/>
      <point x="484" y="490" type="curve" smooth="yes"/>
    </contour>
  </outline>
</glyph>
<glyph name="Khook" format="2">
  <advance width="1999"/>
  <unicode hex="0198"/>
  <outline>
    <contour>
      <point x="74" y="0" type="line"/>
      <point x="445" y="0" type="line"/>
      <point x="541" y="574" type="line"/>
      <point x="838" y="848" type="line"/>
      <point x="1336" y="0" type="line"/>
      <point x="1782" y="0" type="line"/>
      <point x="1116" y="1110" type="line"/>
      <point x="1724" y="1654" type="line" smooth="yes"/>
      <point x="1834" y="1753"/>
      <point x="1917" y="1778"/>
      <point x="2010" y="1721" type="curve"/>
      <point x="2181" y="1986" type="line"/>
      <point x="1978" y="2126"/>
      <point x="1732" y="2098"/>
      <point x="1505" y="1894" type="curve" smooth="yes"/>
      <point x="657" y="1122" type="line"/>
      <point x="631" y="1122" type="line"/>
      <point x="785" y="2048" type="line"/>
      <point x="414" y="2048" type="line"/>
    </contour>
  </outline>
</glyph>
<glyph name="khook" format="2">
  <advance width="1583"/>
  <unicode hex="0199"/>
  <outline>
    <contour>
      <point x="1030" y="0" type="line"/>
      <point x="1436" y="0" type="line"/>
      <point x="951" y="880" type="line"/>
      <point x="1647" y="1536" type="line"/>
      <point x="1216" y="1536" type="line"/>
      <point x="598" y="946" type="line"/>
      <point x="578" y="946" type="line"/>
      <point x="673" y="1528" type="line"/>
      <point x="310" y="1528" type="line"/>
      <point x="58" y="0" type="line"/>
      <point x="420" y="0" type="line"/>
      <point x="494" y="446" type="line"/>
      <point x="684" y="620" type="line"/>
    </contour>
    <contour>
      <point x="650" y="1381" type="line"/>
      <point x="688" y="1618" type="line" smooth="yes"/>
      <point x="712" y="1750"/>
      <point x="820" y="1787"/>
      <point x="935" y="1787" type="curve" smooth="yes"/>
      <point x="968" y="1787"/>
      <point x="1001" y="1783"/>
      <point x="1028" y="1779" type="curve"/>
      <point x="1075" y="2062" type="line"/>
      <point x="1030" y="2071"/>
      <point x="962" y="2076"/>
      <point x="886" y="2076" type="curve" smooth="yes"/>
      <point x="639" y="2076"/>
      <point x="384" y="1970"/>
      <point x="326" y="1618" type="curve" smooth="yes"/>
      <point x="287" y="1381" type="line"/>
    </contour>
  </outline>
</glyph>
<glyph name="lambdabar" format="2">
  <advance width="1846"/>
  <unicode hex="019B"/>
  <outline>
    <contour>
      <point x="1234" y="1909" type="line"/>
      <point x="428" y="1652" type="line"/>
      <point x="387" y="1393" type="line"/>
      <point x="1190" y="1650" type="line"/>
    </contour>
    <contour>
      <point x="934" y="986" type="line"/>
      <point x="1101" y="1520" type="line"/>
      <point x="846" y="1526" type="line"/>
      <point x="22" y="0" type="line"/>
      <point x="426" y="0" type="line"/>
    </contour>
    <contour>
      <point x="747" y="2117" type="curve"/>
      <point x="694" y="2117"/>
      <point x="590" y="2107"/>
      <point x="540" y="2093" type="curve"/>
      <point x="499" y="1814" type="line"/>
      <point x="530" y="1818"/>
      <point x="558" y="1818"/>
      <point x="578" y="1818" type="curve" smooth="yes"/>
      <point x="665" y="1818"/>
      <point x="713" y="1784"/>
      <point x="734" y="1695" type="curve" smooth="yes"/>
      <point x="832" y="1326" type="line"/>
      <point x="1055" y="274" type="line" smooth="yes"/>
      <point x="1100" y="60"/>
      <point x="1198" y="-26"/>
      <point x="1408" y="-26" type="curve" smooth="yes"/>
      <point x="1466" y="-26"/>
      <point x="1518" y="-22"/>
      <point x="1550" y="-14" type="curve"/>
      <point x="1596" y="279" type="line"/>
      <point x="1585" y="279"/>
      <point x="1566" y="279"/>
      <point x="1548" y="279" type="curve" smooth="yes"/>
      <point x="1478" y="279"/>
      <point x="1450" y="338"/>
      <point x="1429" y="418" type="curve" smooth="yes"/>
      <point x="1080" y="1882" type="line" smooth="yes"/>
      <point x="1044" y="2031"/>
      <point x="954" y="2117"/>
    </contour>
  </outline>
</glyph>
<glyph name="mcapturn" format="2">
  <advance width="2638"/>
  <unicode hex="019C"/>
  <outline>
    <contour>
      <point x="1972" y="332" type="line"/>
      <point x="1949" y="0" type="line"/>
      <point x="2289" y="0" type="line"/>
      <point x="2621" y="2004" type="line"/>
      <point x="2250" y="2004" type="line"/>
    </contour>
    <contour>
      <point x="2073" y="692" type="line"/>
      <point x="2033" y="456"/>
      <point x="1911" y="274"/>
      <point x="1650" y="274" type="curve" smooth="yes"/>
      <point x="1522" y="274"/>
      <point x="1434" y="352"/>
      <point x="1473" y="592" type="curve"/>
      <point x="1706" y="2004" type="line"/>
      <point x="1338" y="2004" type="line"/>
      <point x="1105" y="592" type="line"/>
      <point x="1030" y="131"/>
      <point x="1202" y="-28"/>
      <point x="1505" y="-28" type="curve" smooth="yes"/>
      <point x="1898" y="-28"/>
      <point x="2136" y="280"/>
      <point x="2204" y="696" type="curve"/>
    </contour>
    <contour>
      <point x="1164" y="692" type="line"/>
      <point x="1122" y="454"/>
      <point x="1000" y="274"/>
      <point x="739" y="274" type="curve" smooth="yes"/>
      <point x="611" y="274"/>
      <point x="525" y="352"/>
      <point x="564" y="592" type="curve" smooth="yes"/>
      <point x="798" y="2004" type="line"/>
      <point x="427" y="2004" type="line"/>
      <point x="194" y="592" type="line" smooth="yes"/>
      <point x="119" y="135"/>
      <point x="270" y="-28"/>
      <point x="594" y="-28" type="curve" smooth="yes"/>
      <point x="994" y="-28"/>
      <point x="1229" y="275"/>
      <point x="1298" y="696" type="curve"/>
    </contour>
  </outline>
</glyph>
<glyph name="Nhook" format="2">
  <advance width="2094"/>
  <unicode hex="019D"/>
  <outline>
    <contour>
      <point x="81" y="0" type="line"/>
      <point x="61" y="-115" type="line" smooth="yes"/>
      <point x="38" y="-248"/>
      <point x="-67" y="-285"/>
      <point x="-185" y="-285" type="curve"/>
      <point x="-210" y="-285"/>
      <point x="-244" y="-284"/>
      <point x="-267" y="-280" type="curve"/>
      <point x="-314" y="-566" type="line"/>
      <point x="-267" y="-574"/>
      <point x="-181" y="-578"/>
      <point x="-121" y="-578" type="curve"/>
      <point x="128" y="-578"/>
      <point x="363" y="-482"/>
      <point x="430" y="-118" type="curve" smooth="yes"/>
      <point x="452" y="0" type="line"/>
    </contour>
    <component base="N" xOffset="7"/>
  </outline>
</glyph>
<glyph name="Ohorn" format="2">
  <advance width="2254"/>
  <unicode hex="01A0"/>
  <outline>
    <contour>
      <point x="2189" y="2164" type="line"/>
      <point x="2148" y="1921"/>
      <point x="2054" y="1778"/>
      <point x="1856" y="1778" type="curve"/>
      <point x="1821" y="1566" type="line"/>
      <point x="2182" y="1566"/>
      <point x="2388" y="1785"/>
      <point x="2450" y="2164" type="curve"/>
    </contour>
    <component base="O"/>
  </outline>
</glyph>
<glyph name="OI" format="2">
  <advance width="2510"/>
  <unicode hex="01A2"/>
  <outline>
    <contour>
      <point x="1842" y="1114" type="line"/>
      <point x="1470" y="1114" type="line"/>
      <point x="1350" y="394" type="line"/>
      <point x="1292" y="347"/>
      <point x="1190" y="280"/>
      <point x="964" y="280" type="curve" smooth="yes"/>
      <point x="613" y="280"/>
      <point x="502" y="543"/>
      <point x="566" y="938" type="curve" smooth="yes"/>
      <point x="585" y="1048" type="line"/>
      <point x="194" y="1044" type="line"/>
      <point x="177" y="938" type="line" smooth="yes"/>
      <point x="74" y="318"/>
      <point x="377" y="-28"/>
      <point x="894" y="-28" type="curve" smooth="yes"/>
      <point x="1346" y="-28"/>
      <point x="1594" y="149"/>
      <point x="1698" y="261" type="curve"/>
    </contour>
    <contour>
      <point x="1946" y="1743" type="line"/>
      <point x="1877" y="1857"/>
      <point x="1688" y="2032"/>
      <point x="1234" y="2032" type="curve" smooth="yes"/>
      <point x="715" y="2032"/>
      <point x="300" y="1676"/>
      <point x="199" y="1066" type="curve" smooth="yes"/>
      <point x="181" y="958" type="line"/>
      <point x="570" y="956" type="line"/>
      <point x="589" y="1066" type="line" smooth="yes"/>
      <point x="656" y="1483"/>
      <point x="864" y="1722"/>
      <point x="1199" y="1722" type="curve" smooth="yes"/>
      <point x="1420" y="1722"/>
      <point x="1504" y="1665"/>
      <point x="1553" y="1610" type="curve"/>
      <point x="1431" y="877" type="line"/>
      <point x="1804" y="880" type="line"/>
    </contour>
    <contour>
      <point x="2566" y="2004" type="line"/>
      <point x="2285" y="2004" type="line"/>
      <point x="1760" y="1787" type="line"/>
      <point x="1698" y="1410" type="line"/>
      <point x="2126" y="1580" type="line"/>
      <point x="1771" y="-572" type="line"/>
      <point x="2142" y="-572" type="line"/>
    </contour>
  </outline>
</glyph>
<glyph name="oi" format="2">
  <advance width="1987"/>
  <unicode hex="01A3"/>
  <outline>
    <contour>
      <point x="714" y="270" type="curve" smooth="yes"/>
      <point x="480" y="270"/>
      <point x="426" y="459"/>
      <point x="471" y="722" type="curve" smooth="yes"/>
      <point x="478" y="766" type="line" smooth="yes"/>
      <point x="515" y="989"/>
      <point x="609" y="1219"/>
      <point x="870" y="1219" type="curve"/>
      <point x="954" y="1219"/>
      <point x="1012" y="1192"/>
      <point x="1048" y="1144" type="curve"/>
      <point x="984" y="754" type="line"/>
      <point x="1353" y="735" type="line"/>
      <point x="1432" y="1219" type="line"/>
      <point x="1366" y="1364"/>
      <point x="1196" y="1516"/>
      <point x="926" y="1516" type="curve" smooth="yes"/>
      <point x="458" y="1516"/>
      <point x="176" y="1179"/>
      <point x="107" y="766" type="curve" smooth="yes"/>
      <point x="101" y="722" type="line" smooth="yes"/>
      <point x="29" y="307"/>
      <point x="200" y="-28"/>
      <point x="670" y="-28" type="curve"/>
      <point x="947" y="-28"/>
      <point x="1142" y="94"/>
      <point x="1272" y="249" type="curve"/>
      <point x="1366" y="810" type="line"/>
      <point x="994" y="810" type="line"/>
      <point x="915" y="332" type="line"/>
      <point x="860" y="293"/>
      <point x="792" y="270"/>
    </contour>
    <contour>
      <point x="2002" y="1488" type="line"/>
      <point x="1738" y="1488" type="line"/>
      <point x="1278" y="1293" type="line"/>
      <point x="1215" y="910" type="line"/>
      <point x="1558" y="1055" type="line"/>
      <point x="1290" y="-572" type="line"/>
      <point x="1662" y="-572" type="line"/>
    </contour>
  </outline>
</glyph>
<glyph name="Phook" format="2">
  <advance width="2341"/>
  <unicode hex="01A4"/>
  <note>
!post:RemoveOverlap
</note>
  <outline>
    <contour>
      <point x="550" y="1381" type="line"/>
      <point x="566" y="1486" type="line" smooth="yes"/>
      <point x="586" y="1610"/>
      <point x="638" y="1738"/>
      <point x="802" y="1738" type="curve" smooth="yes"/>
      <point x="1066" y="1738" type="line"/>
      <point x="1116" y="2048" type="line"/>
      <point x="850" y="2048" type="line" smooth="yes"/>
      <point x="520" y="2048"/>
      <point x="288" y="1850"/>
      <point x="243" y="1560" type="curve" smooth="yes"/>
      <point x="215" y="1381" type="line"/>
    </contour>
    <component base="P" xOffset="529"/>
  </outline>
</glyph>
<glyph name="phook" format="2">
  <advance width="1759"/>
  <unicode hex="01A5"/>
  <outline>
    <contour>
      <point x="670" y="1536" type="line"/>
      <point x="684" y="1629"/>
      <point x="748" y="1670"/>
      <point x="876" y="1669" type="curve" smooth="yes"/>
      <point x="921" y="1667"/>
      <point x="966" y="1658"/>
      <point x="989" y="1653" type="curve"/>
      <point x="1032" y="1909" type="line"/>
      <point x="999" y="1918"/>
      <point x="931" y="1929"/>
      <point x="846" y="1929" type="curve" smooth="yes"/>
      <point x="533" y="1929"/>
      <point x="357" y="1805"/>
      <point x="314" y="1536" type="curve"/>
    </contour>
    <component base="p"/>
  </outline>
</glyph>
<glyph name="YR" format="2">
  <advance width="2109"/>
  <unicode hex="01A6"/>
  <outline>
    <contour>
      <point x="324" y="1864" type="line"/>
      <point x="711" y="1864" type="line"/>
      <point x="759" y="2144" type="line"/>
      <point x="372" y="2144" type="line"/>
    </contour>
    <contour>
      <point x="346" y="2004" type="line"/>
      <point x="14" y="0" type="line"/>
      <point x="403" y="0" type="line"/>
      <point x="685" y="1692" type="line"/>
      <point x="1036" y="1692" type="line" smooth="yes"/>
      <point x="1283" y="1692"/>
      <point x="1374" y="1568"/>
      <point x="1341" y="1373" type="curve" smooth="yes"/>
      <point x="1312" y="1190"/>
      <point x="1168" y="1060"/>
      <point x="931" y="1060" type="curve" smooth="yes"/>
      <point x="457" y="1060" type="line"/>
      <point x="408" y="752" type="line"/>
      <point x="1053" y="752" type="line"/>
      <point x="1181" y="814" type="line"/>
      <point x="1474" y="903"/>
      <point x="1680" y="1084"/>
      <point x="1730" y="1398" type="curve" smooth="yes"/>
      <point x="1794" y="1792"/>
      <point x="1554" y="2004"/>
      <point x="1086" y="2004" type="curve" smooth="yes"/>
    </contour>
    <contour>
      <point x="1347" y="-486" type="line"/>
      <point x="1760" y="-486" type="line"/>
      <point x="1762" y="-469" type="line"/>
      <point x="1251" y="899" type="line"/>
      <point x="844" y="899" type="line"/>
    </contour>
  </outline>
</glyph>
<glyph name="eshlooprev" format="2">
  <advance width="1731"/>
  <unicode hex="01AA"/>
  <outline>
    <contour>
      <point x="994" y="1448" type="line"/>
      <point x="746" y="-46" type="line" smooth="yes"/>
      <point x="689" y="-394"/>
      <point x="832" y="-582"/>
      <point x="1141" y="-582" type="curve" smooth="yes"/>
      <point x="1206" y="-582"/>
      <point x="1278" y="-576"/>
      <point x="1337" y="-560" type="curve"/>
      <point x="1384" y="-269" type="line"/>
      <point x="1343" y="-277"/>
      <point x="1303" y="-281"/>
      <point x="1270" y="-281" type="curve" smooth="yes"/>
      <point x="1148" y="-281"/>
      <point x="1091" y="-212"/>
      <point x="1118" y="-46" type="curve" smooth="yes"/>
      <point x="1398" y="1630" type="line"/>
    </contour>
    <contour>
      <point x="319" y="1630" type="curve" smooth="yes"/>
      <point x="268" y="1337"/>
      <point x="471" y="1098"/>
      <point x="768" y="1098" type="curve" smooth="yes"/>
      <point x="1064" y="1098"/>
      <point x="1348" y="1338"/>
      <point x="1398" y="1630" type="curve" smooth="yes"/>
      <point x="1444" y="1922"/>
      <point x="1240" y="2162"/>
      <point x="945" y="2162" type="curve" smooth="yes"/>
      <point x="646" y="2162"/>
      <point x="365" y="1922"/>
    </contour>
    <contour>
      <point x="825" y="1420" type="curve" smooth="yes"/>
      <point x="704" y="1420"/>
      <point x="626" y="1490"/>
      <point x="650" y="1634" type="curve" smooth="yes"/>
      <point x="672" y="1771"/>
      <point x="773" y="1844"/>
      <point x="894" y="1844" type="curve" smooth="yes"/>
      <point x="1004" y="1844"/>
      <point x="1084" y="1773"/>
      <point x="1062" y="1634" type="curve" smooth="yes"/>
      <point x="1038" y="1490"/>
      <point x="937" y="1420"/>
    </contour>
  </outline>
</glyph>
<glyph name="tpalatalhook" format="2">
  <advance width="1080"/>
  <unicode hex="01AB"/>
  <outline>
    <contour>
      <point x="630" y="258" type="line"/>
      <point x="566" y="-118" type="line" smooth="yes"/>
      <point x="541" y="-272"/>
      <point x="416" y="-311"/>
      <point x="301" y="-311" type="curve" smooth="yes"/>
      <point x="263" y="-311"/>
      <point x="232" y="-307"/>
      <point x="204" y="-303" type="curve"/>
      <point x="164" y="-558" type="line"/>
      <point x="212" y="-571"/>
      <point x="265" y="-574"/>
      <point x="325" y="-574" type="curve" smooth="yes"/>
      <point x="588" y="-574"/>
      <point x="795" y="-410"/>
      <point x="844" y="-118" type="curve" smooth="yes"/>
      <point x="917" y="315" type="line"/>
    </contour>
    <component base="t"/>
  </outline>
</glyph>
<glyph name="Thook" format="2">
  <advance width="1960"/>
  <unicode hex="01AC"/>
  <note>
!post:RemoveOverlap
</note>
  <outline>
    <contour>
      <point x="1242" y="2048" type="line"/>
      <point x="834" y="2048" type="line" smooth="yes"/>
      <point x="507" y="2048"/>
      <point x="292" y="1858"/>
      <point x="243" y="1561" type="curve" smooth="yes"/>
      <point x="214" y="1390" type="line"/>
      <point x="527" y="1390" type="line"/>
      <point x="546" y="1494" type="line" smooth="yes"/>
      <point x="565" y="1615"/>
      <point x="626" y="1737"/>
      <point x="782" y="1737" type="curve" smooth="yes"/>
      <point x="1190" y="1737" type="line"/>
    </contour>
    <contour>
      <point x="2060" y="2048" type="line"/>
      <point x="935" y="2048" type="line"/>
      <point x="883" y="1737" type="line"/>
      <point x="1007" y="1737" type="line"/>
      <point x="719" y="0" type="line"/>
      <point x="1087" y="0" type="line"/>
      <point x="1375" y="1737" type="line"/>
      <point x="2008" y="1737" type="line"/>
    </contour>
  </outline>
</glyph>
<glyph name="thook" format="2">
  <advance width="1210"/>
  <unicode hex="01AD"/>
  <outline>
    <contour>
      <point x="865" y="1466" type="line"/>
      <point x="903" y="1704" type="line" smooth="yes"/>
      <point x="930" y="1861"/>
      <point x="1048" y="1906"/>
      <point x="1165" y="1906" type="curve" smooth="yes"/>
      <point x="1198" y="1906"/>
      <point x="1234" y="1900"/>
      <point x="1258" y="1894" type="curve"/>
      <point x="1298" y="2140" type="line"/>
      <point x="1247" y="2154"/>
      <point x="1188" y="2162"/>
      <point x="1111" y="2162" type="curve" smooth="yes"/>
      <point x="840" y="2162"/>
      <point x="590" y="2050"/>
      <point x="533" y="1704" type="curve" smooth="yes"/>
      <point x="494" y="1466" type="line"/>
    </contour>
    <contour>
      <point x="1134" y="1488" type="line"/>
      <point x="262" y="1488" type="line"/>
      <point x="216" y="1218" type="line"/>
      <point x="1088" y="1218" type="line"/>
    </contour>
    <contour>
      <point x="511" y="1578" type="line"/>
      <point x="319" y="422" type="line"/>
      <point x="267" y="101"/>
      <point x="414" y="-28"/>
      <point x="658" y="-28" type="curve" smooth="yes"/>
      <point x="754" y="-28"/>
      <point x="834" y="-15"/>
      <point x="899" y="6" type="curve"/>
      <point x="945" y="289" type="line"/>
      <point x="916" y="285"/>
      <point x="874" y="278"/>
      <point x="825" y="278" type="curve" smooth="yes"/>
      <point x="729" y="278"/>
      <point x="671" y="315"/>
      <point x="694" y="452" type="curve"/>
      <point x="882" y="1578" type="line"/>
    </contour>
  </outline>
</glyph>
<glyph name="Trthook" format="2">
  <advance width="1858"/>
  <unicode hex="01AE"/>
  <outline>
    <contour>
      <point x="985" y="0" type="line"/>
      <point x="617" y="0" type="line"/>
      <point x="597" y="-118" type="line" smooth="yes"/>
      <point x="538" y="-472"/>
      <point x="768" y="-576"/>
      <point x="1019" y="-576" type="curve"/>
      <point x="1197" y="-576" type="line"/>
      <point x="1246" y="-279" type="line"/>
      <point x="1163" y="-279" type="line"/>
      <point x="1048" y="-279"/>
      <point x="942" y="-250"/>
      <point x="965" y="-118" type="curve" smooth="yes"/>
    </contour>
    <component base="T"/>
  </outline>
</glyph>
<glyph name="Uhorn" format="2">
  <advance width="2446"/>
  <unicode hex="01AF"/>
  <outline>
    <contour>
      <point x="2300" y="2138" type="line"/>
      <point x="2256" y="1874"/>
      <point x="2186" y="1722"/>
      <point x="1889" y="1722" type="curve"/>
      <point x="1852" y="1506" type="line"/>
      <point x="2306" y="1506"/>
      <point x="2494" y="1735"/>
      <point x="2561" y="2138" type="curve"/>
    </contour>
    <component base="U"/>
  </outline>
</glyph>
<glyph name="uhorn" format="2">
  <advance width="1914"/>
  <unicode hex="01B0"/>
  <outline>
    <contour>
      <point x="1865" y="1615" type="line"/>
      <point x="1830" y="1394"/>
      <point x="1792" y="1292"/>
      <point x="1522" y="1292" type="curve"/>
      <point x="1490" y="1110" type="line"/>
      <point x="1893" y="1110"/>
      <point x="2044" y="1282"/>
      <point x="2098" y="1615" type="curve"/>
    </contour>
    <component base="u" xOffset="5"/>
  </outline>
</glyph>
<glyph name="Upsilon2" format="2">
  <advance width="2176"/>
  <unicode hex="01B1"/>
  <outline>
    <contour>
      <point x="170" y="947" type="curve" smooth="yes"/>
      <point x="75" y="376"/>
      <point x="402" y="-28"/>
      <point x="956" y="-28" type="curve" smooth="yes"/>
      <point x="1510" y="-28"/>
      <point x="1970" y="376"/>
      <point x="2064" y="947" type="curve"/>
      <point x="2123" y="1305"/>
      <point x="2016" y="1566"/>
      <point x="1795" y="1722" type="curve"/>
      <point x="1798" y="1737" type="line"/>
      <point x="2195" y="1737" type="line"/>
      <point x="2247" y="2048" type="line"/>
      <point x="1463" y="2048" type="line"/>
      <point x="1398" y="1656" type="line"/>
      <point x="1615" y="1560"/>
      <point x="1750" y="1296"/>
      <point x="1696" y="970" type="curve" smooth="yes"/>
      <point x="1636" y="593"/>
      <point x="1349" y="306"/>
      <point x="1012" y="306" type="curve" smooth="yes"/>
      <point x="675" y="306"/>
      <point x="484" y="593"/>
      <point x="544" y="970" type="curve"/>
      <point x="598" y="1296"/>
      <point x="825" y="1560"/>
      <point x="1071" y="1656" type="curve"/>
      <point x="1137" y="2048" type="line"/>
      <point x="353" y="2048" type="line"/>
      <point x="301" y="1737" type="line"/>
      <point x="698" y="1737" type="line"/>
      <point x="694" y="1721" type="line"/>
      <point x="425" y="1563"/>
      <point x="229" y="1305"/>
    </contour>
  </outline>
</glyph>
<glyph name="Vcursive" format="2">
  <advance width="1846"/>
  <unicode hex="01B2"/>
  <outline>
    <contour>
      <point x="793" y="-28" type="curve" smooth="yes"/>
      <point x="1231" y="-28"/>
      <point x="1606" y="215"/>
      <point x="1683" y="675" type="curve" smooth="yes"/>
      <point x="1817" y="1494" type="line" smooth="yes"/>
      <point x="1876" y="1839"/>
      <point x="1705" y="2030"/>
      <point x="1393" y="2030" type="curve" smooth="yes"/>
      <point x="1327" y="2030"/>
      <point x="1261" y="2022"/>
      <point x="1199" y="2006" type="curve"/>
      <point x="1149" y="1703" type="line"/>
      <point x="1190" y="1711"/>
      <point x="1232" y="1713"/>
      <point x="1263" y="1713" type="curve" smooth="yes"/>
      <point x="1407" y="1713"/>
      <point x="1456" y="1658"/>
      <point x="1426" y="1494" type="curve" smooth="yes"/>
      <point x="1293" y="675" type="line" smooth="yes"/>
      <point x="1249" y="412"/>
      <point x="1092" y="280"/>
      <point x="843" y="280" type="curve" smooth="yes"/>
      <point x="593" y="280"/>
      <point x="478" y="412"/>
      <point x="522" y="675" type="curve" smooth="yes"/>
      <point x="741" y="2004" type="line"/>
      <point x="356" y="2004" type="line"/>
      <point x="137" y="675" type="line" smooth="yes"/>
      <point x="60" y="214"/>
      <point x="346" y="-28"/>
    </contour>
  </outline>
</glyph>
<glyph name="Yhook" format="2">
  <advance width="2145"/>
  <unicode hex="01B3"/>
  <note>
!post:RemoveOverlap
</note>
  <outline>
    <contour>
      <point x="1829" y="1566" type="line"/>
      <point x="1879" y="1631" type="line" smooth="yes"/>
      <point x="1976" y="1762"/>
      <point x="2062" y="1786"/>
      <point x="2177" y="1744" type="curve"/>
      <point x="2306" y="2027" type="line"/>
      <point x="2089" y="2122"/>
      <point x="1822" y="2077"/>
      <point x="1617" y="1804" type="curve" smooth="yes"/>
      <point x="1543" y="1705" type="line"/>
    </contour>
    <contour>
      <point x="1066" y="1094" type="line"/>
      <point x="1114" y="1094" type="line"/>
      <point x="1122" y="1142" type="line"/>
      <point x="1074" y="1142" type="line"/>
    </contour>
    <contour>
      <point x="695" y="2048" type="line"/>
      <point x="286" y="2048" type="line"/>
      <point x="858" y="809" type="line"/>
      <point x="723" y="0" type="line"/>
      <point x="1093" y="0" type="line"/>
      <point x="1228" y="809" type="line"/>
      <point x="1829" y="1566" type="line"/>
      <point x="1543" y="1705" type="line"/>
      <point x="1096" y="1122" type="line"/>
    </contour>
  </outline>
</glyph>
<glyph name="yhook" format="2">
  <advance width="1743"/>
  <unicode hex="01B4"/>
  <outline>
    <contour>
      <point x="1505" y="1286" type="line"/>
      <point x="1536" y="1344" type="line" smooth="yes"/>
      <point x="1617" y="1499"/>
      <point x="1673" y="1575"/>
      <point x="1783" y="1592" type="curve" smooth="yes"/>
      <point x="1826" y="1596"/>
      <point x="1870" y="1586"/>
      <point x="1917" y="1569" type="curve"/>
      <point x="2006" y="1843" type="line"/>
      <point x="1874" y="1877"/>
      <point x="1784" y="1898"/>
      <point x="1675" y="1878" type="curve" smooth="yes"/>
      <point x="1467" y="1852"/>
      <point x="1322" y="1673"/>
      <point x="1225" y="1482" type="curve" smooth="yes"/>
      <point x="1178" y="1386" type="line"/>
    </contour>
    <contour>
      <point x="462" y="-74" type="line" smooth="yes"/>
      <point x="389" y="-221"/>
      <point x="291" y="-288"/>
      <point x="109" y="-288" type="curve"/>
      <point x="68" y="-288"/>
      <point x="42" y="-286"/>
      <point x="22" y="-282" type="curve"/>
      <point x="-26" y="-575" type="line"/>
      <point x="25" y="-593"/>
      <point x="92" y="-600"/>
      <point x="157" y="-600" type="curve" smooth="yes"/>
      <point x="442" y="-600"/>
      <point x="652" y="-413"/>
      <point x="748" y="-223" type="curve" smooth="yes"/>
      <point x="1505" y="1286" type="line"/>
      <point x="1178" y="1386" type="line"/>
      <point x="762" y="554" type="line"/>
      <point x="587" y="1536" type="line"/>
      <point x="206" y="1536" type="line"/>
      <point x="510" y="27" type="line"/>
    </contour>
  </outline>
</glyph>
<glyph name="Ezh" format="2">
  <advance width="1928"/>
  <unicode hex="01B7"/>
  <outline>
    <contour>
      <point x="10" y="156" type="line"/>
      <point x="-43" y="-266"/>
      <point x="274" y="-563"/>
      <point x="731" y="-563" type="curve" smooth="yes"/>
      <point x="1251" y="-563"/>
      <point x="1648" y="-182"/>
      <point x="1727" y="298" type="curve" smooth="yes"/>
      <point x="1797" y="721"/>
      <point x="1596" y="1084"/>
      <point x="1125" y="1118" type="curve"/>
      <point x="1129" y="1138" type="line"/>
      <point x="1922" y="1780" type="line"/>
      <point x="1965" y="2048" type="line"/>
      <point x="437" y="2048" type="line"/>
      <point x="385" y="1731" type="line"/>
      <point x="1439" y="1731" type="line"/>
      <point x="1437" y="1715" type="line"/>
      <point x="734" y="1148" type="line"/>
      <point x="688" y="870" type="line"/>
      <point x="886" y="870" type="line" smooth="yes"/>
      <point x="1215" y="870"/>
      <point x="1403" y="637"/>
      <point x="1349" y="313" type="curve" smooth="yes"/>
      <point x="1302" y="20"/>
      <point x="1088" y="-245"/>
      <point x="790" y="-245" type="curve" smooth="yes"/>
      <point x="552" y="-245"/>
      <point x="359" y="-82"/>
      <point x="386" y="156" type="curve"/>
    </contour>
  </outline>
</glyph>
<glyph name="ezhtail" format="2">
  <advance width="1587"/>
  <unicode hex="01BA"/>
  <outline>
    <contour>
      <point x="334" y="1488" type="line"/>
      <point x="286" y="1191" type="line"/>
      <point x="938" y="1191" type="line"/>
      <point x="484" y="876" type="line"/>
      <point x="448" y="658" type="line"/>
      <point x="715" y="658" type="line"/>
      <point x="1525" y="1275" type="line"/>
      <point x="1561" y="1488" type="line"/>
    </contour>
    <contour>
      <point x="348" y="-165" type="curve" smooth="yes"/>
      <point x="360" y="-78"/>
      <point x="433" y="-16"/>
      <point x="699" y="37" type="curve" smooth="yes"/>
      <point x="1001" y="98"/>
      <point x="1272" y="213"/>
      <point x="1318" y="486" type="curve" smooth="yes"/>
      <point x="1359" y="730"/>
      <point x="1164" y="924"/>
      <point x="794" y="924" type="curve" smooth="yes"/>
      <point x="644" y="924" type="line"/>
      <point x="600" y="658" type="line"/>
      <point x="750" y="658" type="line" smooth="yes"/>
      <point x="904" y="658"/>
      <point x="976" y="598"/>
      <point x="958" y="502" type="curve" smooth="yes"/>
      <point x="941" y="396"/>
      <point x="859" y="356"/>
      <point x="623" y="310" type="curve" smooth="yes"/>
      <point x="247" y="239"/>
      <point x="32" y="108"/>
      <point x="-10" y="-146" type="curve" smooth="yes"/>
      <point x="-54" y="-410"/>
      <point x="158" y="-600"/>
      <point x="539" y="-600" type="curve" smooth="yes"/>
      <point x="957" y="-600"/>
      <point x="1228" y="-345"/>
      <point x="1269" y="-102" type="curve"/>
      <point x="914" y="-102" type="line"/>
      <point x="875" y="-278"/>
      <point x="716" y="-330"/>
      <point x="578" y="-330" type="curve" smooth="yes"/>
      <point x="420" y="-330"/>
      <point x="331" y="-269"/>
    </contour>
  </outline>
</glyph>
<glyph name="Tonefive" format="2">
  <advance width="1754"/>
  <unicode hex="01BC"/>
  <outline>
    <contour>
      <point x="755" y="2048" type="line"/>
      <point x="311" y="2048" type="line"/>
      <point x="258" y="1738" type="line"/>
      <point x="702" y="1738" type="line"/>
    </contour>
    <component base="five" xOffset="32"/>
  </outline>
</glyph>
<glyph name="tonefive" format="2">
  <advance width="1736"/>
  <unicode hex="01BD"/>
  <outline>
    <contour>
      <point x="651" y="638" type="line"/>
      <point x="702" y="689"/>
      <point x="783" y="731"/>
      <point x="915" y="731" type="curve" smooth="yes"/>
      <point x="1088" y="731"/>
      <point x="1168" y="640"/>
      <point x="1146" y="506" type="curve" smooth="yes"/>
      <point x="1123" y="369"/>
      <point x="1022" y="277"/>
      <point x="838" y="277" type="curve" smooth="yes"/>
      <point x="676" y="277"/>
      <point x="579" y="341"/>
      <point x="594" y="457" type="curve"/>
      <point x="226" y="436" type="line"/>
      <point x="172" y="118"/>
      <point x="475" y="-24"/>
      <point x="789" y="-24" type="curve" smooth="yes"/>
      <point x="1242" y="-24"/>
      <point x="1464" y="196"/>
      <point x="1513" y="486" type="curve" smooth="yes"/>
      <point x="1563" y="807"/>
      <point x="1394" y="994"/>
      <point x="1053" y="990" type="curve" smooth="yes"/>
      <point x="931" y="987"/>
      <point x="807" y="952"/>
      <point x="740" y="917" type="curve"/>
      <point x="824" y="1190" type="line"/>
      <point x="1534" y="1190" type="line"/>
      <point x="1583" y="1488" type="line"/>
      <point x="568" y="1488" type="line"/>
      <point x="323" y="657" type="line"/>
    </contour>
    <contour>
      <point x="728" y="1488" type="line"/>
      <point x="298" y="1488" type="line"/>
      <point x="248" y="1190" type="line"/>
      <point x="678" y="1190" type="line"/>
    </contour>
  </outline>
</glyph>
<glyph name="glottalstopbarinv" format="2">
  <advance width="1587"/>
  <unicode hex="01BE"/>
  <outline>
    <contour>
      <point x="1010" y="409" type="curve" smooth="yes"/>
      <point x="994" y="307"/>
      <point x="886" y="242"/>
      <point x="724" y="242" type="curve" smooth="yes"/>
      <point x="586" y="242"/>
      <point x="446" y="298"/>
      <point x="467" y="473" type="curve"/>
      <point x="110" y="473" type="line"/>
      <point x="70" y="230"/>
      <point x="254" y="-28"/>
      <point x="675" y="-28" type="curve" smooth="yes"/>
      <point x="1054" y="-28"/>
      <point x="1333" y="162"/>
      <point x="1376" y="426" type="curve" smooth="yes"/>
      <point x="1450" y="864"/>
      <point x="926" y="739"/>
      <point x="986" y="1111" type="curve" smooth="yes"/>
      <point x="1110" y="1854" type="line"/>
      <point x="737" y="1854" type="line"/>
      <point x="612" y="1111" type="line" smooth="yes"/>
      <point x="529" y="603"/>
      <point x="1050" y="650"/>
    </contour>
    <contour>
      <point x="1313" y="1488" type="line"/>
      <point x="441" y="1488" type="line"/>
      <point x="395" y="1218" type="line"/>
      <point x="1267" y="1218" type="line"/>
    </contour>
  </outline>
</glyph>
<glyph name="wynn" format="2">
  <advance width="1858"/>
  <unicode hex="01BF"/>
  <outline>
    <contour>
      <point x="699" y="1204" type="line"/>
      <point x="720" y="1488" type="line"/>
      <point x="374" y="1488" type="line"/>
      <point x="34" y="-572" type="line"/>
      <point x="407" y="-572" type="line"/>
    </contour>
    <contour>
      <point x="582" y="839" type="line"/>
      <point x="640" y="1066"/>
      <point x="760" y="1216"/>
      <point x="984" y="1216" type="curve" smooth="yes"/>
      <point x="1217" y="1216"/>
      <point x="1269" y="1007"/>
      <point x="1230" y="761" type="curve" smooth="yes"/>
      <point x="1224" y="730" type="line" smooth="yes"/>
      <point x="1155" y="311"/>
      <point x="806" y="100"/>
      <point x="358" y="28" type="curve"/>
      <point x="333" y="-266" type="line"/>
      <point x="1055" y="-90"/>
      <point x="1502" y="151"/>
      <point x="1598" y="730" type="curve" smooth="yes"/>
      <point x="1604" y="761" type="line" smooth="yes"/>
      <point x="1677" y="1211"/>
      <point x="1519" y="1516"/>
      <point x="1134" y="1516" type="curve" smooth="yes"/>
      <point x="754" y="1516"/>
      <point x="536" y="1205"/>
      <point x="411" y="770" type="curve"/>
    </contour>
  </outline>
</glyph>
<glyph name="pipe" format="2">
  <advance width="812"/>
  <unicode hex="01C0"/>
  <outline>
    <contour>
      <point x="733" y="2024" type="line"/>
      <point x="494" y="2024" type="line"/>
      <point x="158" y="0" type="line"/>
      <point x="398" y="0" type="line"/>
    </contour>
  </outline>
</glyph>
<glyph name="Gbar" format="2">
  <advance width="2126"/>
  <unicode hex="01E4"/>
  <outline>
    <contour>
      <point x="2059" y="650" type="line"/>
      <point x="1118" y="650" type="line"/>
      <point x="1091" y="480" type="line"/>
      <point x="2032" y="480" type="line"/>
    </contour>
    <component base="G"/>
  </outline>
</glyph>
<glyph name="uni01F6" format="2">
  <advance width="3154"/>
  <unicode hex="01F6"/>
  <outline>
    <contour>
      <point x="2117" y="-28" type="curve" smooth="yes"/>
      <point x="2551" y="-28"/>
      <point x="2877" y="220"/>
      <point x="2953" y="675" type="curve" smooth="yes"/>
      <point x="3091" y="1509" type="line"/>
      <point x="2720" y="1509" type="line"/>
      <point x="2582" y="675" type="line" smooth="yes"/>
      <point x="2538" y="418"/>
      <point x="2392" y="291"/>
      <point x="2169" y="291" type="curve" smooth="yes"/>
      <point x="1946" y="291"/>
      <point x="1834" y="418"/>
      <point x="1878" y="675" type="curve" smooth="yes"/>
      <point x="2106" y="2048" type="line"/>
      <point x="1734" y="2048" type="line"/>
      <point x="1590" y="1181" type="line"/>
      <point x="641" y="1181" type="line"/>
      <point x="785" y="2048" type="line"/>
      <point x="414" y="2048" type="line"/>
      <point x="74" y="0" type="line"/>
      <point x="445" y="0" type="line"/>
      <point x="589" y="870" type="line"/>
      <point x="1538" y="870" type="line"/>
      <point x="1507" y="675" type="line" smooth="yes"/>
      <point x="1434" y="225"/>
      <point x="1677" y="-28"/>
    </contour>
  </outline>
</glyph>
<glyph name="uni01F7" format="2">
  <advance width="1995"/>
  <unicode hex="01F7"/>
  <outline>
    <contour>
      <point x="797" y="2004" type="line"/>
      <point x="411" y="2004" type="line"/>
      <point x="-13" y="-572" type="line"/>
      <point x="373" y="-572" type="line"/>
    </contour>
    <contour>
      <point x="242" y="-254" type="line"/>
      <point x="1114" y="-80"/>
      <point x="1739" y="451"/>
      <point x="1843" y="1092" type="curve" smooth="yes"/>
      <point x="1855" y="1164" type="line" smooth="yes"/>
      <point x="1950" y="1730"/>
      <point x="1667" y="2032"/>
      <point x="1152" y="2032" type="curve" smooth="yes"/>
      <point x="951" y="2032"/>
      <point x="775" y="1969"/>
      <point x="659" y="1874" type="curve"/>
      <point x="566" y="1323" type="line"/>
      <point x="658" y="1557"/>
      <point x="848" y="1722"/>
      <point x="1103" y="1722" type="curve" smooth="yes"/>
      <point x="1455" y="1722"/>
      <point x="1518" y="1491"/>
      <point x="1466" y="1168" type="curve" smooth="yes"/>
      <point x="1452" y="1092" type="line" smooth="yes"/>
      <point x="1379" y="651"/>
      <point x="989" y="210"/>
      <point x="293" y="57" type="curve"/>
    </contour>
  </outline>
</glyph>
<glyph name="uni021C" format="2">
  <advance width="1850"/>
  <unicode hex="021C"/>
  <outline>
    <contour>
      <point x="263" y="426" type="line"/>
      <point x="1102" y="625"/>
      <point x="1673" y="937"/>
      <point x="1761" y="1460" type="curve" smooth="yes"/>
      <point x="1821" y="1832"/>
      <point x="1558" y="2030"/>
      <point x="1104" y="2030" type="curve" smooth="yes"/>
      <point x="722" y="2030"/>
      <point x="350" y="1821"/>
      <point x="291" y="1465" type="curve"/>
      <point x="676" y="1465" type="line"/>
      <point x="703" y="1625"/>
      <point x="875" y="1720"/>
      <point x="1054" y="1720" type="curve" smooth="yes"/>
      <point x="1314" y="1720"/>
      <point x="1398" y="1593"/>
      <point x="1371" y="1424" type="curve" smooth="yes"/>
      <point x="1312" y="1074"/>
      <point x="1021" y="914"/>
      <point x="308" y="713" type="curve"/>
    </contour>
    <contour>
      <point x="1060" y="792" type="line"/>
      <point x="1214" y="766"/>
      <point x="1276" y="690"/>
      <point x="1239" y="473" type="curve" smooth="yes"/>
      <point x="1172" y="60"/>
      <point x="788" y="-172"/>
      <point x="143" y="-294" type="curve"/>
      <point x="90" y="-600" type="line"/>
      <point x="897" y="-475"/>
      <point x="1522" y="-162"/>
      <point x="1626" y="466" type="curve" smooth="yes"/>
      <point x="1678" y="784"/>
      <point x="1510" y="976"/>
      <point x="1202" y="1012" type="curve"/>
    </contour>
  </outline>
</glyph>
<glyph name="uni021D" format="2">
  <advance width="1589"/>
  <unicode hex="021D"/>
  <outline>
    <contour>
      <point x="238" y="238" type="line"/>
      <point x="906" y="395"/>
      <point x="1371" y="664"/>
      <point x="1441" y="1080" type="curve" smooth="yes"/>
      <point x="1488" y="1364"/>
      <point x="1275" y="1516"/>
      <point x="901" y="1516" type="curve" smooth="yes"/>
      <point x="571" y="1516"/>
      <point x="270" y="1344"/>
      <point x="225" y="1062" type="curve"/>
      <point x="596" y="1062" type="line"/>
      <point x="612" y="1167"/>
      <point x="727" y="1234"/>
      <point x="870" y="1234" type="curve" smooth="yes"/>
      <point x="1040" y="1234"/>
      <point x="1078" y="1143"/>
      <point x="1062" y="1040" type="curve" smooth="yes"/>
      <point x="1017" y="770"/>
      <point x="693" y="623"/>
      <point x="283" y="508" type="curve"/>
    </contour>
    <contour>
      <point x="824" y="573" type="line"/>
      <point x="927" y="550"/>
      <point x="988" y="445"/>
      <point x="962" y="278" type="curve" smooth="yes"/>
      <point x="909" y="-43"/>
      <point x="634" y="-182"/>
      <point x="145" y="-322" type="curve"/>
      <point x="98" y="-600" type="line"/>
      <point x="798" y="-482"/>
      <point x="1252" y="-217"/>
      <point x="1333" y="258" type="curve" smooth="yes"/>
      <point x="1376" y="534"/>
      <point x="1234" y="698"/>
      <point x="960" y="735" type="curve"/>
    </contour>
  </outline>
</glyph>
<glyph name="uni0220" format="2">
  <advance width="1853"/>
  <unicode hex="0220"/>
  <outline>
    <contour>
      <point x="1455" y="-572" type="line"/>
      <point x="1778" y="1394" type="line" smooth="yes"/>
      <point x="1847" y="1808"/>
      <point x="1560" y="2032"/>
      <point x="1176" y="2032" type="curve" smooth="yes"/>
      <point x="911" y="2032"/>
      <point x="678" y="1911"/>
      <point x="520" y="1781" type="curve"/>
      <point x="465" y="1452" type="line"/>
      <point x="663" y="1636"/>
      <point x="870" y="1732"/>
      <point x="1095" y="1732" type="curve" smooth="yes"/>
      <point x="1336" y="1732"/>
      <point x="1440" y="1617"/>
      <point x="1402" y="1394" type="curve" smooth="yes"/>
      <point x="1080" y="-572" type="line"/>
    </contour>
    <contour>
      <point x="757" y="2004" type="line"/>
      <point x="386" y="2004" type="line"/>
      <point x="54" y="0" type="line"/>
      <point x="425" y="0" type="line"/>
    </contour>
  </outline>
</glyph>
<glyph name="uni0221" format="2">
  <advance width="2021"/>
  <unicode hex="0221"/>
  <outline>
    <contour>
      <point x="1141" y="348" type="line"/>
      <point x="1069" y="-93" type="line"/>
      <point x="1027" y="-350"/>
      <point x="1122" y="-576"/>
      <point x="1506" y="-576" type="curve" smooth="yes"/>
      <point x="1809" y="-576"/>
      <point x="2001" y="-434"/>
      <point x="2038" y="-217" type="curve" smooth="yes"/>
      <point x="2076" y="10"/>
      <point x="1919" y="163"/>
      <point x="1627" y="163" type="curve" smooth="yes"/>
      <point x="1447" y="163"/>
      <point x="1270" y="102"/>
      <point x="1104" y="-13" type="curve"/>
      <point x="689" y="-330" type="line"/>
      <point x="828" y="-551" type="line"/>
      <point x="1283" y="-203" type="line" smooth="yes"/>
      <point x="1399" y="-121"/>
      <point x="1504" y="-69"/>
      <point x="1590" y="-77" type="curve" smooth="yes"/>
      <point x="1684" y="-83"/>
      <point x="1725" y="-138"/>
      <point x="1714" y="-210" type="curve" smooth="yes"/>
      <point x="1702" y="-285"/>
      <point x="1633" y="-338"/>
      <point x="1551" y="-338" type="curve" smooth="yes"/>
      <point x="1466" y="-338"/>
      <point x="1402" y="-282"/>
      <point x="1422" y="-166" type="curve"/>
      <point x="1503" y="348" type="line"/>
    </contour>
    <component base="d" xOffset="3"/>
  </outline>
</glyph>
<glyph name="uni0222" format="2">
  <advance width="1851"/>
  <unicode hex="0222"/>
  <outline>
    <contour>
      <point x="992" y="1252" type="line"/>
      <point x="549" y="1252"/>
      <point x="180" y="1047"/>
      <point x="111" y="623" type="curve" smooth="yes"/>
      <point x="39" y="197"/>
      <point x="336" y="-28"/>
      <point x="780" y="-28" type="curve" smooth="yes"/>
      <point x="810" y="-28" type="line" smooth="yes"/>
      <point x="1252" y="-28"/>
      <point x="1621" y="197"/>
      <point x="1694" y="627" type="curve" smooth="yes"/>
      <point x="1763" y="1047"/>
      <point x="1463" y="1252"/>
      <point x="1022" y="1252" type="curve" smooth="yes"/>
    </contour>
    <contour>
      <point x="975" y="974" type="line"/>
      <point x="1216" y="974"/>
      <point x="1340" y="847"/>
      <point x="1304" y="627" type="curve" smooth="yes"/>
      <point x="1268" y="401"/>
      <point x="1103" y="282"/>
      <point x="862" y="282" type="curve" smooth="yes"/>
      <point x="831" y="282" type="line" smooth="yes"/>
      <point x="591" y="282"/>
      <point x="464" y="401"/>
      <point x="501" y="623" type="curve" smooth="yes"/>
      <point x="536" y="850"/>
      <point x="706" y="974"/>
      <point x="945" y="974" type="curve" smooth="yes"/>
    </contour>
    <contour>
      <point x="989" y="1288" type="line"/>
      <point x="758" y="1288"/>
      <point x="620" y="1346"/>
      <point x="650" y="1527" type="curve" smooth="yes"/>
      <point x="672" y="1656"/>
      <point x="746" y="1705"/>
      <point x="879" y="1736" type="curve"/>
      <point x="928" y="2032" type="line"/>
      <point x="592" y="2026"/>
      <point x="316" y="1869"/>
      <point x="261" y="1527" type="curve" smooth="yes"/>
      <point x="198" y="1153"/>
      <point x="518" y="1011"/>
      <point x="943" y="1011" type="curve" smooth="yes"/>
      <point x="988" y="1011" type="line" smooth="yes"/>
      <point x="1411" y="1011"/>
      <point x="1784" y="1153"/>
      <point x="1846" y="1527" type="curve" smooth="yes"/>
      <point x="1901" y="1869"/>
      <point x="1680" y="2026"/>
      <point x="1341" y="2032" type="curve"/>
      <point x="1292" y="1736" type="line"/>
      <point x="1418" y="1705"/>
      <point x="1478" y="1656"/>
      <point x="1457" y="1527" type="curve" smooth="yes"/>
      <point x="1426" y="1342"/>
      <point x="1258" y="1288"/>
      <point x="1034" y="1288" type="curve" smooth="yes"/>
    </contour>
  </outline>
</glyph>
<glyph name="uni0223" format="2">
  <advance width="1850"/>
  <unicode hex="0223"/>
  <outline>
    <contour>
      <point x="987" y="1235" type="line"/>
      <point x="545" y="1235"/>
      <point x="188" y="1042"/>
      <point x="117" y="618" type="curve" smooth="yes"/>
      <point x="45" y="192"/>
      <point x="336" y="-28"/>
      <point x="778" y="-28" type="curve" smooth="yes"/>
      <point x="809" y="-28" type="line" smooth="yes"/>
      <point x="1250" y="-28"/>
      <point x="1611" y="192"/>
      <point x="1683" y="621" type="curve" smooth="yes"/>
      <point x="1754" y="1042"/>
      <point x="1457" y="1235"/>
      <point x="1018" y="1235" type="curve" smooth="yes"/>
    </contour>
    <contour>
      <point x="974" y="966" type="line"/>
      <point x="1218" y="966"/>
      <point x="1346" y="841"/>
      <point x="1310" y="621" type="curve" smooth="yes"/>
      <point x="1274" y="396"/>
      <point x="1102" y="270"/>
      <point x="858" y="270" type="curve" smooth="yes"/>
      <point x="827" y="270" type="line" smooth="yes"/>
      <point x="584" y="270"/>
      <point x="454" y="396"/>
      <point x="490" y="618" type="curve" smooth="yes"/>
      <point x="526" y="841"/>
      <point x="701" y="966"/>
      <point x="944" y="966" type="curve" smooth="yes"/>
    </contour>
    <contour>
      <point x="1029" y="1263" type="curve" smooth="yes"/>
      <point x="986" y="1263" type="line" smooth="yes"/>
      <point x="758" y="1263"/>
      <point x="610" y="1335"/>
      <point x="647" y="1567" type="curve" smooth="yes"/>
      <point x="675" y="1732"/>
      <point x="767" y="1812"/>
      <point x="898" y="1858" type="curve"/>
      <point x="946" y="2140" type="line"/>
      <point x="610" y="2134"/>
      <point x="335" y="1938"/>
      <point x="274" y="1572" type="curve" smooth="yes"/>
      <point x="204" y="1149"/>
      <point x="517" y="998"/>
      <point x="940" y="998" type="curve" smooth="yes"/>
      <point x="983" y="998" type="line" smooth="yes"/>
      <point x="1408" y="998"/>
      <point x="1770" y="1149"/>
      <point x="1840" y="1572" type="curve" smooth="yes"/>
      <point x="1902" y="1941"/>
      <point x="1689" y="2134"/>
      <point x="1359" y="2140" type="curve"/>
      <point x="1310" y="1858" type="line"/>
      <point x="1431" y="1812"/>
      <point x="1498" y="1732"/>
      <point x="1470" y="1567" type="curve" smooth="yes"/>
      <point x="1432" y="1337"/>
      <point x="1260" y="1263"/>
    </contour>
  </outline>
</glyph>
<glyph name="uni0224" format="2">
  <advance width="1838"/>
  <unicode hex="0224"/>
  <note>
!post:RemoveOverlap
</note>
  <outline>
    <contour>
      <point x="982" y="311" type="line"/>
      <point x="930" y="0" type="line"/>
      <point x="1067" y="0" type="line" smooth="yes"/>
      <point x="1227" y="0"/>
      <point x="1248" y="-115"/>
      <point x="1226" y="-241" type="curve"/>
      <point x="1211" y="-336" type="line"/>
      <point x="1523" y="-336" type="line"/>
      <point x="1551" y="-174" type="line"/>
      <point x="1600" y="123"/>
      <point x="1444" y="311"/>
      <point x="1119" y="311" type="curve" smooth="yes"/>
    </contour>
    <contour>
      <point x="982" y="311" type="line"/>
      <point x="542" y="311" type="line"/>
      <point x="1849" y="1817" type="line"/>
      <point x="1886" y="2048" type="line"/>
      <point x="370" y="2048" type="line"/>
      <point x="318" y="1737" type="line"/>
      <point x="1380" y="1737" type="line"/>
      <point x="76" y="231" type="line"/>
      <point x="36" y="0" type="line"/>
      <point x="930" y="0" type="line"/>
    </contour>
  </outline>
</glyph>
<glyph name="zhook" format="2">
  <advance width="1571"/>
  <unicode hex="0225"/>
  <outline>
    <contour>
      <point x="977" y="-355" type="line"/>
      <point x="1283" y="-355" type="line"/>
      <point x="1312" y="-189" type="line"/>
      <point x="1361" y="105"/>
      <point x="1209" y="298"/>
      <point x="880" y="298" type="curve" smooth="yes"/>
      <point x="542" y="298" type="line"/>
      <point x="1486" y="1308" type="line"/>
      <point x="1525" y="1536" type="line"/>
      <point x="302" y="1536" type="line"/>
      <point x="254" y="1238" type="line"/>
      <point x="1023" y="1238" type="line"/>
      <point x="77" y="234" type="line"/>
      <point x="38" y="0" type="line"/>
      <point x="831" y="0" type="line" smooth="yes"/>
      <point x="1004" y="0"/>
      <point x="1014" y="-135"/>
      <point x="992" y="-262" type="curve" smooth="yes"/>
    </contour>
  </outline>
</glyph>
<glyph name="lcurl" format="2">
  <advance width="1113"/>
  <unicode hex="0234"/>
  <outline>
    <contour>
      <point x="104" y="371" type="line"/>
      <point x="32" y="-61" type="line"/>
      <point x="-20" y="-375"/>
      <point x="178" y="-576"/>
      <point x="461" y="-576" type="curve" smooth="yes"/>
      <point x="729" y="-576"/>
      <point x="929" y="-391"/>
      <point x="963" y="-178" type="curve" smooth="yes"/>
      <point x="999" y="35"/>
      <point x="861" y="202"/>
      <point x="622" y="202" type="curve" smooth="yes"/>
      <point x="422" y="202"/>
      <point x="143" y="74"/>
      <point x="-75" y="-75" type="curve" smooth="yes"/>
      <point x="-366" y="-307" type="line"/>
      <point x="-209" y="-519" type="line"/>
      <point x="113" y="-264" type="line" smooth="yes"/>
      <point x="274" y="-146"/>
      <point x="394" y="-65"/>
      <point x="538" y="-65" type="curve" smooth="yes"/>
      <point x="621" y="-65"/>
      <point x="662" y="-121"/>
      <point x="652" y="-185" type="curve" smooth="yes"/>
      <point x="642" y="-256"/>
      <point x="581" y="-314"/>
      <point x="510" y="-314" type="curve" smooth="yes"/>
      <point x="414" y="-314"/>
      <point x="363" y="-246"/>
      <point x="380" y="-153" type="curve" smooth="yes"/>
      <point x="388" y="-93"/>
      <point x="466" y="371"/>
      <point x="466" y="371" type="curve"/>
    </contour>
    <contour>
      <point x="744" y="2048" type="line"/>
      <point x="382" y="2048" type="line"/>
      <point x="42" y="0" type="line"/>
      <point x="404" y="0" type="line"/>
    </contour>
  </outline>
</glyph>
<glyph name="ncurl" format="2">
  <advance width="2226"/>
  <unicode hex="0235"/>
  <outline>
    <contour>
      <point x="1068" y="142" type="line"/>
      <point x="1055" y="53" type="line" smooth="yes"/>
      <point x="1010" y="-220"/>
      <point x="1166" y="-400"/>
      <point x="1460" y="-400" type="curve" smooth="yes"/>
      <point x="1751" y="-400"/>
      <point x="1958" y="-236"/>
      <point x="1998" y="-2" type="curve" smooth="yes"/>
      <point x="2037" y="232"/>
      <point x="1879" y="392"/>
      <point x="1638" y="392" type="curve" smooth="yes"/>
      <point x="1427" y="392"/>
      <point x="1229" y="359"/>
      <point x="988" y="128" type="curve" smooth="yes"/>
      <point x="691" y="-142" type="line"/>
      <point x="852" y="-321" type="line"/>
      <point x="1146" y="-48" type="line" smooth="yes"/>
      <point x="1284" y="84"/>
      <point x="1460" y="146"/>
      <point x="1567" y="145" type="curve" smooth="yes"/>
      <point x="1650" y="144"/>
      <point x="1704" y="95"/>
      <point x="1690" y="12" type="curve" smooth="yes"/>
      <point x="1676" y="-68"/>
      <point x="1615" y="-126"/>
      <point x="1537" y="-126" type="curve" smooth="yes"/>
      <point x="1454" y="-126"/>
      <point x="1399" y="-64"/>
      <point x="1410" y="17" type="curve" smooth="yes"/>
      <point x="1430" y="142" type="line"/>
    </contour>
    <component base="n"/>
  </outline>
</glyph>
